<svg width="269" height="269" viewBox="0 0 269 269" fill="none" xmlns="http://www.w3.org/2000/svg">
<g clip-path="url(#clip0_462_3466)">
<path d="M269 205.73H0V205.865H269V205.73Z" fill="#E6E6E6"/>
<path d="M67.1564 213.87H49.3367V214.005H67.1564V213.87Z" fill="#E6E6E6"/>
<path d="M43.6974 213.87H33.3716V214.005H43.6974V213.87Z" fill="#E6E6E6"/>
<path d="M113.278 215.85H102.953V215.984H113.278V215.85Z" fill="#E6E6E6"/>
<path d="M167.111 218.854H143.874V218.988H167.111V218.854Z" fill="#E6E6E6"/>
<path d="M139.084 218.854H135.677V218.988H139.084V218.854Z" fill="#E6E6E6"/>
<path d="M243.899 215.85H193.501V215.984H243.899V215.85Z" fill="#E6E6E6"/>
<path d="M127.514 181.736H23.6263C21.9332 181.736 20.5554 180.359 20.5554 178.666V32.6351C20.5554 30.942 21.9332 29.5642 23.6263 29.5642H127.514C129.206 29.5642 130.584 30.942 130.584 32.6351V178.666C130.584 180.359 129.206 181.736 127.514 181.736ZM23.6263 29.6992C22.0069 29.6992 20.6899 31.0162 20.6899 32.6356V178.666C20.6899 180.285 22.0069 181.602 23.6263 181.602H127.514C129.132 181.602 130.449 180.285 130.449 178.666V32.6351C130.449 31.0162 129.132 29.6987 127.514 29.6987L23.6263 29.6992Z" fill="#E6E6E6"/>
<path d="M243.881 181.736H139.994C138.302 181.736 136.924 180.359 136.924 178.666V32.6351C136.924 30.942 138.302 29.5642 139.994 29.5642H243.881C245.574 29.5642 246.952 30.942 246.952 32.6351V178.666C246.952 180.359 245.574 181.736 243.881 181.736ZM139.994 29.6992C138.375 29.6992 137.058 31.0162 137.058 32.6356V178.666C137.058 180.285 138.375 181.602 139.994 181.602H243.881C245.5 181.602 246.817 180.285 246.817 178.666V32.6351C246.817 31.0162 245.5 29.6987 243.881 29.6987L139.994 29.6992Z" fill="#E6E6E6"/>
<path d="M143.861 159.774H132.031V206.706H143.861V159.774Z" fill="#E0E0E0"/>
<path d="M141.614 206.706H143.861V200.315H139.258L141.614 206.706Z" fill="#FAFAFA"/>
<path d="M92.0217 159.774H80.1916V206.706H92.0217V159.774Z" fill="#E0E0E0"/>
<path d="M143.861 159.774H90.0607V202.784H143.861V159.774Z" fill="#FAFAFA"/>
<path d="M141.91 161.888V173.267H92.0115V161.888H141.91ZM142.118 161.68H91.8033V173.475H142.118V161.68Z" fill="#E0E0E0"/>
<path d="M92.3074 206.706H90.0607V200.315H94.6633L92.3074 206.706Z" fill="#FAFAFA"/>
<path d="M115.771 167.577C115.771 168.234 116.303 168.767 116.961 168.767C117.618 168.767 118.151 168.235 118.151 167.577C118.151 166.92 117.618 166.387 116.961 166.387C116.304 166.388 115.771 166.92 115.771 167.577Z" fill="#E6E6E6"/>
<path d="M141.91 175.589V186.968H92.0115V175.589H141.91ZM142.118 175.382H91.8033V187.177H142.118V175.382Z" fill="#E0E0E0"/>
<path d="M115.771 181.279C115.771 181.935 116.303 182.469 116.961 182.469C117.618 182.469 118.151 181.936 118.151 181.279C118.151 180.621 117.618 180.089 116.961 180.089C116.304 180.089 115.771 180.622 115.771 181.279Z" fill="#E6E6E6"/>
<path d="M141.91 189.29V200.67H92.0115V189.29H141.91ZM142.118 189.083H91.8033V200.878H142.118V189.083Z" fill="#E0E0E0"/>
<path d="M115.771 194.98C115.771 195.637 116.303 196.17 116.961 196.17C117.618 196.17 118.151 195.638 118.151 194.98C118.151 194.323 117.618 193.79 116.961 193.79C116.304 193.79 115.771 194.323 115.771 194.98Z" fill="#E6E6E6"/>
<path d="M84.7942 132.518H72.9641V206.706H84.7942V132.518Z" fill="#E0E0E0"/>
<path d="M82.5475 206.706H84.7942V200.315H80.1916L82.5475 206.706Z" fill="#FAFAFA"/>
<path d="M40.5797 132.518H28.7496V206.706H40.5797V132.518Z" fill="#E0E0E0"/>
<path d="M84.7942 132.518H38.6193V202.784H84.7942V132.518Z" fill="#FAFAFA"/>
<path d="M82.8063 134.508V150.416H40.6072V134.508H82.8063ZM83.051 134.263H40.3624V150.662H83.051V134.263Z" fill="#E0E0E0"/>
<path d="M82.8062 152.35V194.548H62.706V152.35H82.8062ZM83.051 152.105H62.4607V194.794H83.051V152.105Z" fill="#E0E0E0"/>
<path d="M60.7074 152.35V194.548H40.6072V152.35H60.7074ZM60.9527 152.105H40.3624V194.794H60.9527V152.105Z" fill="#E0E0E0"/>
<path d="M40.866 206.706H38.6193V200.315H43.2219L40.866 206.706Z" fill="#FAFAFA"/>
<path d="M60.5169 142.462C60.5169 143.119 61.0495 143.652 61.707 143.652C62.3639 143.652 62.897 143.119 62.897 142.462C62.897 141.805 62.3644 141.272 61.707 141.272C61.0495 141.272 60.5169 141.805 60.5169 142.462Z" fill="#E6E6E6"/>
<path d="M64.7768 172.443C64.7768 173.1 65.3094 173.633 65.9668 173.633C66.6243 173.633 67.1569 173.1 67.1569 172.443C67.1569 171.786 66.6243 171.253 65.9668 171.253C65.3094 171.253 64.7768 171.786 64.7768 172.443Z" fill="#E6E6E6"/>
<path d="M56.2565 172.443C56.2565 173.1 56.7891 173.633 57.4465 173.633C58.1034 173.633 58.6366 173.1 58.6366 172.443C58.6366 171.786 58.104 171.253 57.4465 171.253C56.7896 171.253 56.2565 171.786 56.2565 172.443Z" fill="#E6E6E6"/>
<path d="M54.9164 111.834H49.9259C49.9259 111.834 50.792 116.447 50.792 119.162C50.792 121.876 46.9959 132.518 52.4211 132.518C57.8458 132.518 54.0502 121.876 54.0502 119.162C54.0496 116.446 54.9164 111.834 54.9164 111.834Z" fill="#E0E0E0"/>
<path d="M35.94 122.744V125.986C35.94 129.578 38.8791 132.517 42.4719 132.517H45.7144C49.3066 132.517 52.2457 129.578 52.2457 125.986V122.744H35.94Z" fill="#F5F5F5"/>
<path d="M105.269 152.935C105.269 156.696 109.482 159.774 114.631 159.774H119.279C124.429 159.774 128.642 156.696 128.642 152.935H105.269Z" fill="#E0E0E0"/>
<path d="M228.438 147.428C225.619 149.729 221.728 153.943 218.163 159.871C215.788 163.819 214.357 167.956 213.729 173.421C213.742 167.234 213.761 160.587 213.783 154.314C214.499 152.699 216.135 148.979 217.308 146.04C221.223 136.231 222.681 133.819 226.202 125.359C230.898 114.075 235.711 100.686 234.333 101.756C231.525 103.936 220.765 124.085 219.601 126.97C215.601 136.89 214.487 144.122 213.794 151.1C213.816 145.208 213.839 139.798 213.861 135.623C213.934 122.008 214.165 117.613 214.278 116.258C214.714 115.569 215.228 114.767 215.527 114.334C218.055 110.68 219.029 107.566 221.411 102.115C224.786 94.391 227.692 80.6774 226.843 81.3693C223.305 84.2492 220.514 90.441 216.847 98.3308C213.181 106.221 214.229 110.758 213.502 117.496C213.349 118.818 213.232 123.808 213.148 130.724C212.196 123.356 210.412 118.501 207.157 114.089C203.154 108.662 199.281 104.996 196.439 103.081C193.597 101.167 201.346 114.498 205.052 120.316C208.352 125.498 211.392 130.07 213.106 134.573C213.015 143.946 212.973 155.816 212.973 166.864C212.123 161.836 210.735 156.422 208.883 152.229C206.658 147.192 203.234 139.466 200.509 136.845C199.855 136.216 203.359 151.242 205.607 155.238C207.856 159.233 209.506 162.999 210.922 165.264C211.252 165.792 212.348 167.83 212.973 169.002C212.979 182.49 213.048 194.391 213.165 198.442H213.748C213.708 197.397 213.702 190.536 213.714 181.455C215.117 176.524 218.326 170.898 220.974 165.765C223.865 160.161 231.258 145.127 228.438 147.428Z" fill="#E0E0E0"/>
<path d="M221.893 206.706H205.03L203.757 190.177H223.166L221.893 206.706Z" fill="#F0F0F0"/>
<path d="M224.422 192.103H202.5L201.873 186.526H225.05L224.422 192.103Z" fill="#F5F5F5"/>
<path d="M66.8519 40.6174H36.6959V73.7307H66.8519V40.6174Z" fill="#E0E0E0"/>
<path d="M70.1181 40.6174H38.9689V73.7307H70.1181V40.6174Z" fill="#F5F5F5"/>
<path d="M67.5081 71.1211V43.2268L41.5781 43.2268V71.1211H67.5081Z" fill="white"/>
<path d="M61.2232 64.3605V49.9884H47.8636V64.3605H61.2232Z" fill="#F5F5F5"/>
<path d="M220.607 44.4775H192.594V75.2388H220.607V44.4775Z" fill="#E0E0E0"/>
<path d="M223.642 44.4775H194.705V75.2388H223.642V44.4775Z" fill="#F5F5F5"/>
<path d="M221.217 72.8148V46.902L197.13 46.902V72.8148H221.217Z" fill="white"/>
<path d="M209.173 67.3732C213.324 67.3732 216.688 64.0087 216.688 59.8584C216.688 55.7081 213.324 52.3436 209.173 52.3436C205.023 52.3436 201.659 55.7081 201.659 59.8584C201.659 64.0087 205.023 67.3732 209.173 67.3732Z" fill="#F5F5F5"/>
<path d="M98.1791 60.362H75.809V84.926H98.1791V60.362Z" fill="#E0E0E0"/>
<path d="M100.603 60.362H77.4957V84.926H100.603V60.362Z" fill="#F5F5F5"/>
<path d="M98.6668 82.9905V62.298H79.4317V82.9905H98.6668Z" fill="white"/>
<path d="M89.0492 67.413L83.7886 76.5251H94.3098L89.0492 67.413Z" fill="#F5F5F5"/>
<path d="M134.5 230.028C192.11 230.028 238.812 227.3 238.812 223.936C238.812 220.572 192.11 217.844 134.5 217.844C76.8899 217.844 30.1877 220.572 30.1877 223.936C30.1877 227.3 76.8899 230.028 134.5 230.028Z" fill="#F5F5F5"/>
<path d="M187.894 87.9264L182.558 85.7626C182.558 85.7626 175.515 98.6063 173.499 99.2546C170.754 100.137 165.077 102.59 161.704 103.049C161.249 103.581 160.499 105.257 160.571 105.868C165.097 107.377 175.039 105.373 177.167 103.793C182.019 100.189 187.894 87.9264 187.894 87.9264Z" fill="#E58A7B"/>
<path d="M189.537 85.0121C190.53 88.6915 185.14 96.082 185.14 96.082L178.059 92.1099C178.059 92.1099 179.379 89.0718 180.995 85.9778C183.605 80.9814 188.404 80.813 189.537 85.0121Z" fill="#2F80ED"/>
<path opacity="0.2" d="M189.537 85.0121C190.53 88.6915 185.14 96.082 185.14 96.082L178.059 92.1099C178.059 92.1099 179.379 89.0718 180.995 85.9778C183.605 80.9814 188.404 80.813 189.537 85.0121Z" fill="black"/>
<path opacity="0.2" d="M180.882 93.6916L183.663 95.2508L184.149 86.7148C182.535 87.9587 181.39 91.7016 180.882 93.6916Z" fill="black"/>
<path d="M184.89 82.2403C184.89 82.2403 179.392 94.4723 182.598 117.252C189.126 117.252 201.087 117.252 204.263 117.252C204.607 113.926 203.469 97.7019 207.595 82.0316C207.595 82.0316 203.925 81.2864 200.396 81.1159C197.636 80.9825 193.633 80.8942 191.186 81.1164C187.961 81.4091 184.89 82.2403 184.89 82.2403Z" fill="#2F80ED"/>
<path opacity="0.2" d="M184.89 82.2403C184.89 82.2403 179.392 94.4723 182.598 117.252C189.126 117.252 201.087 117.252 204.263 117.252C204.607 113.926 203.469 97.7019 207.595 82.0316C207.595 82.0316 203.925 81.2864 200.396 81.1159C197.636 80.9825 193.633 80.8942 191.186 81.1164C187.961 81.4091 184.89 82.2403 184.89 82.2403Z" fill="black"/>
<path d="M179.866 224.422C179.832 225 188.046 225.468 198.213 225.468C208.379 225.468 216.648 225 216.682 224.422C216.716 223.845 208.502 223.377 198.335 223.377C188.169 223.376 179.9 223.845 179.866 224.422Z" fill="#E8ECF1"/>
<path d="M194.832 209.905L190.977 211.39L194.283 219.971L198.138 218.486L194.832 209.905Z" fill="#E58A7B"/>
<path d="M211.461 220.286H207.411L205.925 210.906H209.975L211.461 220.286Z" fill="#E58A7B"/>
<path d="M207.15 219.817H211.701C211.867 219.817 212.004 219.932 212.03 220.094L212.619 223.694C212.681 224.067 212.366 224.421 211.984 224.414C210.397 224.387 209.63 224.294 207.629 224.294C206.398 224.294 203.854 224.422 202.153 224.422C200.491 224.422 200.33 222.741 201.035 222.588C204.196 221.906 205.427 220.964 206.478 220.066C206.668 219.904 206.908 219.817 207.15 219.817Z" fill="#263238"/>
<path d="M193.665 218.399L197.98 217.144C198.142 217.098 198.308 217.167 198.379 217.312L199.978 220.537C200.144 220.872 199.948 221.291 199.574 221.393C198.011 221.82 196.96 222.087 195.003 222.656C193.651 223.048 192.276 223.689 190.94 224.115C190.016 224.409 187.844 224.421 186.719 224.421C185.056 224.421 184.685 222.668 185.398 222.588C187.202 222.386 187.444 222.479 188.44 221.98C190.086 221.154 191.36 220.47 192.785 218.977C193.033 218.718 193.324 218.498 193.665 218.399Z" fill="#263238"/>
<path d="M162.386 103.01L157.929 101.135L156.094 106.073C156.094 106.073 158.666 106.539 161.603 106.073L162.386 103.01Z" fill="#E58A7B"/>
<path d="M154.616 101.014L154.499 104.299L156.094 106.073L157.929 101.135L154.616 101.014Z" fill="#E58A7B"/>
<path d="M194.846 209.895L190.99 211.384L192.697 215.806L196.553 214.317L194.846 209.895Z" fill="#CF6F64"/>
<path d="M209.977 210.908H205.924L206.693 215.743H210.745L209.977 210.908Z" fill="#CF6F64"/>
<path opacity="0.2" d="M181.91 111.09C181.988 112.063 182.082 113.058 182.197 114.081L198.308 108.851C200.824 108.099 203.013 106.518 204.506 104.356C204.566 102.919 204.649 101.41 204.771 99.834C204.826 99.0657 204.892 98.2802 204.965 97.4845C205.042 96.6555 205.13 95.8092 205.23 94.9581L181.91 111.09Z" fill="black"/>
<path d="M187.17 93.4442L186.621 93.3791C186.941 90.6944 188.945 88.5726 191.062 88.6231L191.046 89.1762C189.218 89.1229 187.457 91.0366 187.17 93.4442Z" fill="white"/>
<path d="M190.037 98.412C190.007 98.412 189.976 98.4115 189.946 98.411L189.962 97.8579C191.812 97.9257 193.55 95.997 193.838 93.5894L194.386 93.655C194.071 96.3015 192.131 98.412 190.037 98.412Z" fill="white"/>
<path d="M200.092 70.7454C199.337 73.7087 198.439 79.1382 200.396 81.1153C200.396 81.1153 199.029 84.1211 193.523 84.1211C188.491 84.1211 191.186 81.1153 191.186 81.1153C194.537 80.3261 194.596 77.8744 194.155 75.5718L200.092 70.7454Z" fill="#E58A7B"/>
<path d="M197.671 72.715L194.158 75.5702C194.264 76.1152 194.339 76.6677 194.346 77.2046C195.373 78.2274 197.435 75.6363 197.646 74.3145C197.751 73.656 197.761 73.0222 197.671 72.715Z" fill="#CF6F64"/>
<path d="M188.119 70.7088C188.634 71.6309 189.543 72.205 190.401 72.396C191.693 72.6838 192.343 71.4954 191.986 70.2994C191.666 69.2228 190.607 67.7762 189.309 68.0242C188.03 68.269 187.53 69.6543 188.119 70.7088Z" fill="#CF6F64"/>
<path d="M190.251 61.2244C188.239 62.1465 187.53 70.1396 190.059 71.3216C192.589 72.503 194.062 59.4786 190.251 61.2244Z" fill="#263238"/>
<path d="M200.706 66.2859C200.224 70.2983 200.145 72.6596 197.998 74.7191C194.768 77.8169 189.923 75.9796 189.2 71.9742C188.55 68.3691 189.446 62.4128 193.468 60.8161C197.43 59.243 201.187 62.2735 200.706 66.2859Z" fill="#E58A7B"/>
<path d="M194.096 63.3038C197.073 62.5425 199.263 62.0239 198.482 64.5083C197.44 67.8181 196.191 71.0246 197.867 71.1742C198.886 71.2651 203.405 69.3471 202.831 67.4082C202.332 65.7188 204.432 65.2632 204.82 64.4018C206.215 61.2997 202.229 61.7027 202.938 59.8256C203.629 57.998 199.727 54.9094 197.564 56.4184C194.065 58.8615 188.05 58.8265 191.212 54.8195C193.477 51.9498 189.436 52.5389 189.436 52.5389C189.436 52.5389 191.877 53.9867 187.769 56.2248C183.414 58.5963 187.4 65.0168 194.096 63.3038Z" fill="#263238"/>
<path d="M202.259 70.7088C201.635 71.6309 200.66 72.205 199.779 72.396C198.453 72.6838 197.944 71.4954 198.44 70.2994C198.887 69.2228 200.114 67.7762 201.384 68.0242C202.633 68.269 202.971 69.6543 202.259 70.7088Z" fill="#E58A7B"/>
<path d="M182.598 117.252C182.598 117.252 178.961 149.799 178.677 162.152C178.383 175 191.002 215.088 191.002 215.088L197.464 212.374C197.464 212.374 189.94 175.751 190.985 163.132C192.125 149.376 196.839 117.251 196.839 117.251H182.598V117.252Z" fill="#2F80ED"/>
<path opacity="0.2" d="M191.635 126.188C188.738 132.203 190.69 144.095 192.26 151.145C192.857 146.169 193.564 140.768 194.239 135.77C194.173 128.085 193.576 122.153 191.635 126.188Z" fill="black"/>
<path d="M197.172 210.264C197.202 210.252 197.938 212.324 197.938 212.324L190.49 215.451L189.316 213.27L197.172 210.264Z" fill="#2F80ED"/>
<path d="M190.283 117.252C190.283 117.252 193.065 148.207 194.909 159.804C196.928 172.504 204.859 214.807 204.859 214.807H212.278C212.278 214.807 207.833 173.529 206.993 160.956C206.081 147.309 204.262 117.252 204.262 117.252H190.283Z" fill="#2F80ED"/>
<path d="M212.392 212.874C212.423 212.874 212.64 214.948 212.64 214.948H204.485L203.903 212.568L212.392 212.874Z" fill="#2F80ED"/>
<path opacity="0.2" d="M209.549 210.424C209.514 210.424 209.485 210.397 209.481 210.362C209.441 209.987 205.432 172.72 204.678 161.423C203.859 149.164 202.214 121.981 202.197 121.708C202.195 121.67 202.224 121.637 202.262 121.635C202.263 121.635 202.265 121.635 202.266 121.635C202.302 121.635 202.333 121.663 202.335 121.7C202.351 121.973 203.997 149.155 204.816 161.413C205.57 172.708 209.578 209.972 209.618 210.347C209.623 210.385 209.595 210.419 209.557 210.423C209.554 210.424 209.552 210.424 209.549 210.424Z" fill="black"/>
<path d="M194.554 67.4076C194.534 67.7342 194.346 67.9994 194.132 67.9994C193.919 67.9994 193.761 67.7347 193.781 67.4076C193.799 67.0811 193.988 66.8158 194.202 66.8158C194.415 66.8158 194.573 67.0811 194.554 67.4076Z" fill="#263238"/>
<path d="M190.861 67.4076C190.842 67.7342 190.653 67.9994 190.44 67.9994C190.226 67.9994 190.068 67.7347 190.088 67.4076C190.107 67.0811 190.295 66.8158 190.509 66.8158C190.723 66.8158 190.88 67.0811 190.861 67.4076Z" fill="#263238"/>
<path d="M192.025 67.5701C192.025 67.5701 191.172 69.4553 190.3 70.3645C190.847 70.9041 191.844 70.6572 191.844 70.6572L192.025 67.5701Z" fill="#DF5753"/>
<path d="M192.119 72.028C192.067 72.028 192.026 71.9849 192.029 71.9322C192.032 71.8795 192.078 71.8364 192.131 71.8364C193.565 71.8364 194.293 70.8347 194.3 70.8245C194.333 70.7804 194.393 70.7674 194.435 70.7965C194.477 70.8255 194.486 70.8847 194.455 70.9294C194.422 70.9735 193.656 72.028 192.119 72.028Z" fill="#263238"/>
<path d="M195.211 66.414C195.155 66.4355 195.093 66.4322 195.041 66.3994C194.335 65.955 193.677 66.2531 193.671 66.2569C193.58 66.3031 193.46 66.2628 193.42 66.167C193.38 66.0713 193.427 65.9567 193.525 65.9109C193.56 65.8942 194.384 65.5203 195.26 66.0718C195.347 66.1272 195.369 66.245 195.309 66.3354C195.284 66.372 195.249 66.3989 195.211 66.414Z" fill="#263238"/>
<path d="M189.433 65.3406C189.407 65.3331 189.381 65.3197 189.36 65.2992C189.285 65.2293 189.285 65.1082 189.36 65.0286C190.111 64.2351 190.981 64.3561 191.018 64.3615C191.12 64.3728 191.189 64.4745 191.166 64.5794C191.144 64.6837 191.043 64.7558 190.94 64.7408C190.911 64.7365 190.231 64.6499 189.632 65.2831C189.578 65.3401 189.5 65.36 189.433 65.3406Z" fill="#263238"/>
<path d="M209.675 87.3265L204.078 85.8368C204.078 85.8368 198.59 99.3449 196.652 100.227C194.014 101.427 187.335 105.578 184.497 107.58C184.339 108.249 184.463 110.033 184.82 110.519C189.647 109.642 198.932 106.073 200.868 104.258C205.283 100.121 209.675 87.3265 209.675 87.3265Z" fill="#E58A7B"/>
<path d="M205.769 220.525C205.461 220.525 205.176 220.472 205.002 220.319C204.863 220.196 204.807 220.025 204.833 219.811C204.853 219.651 204.941 219.576 205.014 219.54C205.47 219.311 206.734 220.112 206.877 220.205C206.908 220.226 206.923 220.264 206.915 220.302C206.906 220.34 206.876 220.371 206.838 220.379C206.552 220.447 206.144 220.525 205.769 220.525ZM205.217 219.686C205.167 219.686 205.124 219.694 205.091 219.711C205.065 219.724 205.033 219.749 205.024 219.823C205.005 219.976 205.041 220.09 205.134 220.172C205.344 220.358 205.872 220.383 206.568 220.244C206.126 219.98 205.527 219.686 205.217 219.686Z" fill="#2F80ED"/>
<path d="M206.815 220.382C206.8 220.382 206.784 220.378 206.77 220.371C206.364 220.143 205.606 219.255 205.718 218.804C205.738 218.722 205.807 218.58 206.038 218.552C206.19 218.533 206.324 218.575 206.44 218.675C206.888 219.06 206.916 220.229 206.917 220.278C206.918 220.313 206.899 220.347 206.869 220.366C206.852 220.377 206.834 220.382 206.815 220.382ZM206.094 218.74C206.08 218.74 206.066 218.742 206.051 218.743C205.925 218.758 205.911 218.816 205.905 218.84C205.838 219.107 206.315 219.778 206.714 220.094C206.686 219.753 206.597 219.071 206.31 218.825C206.244 218.767 206.173 218.74 206.094 218.74Z" fill="#2F80ED"/>
<path d="M191.483 219.855C191.087 219.951 190.71 219.98 190.469 219.849C190.315 219.766 190.227 219.627 190.207 219.438C190.194 219.325 190.233 219.227 190.316 219.153C190.75 218.767 192.504 219.182 192.704 219.231C192.742 219.24 192.77 219.274 192.771 219.315C192.773 219.356 192.749 219.394 192.711 219.411C192.386 219.559 191.923 219.749 191.483 219.855ZM190.609 219.216C190.535 219.234 190.477 219.259 190.439 219.293C190.405 219.323 190.392 219.358 190.398 219.407C190.412 219.535 190.468 219.625 190.568 219.679C190.853 219.835 191.517 219.712 192.371 219.354C191.771 219.229 190.986 219.124 190.609 219.216Z" fill="#2F80ED"/>
<path d="M192.693 219.417C192.68 219.42 192.666 219.42 192.653 219.418C192.132 219.322 191.018 218.703 191.008 218.24C191.005 218.132 191.056 217.983 191.311 217.895C191.496 217.825 191.687 217.839 191.865 217.927C192.45 218.215 192.756 219.248 192.769 219.292C192.778 219.324 192.769 219.36 192.746 219.386C192.731 219.402 192.713 219.412 192.693 219.417ZM191.421 218.058C191.403 218.062 191.384 218.069 191.364 218.075C191.198 218.133 191.199 218.202 191.199 218.224C191.206 218.502 191.979 219.013 192.525 219.185C192.416 218.888 192.155 218.289 191.772 218.1C191.657 218.043 191.541 218.029 191.421 218.058Z" fill="#2F80ED"/>
<path d="M184.953 107.262L179.342 109.845L178.691 111.427L180.765 112.822C180.765 112.822 184.634 112.401 185.736 109.915L184.953 107.262Z" fill="#E58A7B"/>
<path d="M185.191 110.611C184.841 108.526 184.155 107.576 184.149 107.567L185.033 106.903C185.068 106.949 185.881 108.047 186.282 110.427L185.191 110.611Z" fill="#263238"/>
<path d="M186.147 108.026C186.329 108.476 186.037 109.018 185.494 109.238C184.951 109.457 184.364 109.27 184.182 108.82C184 108.369 184.292 107.827 184.835 107.608C185.378 107.389 185.965 107.575 186.147 108.026Z" fill="#263238"/>
<path d="M175.552 111.93L176.297 112.685L181.331 110.532L179.342 109.845L175.552 111.93Z" fill="#E58A7B"/>
<path opacity="0.2" d="M197.172 210.264C197.202 210.252 197.938 212.324 197.938 212.324L190.49 215.451L189.316 213.27L197.172 210.264Z" fill="black"/>
<path opacity="0.2" d="M212.392 212.874C212.423 212.874 212.64 214.948 212.64 214.948H204.485L203.903 212.568L212.392 212.874Z" fill="black"/>
<path d="M211.133 85.7782C212.613 90.5486 206.851 97.0654 206.851 97.0654L198.863 93.8051C198.863 93.8051 199.988 90.3393 202.13 85.6959C204.565 80.4186 209.639 80.9636 211.133 85.7782Z" fill="#2F80ED"/>
<path opacity="0.2" d="M211.133 85.7782C212.613 90.5486 206.851 97.0654 206.851 97.0654L198.863 93.8051C198.863 93.8051 199.988 90.3393 202.13 85.6959C204.565 80.4186 209.639 80.9636 211.133 85.7782Z" fill="black"/>
<path d="M131.742 37.9667H128.306V38.5197H131.742V37.9667Z" fill="#2F80ED"/>
<path d="M176.25 59.8958L175.834 69.1272L176.386 69.1521L176.802 59.9207L176.25 59.8958Z" fill="#2F80ED"/>
<path d="M175.18 40.4544H111.696L105.786 172.651H169.27L175.18 40.4544Z" fill="#2F80ED"/>
<path opacity="0.56" d="M173.284 42.2685H109.801L103.892 174.465H167.375L173.284 42.2685Z" fill="#FAFAFA"/>
<path opacity="0.07" d="M171.389 44.0827H107.906L101.996 176.279H165.48L171.389 44.0827Z" fill="#2F80ED"/>
<path d="M164.163 101.739H109.977L109.525 111.857H163.711L164.163 101.739Z" fill="white"/>
<path d="M139.78 94.3598H110.307L110.105 98.8866H139.578L139.78 94.3598Z" fill="#2F80ED"/>
<path d="M162.943 129.039H108.757L108.304 139.156H162.491L162.943 129.039Z" fill="white"/>
<path opacity="0.47" d="M153.006 152.811H116.568L116.026 164.937H152.464L153.006 152.811Z" fill="#2F80ED"/>
<path d="M150.569 166.816H114.131C114.114 166.816 114.097 166.808 114.085 166.796C114.073 166.783 114.067 166.766 114.068 166.749L114.61 154.623C114.611 154.588 114.64 154.561 114.674 154.561H151.111C151.129 154.561 151.145 154.569 151.158 154.581C151.169 154.594 151.176 154.611 151.175 154.628L150.632 166.754C150.631 166.789 150.603 166.816 150.569 166.816ZM114.198 166.687H150.508L151.043 154.69H114.734L114.198 166.687Z" fill="white"/>
<path d="M133.412 121.66H109.086L108.884 126.187H133.209L133.412 121.66Z" fill="#2F80ED"/>
<path d="M152.311 69.0679C152.175 72.0974 151.077 74.895 149.317 77.1675C146.659 80.6118 142.495 82.851 137.912 82.851C133.329 82.851 129.371 80.6118 127.021 77.1675C125.464 74.895 124.616 72.0979 124.751 69.0679C125.092 61.4552 131.537 55.2854 139.145 55.2854C146.757 55.2849 152.651 61.4552 152.311 69.0679Z" fill="white"/>
<path d="M153.607 58.1702C153.571 58.975 153.279 59.7186 152.811 60.3222C152.105 61.2373 150.999 61.8324 149.781 61.8324C148.563 61.8324 147.512 61.2373 146.887 60.3222C146.473 59.7186 146.248 58.975 146.284 58.1702C146.374 56.1473 148.087 54.508 150.108 54.508C152.131 54.508 153.697 56.1473 153.607 58.1702Z" fill="#2F80ED"/>
<path d="M115.813 106.798C115.773 107.693 115.014 108.419 114.119 108.419C113.224 108.419 112.53 107.693 112.57 106.798C112.61 105.903 113.368 105.177 114.264 105.177C115.159 105.176 115.853 105.903 115.813 106.798Z" fill="#263238"/>
<path d="M123.069 106.798C123.029 107.693 122.27 108.419 121.375 108.419C120.48 108.419 119.786 107.693 119.826 106.798C119.866 105.903 120.624 105.177 121.52 105.177C122.415 105.177 123.109 105.903 123.069 106.798Z" fill="#263238"/>
<path d="M130.325 106.798C130.285 107.693 129.527 108.419 128.631 108.419C127.736 108.419 127.043 107.693 127.083 106.798C127.122 105.903 127.881 105.177 128.776 105.177C129.671 105.176 130.365 105.903 130.325 106.798Z" fill="#263238"/>
<path d="M114.592 134.098C114.553 134.993 113.794 135.719 112.899 135.719C112.004 135.719 111.31 134.993 111.35 134.098C111.39 133.202 112.148 132.476 113.043 132.476C113.939 132.477 114.632 133.202 114.592 134.098Z" fill="#263238"/>
<path d="M121.848 134.098C121.809 134.993 121.05 135.719 120.155 135.719C119.26 135.719 118.566 134.993 118.606 134.098C118.646 133.202 119.404 132.476 120.299 132.476C121.195 132.477 121.888 133.202 121.848 134.098Z" fill="#263238"/>
<path d="M129.104 134.098C129.065 134.993 128.306 135.719 127.411 135.719C126.516 135.719 125.822 134.993 125.862 134.098C125.902 133.202 126.66 132.476 127.555 132.476C128.451 132.476 129.145 133.202 129.104 134.098Z" fill="#263238"/>
<path d="M136.361 134.098C136.321 134.993 135.563 135.719 134.667 135.719C133.772 135.719 133.079 134.993 133.118 134.098C133.158 133.202 133.917 132.476 134.812 132.476C135.707 132.477 136.401 133.202 136.361 134.098Z" fill="#263238"/>
<path d="M143.617 134.098C143.577 134.993 142.819 135.719 141.923 135.719C141.028 135.719 140.335 134.993 140.374 134.098C140.414 133.202 141.173 132.476 142.068 132.476C142.963 132.477 143.657 133.202 143.617 134.098Z" fill="#263238"/>
<path d="M144.311 64.461C144.173 67.5395 141.566 70.0352 138.487 70.0352C135.409 70.0352 133.024 67.5395 133.162 64.461C133.3 61.3821 135.907 58.8868 138.986 58.8868C142.064 58.8868 144.449 61.3826 144.311 64.461Z" fill="#2F80ED"/>
<path d="M149.317 77.167C146.659 80.6112 142.495 82.8504 137.912 82.8504C133.329 82.8504 129.371 80.6112 127.021 77.167C129.636 74.5631 133.775 72.8716 138.359 72.8716C142.947 72.8716 146.935 74.5631 149.317 77.167Z" fill="#2F80ED"/>
<path opacity="0.1" d="M144.311 64.461C144.173 67.5395 141.566 70.0352 138.487 70.0352C135.409 70.0352 133.024 67.5395 133.162 64.461C133.3 61.3821 135.907 58.8868 138.986 58.8868C142.064 58.8868 144.449 61.3826 144.311 64.461Z" fill="white"/>
<path opacity="0.1" d="M149.317 77.167C146.659 80.6112 142.495 82.8504 137.912 82.8504C133.329 82.8504 129.371 80.6112 127.021 77.167C129.636 74.5631 133.775 72.8716 138.359 72.8716C142.947 72.8716 146.935 74.5631 149.317 77.167Z" fill="white"/>
<path d="M70.1589 114.294C69.6495 115.412 69.1131 116.641 68.6423 117.84C68.1678 119.051 67.6944 120.262 67.2817 121.491C66.4801 123.949 65.7285 126.429 65.3584 128.916L65.2357 129.708C65.226 129.803 65.233 129.939 65.275 130.109C65.3535 130.45 65.5666 130.908 65.8662 131.356C66.472 132.264 67.3307 133.183 68.2566 134.036C69.1803 134.903 70.1837 135.732 71.2263 136.519C72.2588 137.313 73.3477 138.091 74.4129 138.819L73.4101 140.707C70.8503 139.588 68.4664 138.25 66.1573 136.571C65.0221 135.706 63.9009 134.774 62.9078 133.515C62.4182 132.881 61.9367 132.163 61.6214 131.217C61.4686 130.744 61.3621 130.21 61.3616 129.632C61.3653 129.499 61.3723 129.313 61.3815 129.223L61.4078 128.956L61.4616 128.421C61.7543 125.569 62.3859 122.828 63.2182 120.169C63.6378 118.842 64.0855 117.527 64.5966 116.238C65.1184 114.939 65.6333 113.693 66.2859 112.387L70.1589 114.294Z" fill="#E58A7B"/>
<path d="M73.6598 138.498L77.4613 136.57L76.4794 140.748C76.4794 140.748 73.8691 141.477 72.6548 140.21L73.6598 138.498Z" fill="#E58A7B"/>
<path d="M80.9426 137.256L79.9312 140.71L76.4788 140.748L77.4612 136.57L80.9426 137.256Z" fill="#E58A7B"/>
<path d="M86.3124 94.1505C86.3124 94.1505 86.6422 95.3632 87.1651 96.2773C86.7159 96.6969 86.3124 96.5511 86.3124 96.5511V94.1505Z" fill="#DF5753"/>
<path d="M86.2 94.1823C86.4225 94.1823 86.6029 93.9062 86.6029 93.5657C86.6029 93.2252 86.4225 92.9492 86.2 92.9492C85.9774 92.9492 85.797 93.2252 85.797 93.5657C85.797 93.9062 85.9774 94.1823 86.2 94.1823Z" fill="#263238"/>
<path d="M86.1015 92.968L86.9193 92.7324C86.9193 92.7324 86.4996 93.3715 86.1015 92.968Z" fill="#263238"/>
<path d="M75.8026 98.0968C76.2938 100.601 76.7839 105.19 75.0311 106.861C75.0311 106.861 75.716 109.402 80.3697 109.402C85.4872 109.402 82.8155 106.861 82.8155 106.861C80.0227 106.194 80.0948 104.122 80.5811 102.176L75.8026 98.0968Z" fill="#E58A7B"/>
<path d="M74.4447 92.3972C74.7013 96.5785 74.7207 98.3534 76.8328 100.499C80.0092 103.727 85.0885 102.498 86.0864 98.3243C86.9844 94.5675 86.4135 88.3611 82.321 86.6971C78.2881 85.0578 74.1875 88.2159 74.4447 92.3972Z" fill="#E58A7B"/>
<path d="M74.8567 87.666C72.7602 88.4305 69.9631 87.8619 71.0606 94.3335C72.2227 101.186 70.4338 103.44 70.4338 103.44C70.4338 103.44 78.3919 105.135 86.5157 103.339C86.5157 103.339 84.0356 99.0017 84.7317 95.8366C85.6194 91.8 84.9157 90.3081 84.9157 90.3081C84.9157 90.3081 77.805 86.5911 74.8567 87.666Z" fill="#263238"/>
<path d="M83.7343 94.5761C83.7257 95.4046 84.0162 96.2391 84.3928 96.8185C84.9593 97.6906 85.6318 97.3355 85.8002 96.43C85.952 95.6155 85.8395 94.1801 85.1137 93.6233C84.3993 93.0756 83.7445 93.6292 83.7343 94.5761Z" fill="#E58A7B"/>
<path d="M73.0357 88.3982C72.4304 86.7062 75.3055 84.1039 81.3838 85.1864C87.4621 86.2688 87.729 91.3239 87.729 91.3239L86.4991 89.8643L86.5545 91.4014L80.3078 92.6016L73.0357 88.3982Z" fill="#263238"/>
<path d="M73.5511 107.146C73.4671 106.629 73.8147 106.142 74.3312 106.057C76.2239 105.744 80.5257 105.112 82.6912 105.411C84.2998 105.634 84.7253 106.574 84.7931 107.342C84.8437 107.912 84.3724 108.392 83.801 108.366L74.4458 107.943C73.9965 107.923 73.6226 107.59 73.5511 107.146Z" fill="#2F80ED"/>
<path opacity="0.6" d="M73.5511 107.146C73.4671 106.629 73.8147 106.142 74.3312 106.057C76.2239 105.744 80.5257 105.112 82.6912 105.411C84.2998 105.634 84.7253 106.574 84.7931 107.342C84.8437 107.912 84.3724 108.392 83.801 108.366L74.4458 107.943C73.9965 107.923 73.6226 107.59 73.5511 107.146Z" fill="black"/>
<path d="M78.9569 201.138L82.4243 203.545L88.2304 195.676L84.763 193.269L78.9569 201.138Z" fill="#E58A7B"/>
<path d="M70.8627 200.979L74.5308 203.068L79.6692 194.745L76.0016 192.657L70.8627 200.979Z" fill="#E58A7B"/>
<path d="M88.2277 195.678L85.2359 199.734L81.7674 197.326L84.7592 193.27L88.2277 195.678Z" fill="#CF6F64"/>
<path d="M75.9995 192.658L79.6686 194.748L77.0179 199.037L73.3488 196.947L75.9995 192.658Z" fill="#CF6F64"/>
<path d="M81.8825 133.418C81.8825 133.418 95.4294 150.491 92.8879 166.818C90.8349 180.005 78.9467 197.862 78.9467 197.862L73.3568 195.084C73.3568 195.084 79.4303 183.216 83.4185 170.636C85.0912 165.361 84.3783 159.549 81.2514 154.982C74.3893 144.959 63.3952 150.923 70.7906 133.418L81.8825 133.418Z" fill="#2F80ED"/>
<path opacity="0.6" d="M81.8825 133.418C81.8825 133.418 95.4294 150.491 92.8879 166.818C90.8349 180.005 78.9467 197.862 78.9467 197.862L73.3568 195.084C73.3568 195.084 79.4303 183.216 83.4185 170.636C85.0912 165.361 84.3783 159.549 81.2514 154.982C74.3893 144.959 63.3952 150.923 70.7906 133.418L81.8825 133.418Z" fill="black"/>
<path opacity="0.4" d="M88.5274 144.388L86.5594 142.431C86.5594 142.586 90.3743 166.132 91.4465 172.75C92.0932 170.721 92.5909 168.719 92.8895 166.818C94.1333 158.824 91.5181 150.647 88.5274 144.388Z" fill="black"/>
<path d="M87.9329 133.418C87.9329 133.418 104.245 154.873 104.703 167.739C105.088 178.52 86.936 199.344 86.936 199.344L81.6663 195.935C81.6663 195.935 92.2805 181.131 94.9527 169.029C93.9338 157.05 72.0651 133.417 72.0651 133.417H87.9329V133.418Z" fill="#2F80ED"/>
<path opacity="0.6" d="M87.9329 133.418C87.9329 133.418 104.245 154.873 104.703 167.739C105.088 178.52 86.936 199.344 86.936 199.344L81.6663 195.935C81.6663 195.935 92.2805 181.131 94.9527 169.029C93.9338 157.05 72.0651 133.417 72.0651 133.417H87.9329V133.418Z" fill="black"/>
<path d="M67.7519 107.821C66.005 108.233 64.3356 114.574 64.3356 114.574L71.1483 119.122C71.1483 119.122 73.4187 114.11 72.6262 111.914C71.8004 109.628 69.9577 107.3 67.7519 107.821Z" fill="#2F80ED"/>
<path opacity="0.2" d="M69.0851 111.901L68.609 117.425L71.1451 119.123C71.1451 119.123 72.3336 116.497 72.6876 114.208L69.0851 111.901Z" fill="black"/>
<path d="M89.9498 107.943C89.9498 107.943 91.9603 108.651 87.9329 133.418C81.1304 133.418 74.1004 133.418 70.7906 133.418C71.0784 126.441 71.0865 122.138 67.752 107.821C67.752 107.821 71.3436 107.039 75.0311 106.861C77.9158 106.723 80.2793 106.63 82.8154 106.862C86.1586 107.167 89.9498 107.943 89.9498 107.943Z" fill="#2F80ED"/>
<path d="M91.6908 111.875C92.0792 112.949 92.4903 114.11 92.918 115.225C93.3285 116.356 93.7545 117.485 94.1941 118.61L95.5133 121.989L95.8468 122.833L96.0141 123.256L96.0981 123.467C96.1126 123.504 96.1099 123.501 96.1045 123.497C96.0814 123.487 96.0615 123.381 95.7279 123.162C95.5644 123.06 95.29 122.962 95.0253 122.957C94.759 122.947 94.5481 123.012 94.427 123.065C94.1844 123.18 94.1806 123.231 94.186 123.222C94.2016 123.214 94.2517 123.166 94.3065 123.1C94.5416 122.818 94.8257 122.331 95.0748 121.847C95.3293 121.353 95.5698 120.826 95.8092 120.291C96.2853 119.219 96.7184 118.1 97.159 116.979C97.5948 115.856 98.0053 114.715 98.412 113.571L99.6365 110.138L101.709 110.66C101.299 113.116 100.769 115.522 100.137 117.936C99.828 119.145 99.4708 120.344 99.0625 121.555C98.8591 122.161 98.6315 122.766 98.37 123.382C98.0984 124.004 97.8288 124.616 97.3479 125.328C97.2214 125.508 97.0783 125.699 96.8787 125.909C96.6678 126.115 96.4241 126.365 95.8985 126.601C95.637 126.714 95.2733 126.813 94.8537 126.796C94.4357 126.785 94.0117 126.636 93.7185 126.454C93.1224 126.073 92.9163 125.711 92.7399 125.438C92.6581 125.302 92.5882 125.161 92.5397 125.059L92.4375 124.85L92.2331 124.433L91.8264 123.597C91.2948 122.478 90.774 121.352 90.2807 120.214C89.7922 119.074 89.316 117.927 88.8544 116.771C88.4127 115.598 87.9759 114.461 87.5869 113.213L91.6908 111.875Z" fill="#E58A7B"/>
<path d="M89.9498 107.943C92.0104 108.433 94.3254 114.521 94.3254 114.521L88.2019 119.739C88.2019 119.739 84.233 113.101 85.0363 110.909C85.8723 108.627 87.2582 107.301 89.9498 107.943Z" fill="#2F80ED"/>
<path d="M100.593 108.24L102.742 106.442L104.237 108.771L103.136 110.716C103.136 110.716 101.382 112.321 99.8296 111.505C99.3282 110.368 99.6397 109.037 100.593 108.24Z" fill="#E58A7B"/>
<path d="M106.643 106.448L106.483 107.033L103.078 107.605L102.742 106.442L106.643 106.448Z" fill="#E58A7B"/>
<path d="M87.3722 199.627L81.2288 195.653L82.329 193.74L89.2332 197.984L87.3722 199.627Z" fill="#2F80ED"/>
<path d="M76.9249 202.786C76.4364 202.786 75.7935 202.476 75.4039 202.26C75.369 202.241 75.3491 202.202 75.3534 202.162C75.3571 202.123 75.3846 202.089 75.4222 202.077C75.5879 202.024 77.0454 201.578 77.458 201.924C77.5231 201.979 77.5957 202.08 77.5726 202.249C77.5425 202.472 77.4403 202.63 77.2692 202.715C77.1702 202.764 77.0529 202.786 76.9249 202.786ZM75.7149 202.199C76.3831 202.539 76.9211 202.665 77.1799 202.536C77.2902 202.481 77.3537 202.378 77.3752 202.222C77.3865 202.137 77.3569 202.1 77.3294 202.078C77.1126 201.895 76.3045 202.037 75.7149 202.199Z" fill="#263238"/>
<path d="M75.4529 202.272C75.426 202.272 75.4002 202.261 75.3813 202.242C75.3566 202.216 75.3474 202.179 75.3571 202.145C75.3711 202.095 75.7068 200.927 76.2594 200.661C76.4068 200.59 76.5563 200.586 76.7027 200.647C76.9351 200.745 76.9582 200.915 76.9501 201.007C76.9125 201.491 75.9263 202.159 75.4766 202.269C75.469 202.271 75.461 202.272 75.4529 202.272ZM76.4955 200.805C76.446 200.805 76.396 200.817 76.3454 200.841C76.0162 201 75.7396 201.631 75.6073 202.014C76.0807 201.815 76.7269 201.287 76.75 200.992C76.7538 200.944 76.743 200.882 76.6241 200.832C76.5816 200.814 76.5386 200.805 76.4955 200.805Z" fill="#263238"/>
<path d="M84.6102 205.111C84.0044 205.111 83.1597 204.332 82.6976 203.854C82.668 203.823 82.661 203.778 82.6798 203.74C82.6992 203.702 82.7476 203.68 82.7821 203.685C82.9951 203.713 84.8663 203.965 85.1304 204.494C85.181 204.596 85.1767 204.705 85.1181 204.809C85.0191 204.983 84.8754 205.083 84.692 205.106C84.6656 205.109 84.6382 205.111 84.6102 205.111ZM83.0516 203.926C83.7316 204.587 84.3256 204.953 84.6672 204.907C84.7866 204.892 84.877 204.828 84.9443 204.71C84.9701 204.664 84.9722 204.625 84.9513 204.583C84.8076 204.296 83.8086 204.048 83.0516 203.926Z" fill="#263238"/>
<path d="M83.1108 203.91C82.9725 203.91 82.8488 203.901 82.7514 203.883C82.7169 203.876 82.6879 203.852 82.6755 203.819C82.6637 203.786 82.6696 203.748 82.6922 203.721C82.7229 203.684 83.4508 202.806 84.1383 202.746C84.3535 202.729 84.5359 202.786 84.6919 202.92C84.9034 203.101 84.8888 203.262 84.8394 203.366C84.6688 203.724 83.7391 203.91 83.1108 203.91ZM82.972 203.708C83.5729 203.741 84.5338 203.542 84.6591 203.28C84.6699 203.257 84.7016 203.191 84.5623 203.072C84.4461 202.972 84.3116 202.931 84.1561 202.945C83.7047 202.985 83.2006 203.464 82.972 203.708Z" fill="#263238"/>
<path d="M75.6003 201.706L71.037 200.416C70.8708 200.369 70.7034 200.446 70.6346 200.601L69.0943 204.064C68.9345 204.424 69.1562 204.869 69.5414 204.971C71.1398 205.393 71.9328 205.517 73.9395 206.084C75.1742 206.433 76.9415 207.071 78.6465 207.553C80.3137 208.024 80.9184 206.375 80.2519 206.021C77.2622 204.437 77.0265 203.351 76.2088 202.147C76.0614 201.93 75.8435 201.775 75.6003 201.706Z" fill="#2F80ED"/>
<path d="M82.8219 203.226L78.9267 200.521C78.7847 200.423 78.6018 200.442 78.4856 200.566L75.9021 203.34C75.6342 203.628 75.6993 204.121 76.0302 204.342C77.4042 205.262 78.1144 205.636 79.8274 206.825C80.8813 207.557 82.9849 209.18 84.4402 210.19C85.8637 211.178 86.972 209.815 86.4566 209.264C84.1453 206.794 83.6353 205.245 83.2539 203.841C83.1845 203.588 83.029 203.369 82.8219 203.226Z" fill="#2F80ED"/>
<path d="M79.6644 198.219L72.6397 194.727L73.3671 192.827L80.8647 196.502L79.6644 198.219Z" fill="#2F80ED"/>
<path d="M70.534 132.411L69.9395 133.946C69.8792 134.065 70.0202 134.186 70.2187 134.186H88.0174C88.1718 134.186 88.2998 134.11 88.3095 134.014L88.4639 132.479C88.4747 132.373 88.3407 132.283 88.1718 132.283H70.8126C70.6857 132.283 70.5727 132.335 70.534 132.411Z" fill="#2F80ED"/>
<path opacity="0.4" d="M70.534 132.411L69.9395 133.946C69.8792 134.065 70.0202 134.186 70.2187 134.186H88.0174C88.1718 134.186 88.2998 134.11 88.3095 134.014L88.4639 132.479C88.4747 132.373 88.3407 132.283 88.1718 132.283H70.8126C70.6857 132.283 70.5727 132.335 70.534 132.411Z" fill="white"/>
<path d="M73.3332 134.353H72.8683C72.7758 134.353 72.7053 134.305 72.7118 134.247L72.9297 132.253C72.9361 132.195 73.0168 132.147 73.1099 132.147H73.5747C73.6673 132.147 73.7377 132.195 73.7313 132.253L73.5134 134.247C73.5069 134.305 73.4257 134.353 73.3332 134.353Z" fill="#2F80ED"/>
<path d="M84.3121 134.353H83.8473C83.7547 134.353 83.6843 134.305 83.6907 134.247L83.9086 132.253C83.9151 132.195 83.9958 132.147 84.0888 132.147H84.5537C84.6462 132.147 84.7167 132.195 84.7102 132.253L84.4923 134.247C84.4859 134.305 84.4046 134.353 84.3121 134.353Z" fill="#2F80ED"/>
<path d="M72.9238 225.469C80.8841 225.469 87.3373 225.001 87.3373 224.423C87.3373 223.845 80.8841 223.377 72.9238 223.377C64.9634 223.377 58.5102 223.845 58.5102 224.423C58.5102 225.001 64.9634 225.469 72.9238 225.469Z" fill="#F5F5F5"/>
<path d="M81.7077 222.947C79.1576 222.207 76.3508 221.253 74.6142 220.239C74.5657 220.211 74.5146 220.19 74.4657 220.165V208.636H79.595C80.4434 208.636 81.131 207.948 81.131 207.1C81.131 206.252 80.4434 205.564 79.595 205.564H74.4657V152.936H71.3942V205.564H66.2649C65.4171 205.564 64.7295 206.252 64.7295 207.1C64.7295 207.948 65.4171 208.636 66.2649 208.636H71.3942V220.164C71.3453 220.19 71.2942 220.21 71.2457 220.238C69.5091 221.252 66.7023 222.206 64.1522 222.947C63.3156 223.189 63.4921 224.422 64.3631 224.422H72.9297H81.4963C82.3678 224.422 82.5443 223.19 81.7077 222.947Z" fill="#E0E0E0"/>
<path d="M82.4969 158.843H63.363C61.8302 158.843 60.5761 157.589 60.5761 156.056V150.368C60.5761 148.835 61.8302 147.581 63.363 147.581H82.4969C84.0297 147.581 85.2838 148.835 85.2838 150.368V156.056C85.2838 157.589 84.0297 158.843 82.4969 158.843Z" fill="#2F80ED"/>
<path d="M63.187 158.843V159.822C63.187 160.629 64.0656 161.29 65.1389 161.29H80.721C81.7943 161.29 82.6728 160.63 82.6728 159.822V158.843H63.187Z" fill="#2F80ED"/>
<path opacity="0.3" d="M63.187 158.843V159.822C63.187 160.629 64.0656 161.29 65.1389 161.29H80.721C81.7943 161.29 82.6728 160.63 82.6728 159.822V158.843H63.187Z" fill="white"/>
</g>
<defs>
<clipPath id="clip0_462_3466">
<rect width="269" height="269" fill="white"/>
</clipPath>
</defs>
</svg>
