<svg width="173" height="173" viewBox="0 0 173 173" fill="none" xmlns="http://www.w3.org/2000/svg">
<path d="M161.544 109.406H104.847V76.5898H161.544V109.406ZM105.193 109.06H161.198V76.9358H105.193V109.06Z" fill="#E0E0E0"/>
<path d="M149.849 94.0872H112.434V95.1847H149.849V94.0872Z" fill="#F0F0F0"/>
<path d="M152.426 98.1775H112.434V99.375H152.426V98.1775Z" fill="#F0F0F0"/>
<path d="M152.426 102.316H112.434V103.513H152.426V102.316Z" fill="#F0F0F0"/>
<path d="M125.51 88.1467H112.434V90.994H125.51V88.1467Z" fill="#F0F0F0"/>
<path d="M161.371 76.7625H105.02V81.9867H161.371V76.7625Z" fill="#E0E0E0"/>
<path d="M157.035 81.2061C156.963 81.1373 157.689 80.2616 158.656 79.2502C159.624 78.2385 160.467 77.4745 160.538 77.5434C160.61 77.6122 159.884 78.488 158.916 79.4993C157.949 80.5107 157.107 81.275 157.035 81.2061Z" fill="white"/>
<path d="M160.539 81.2061C160.467 81.275 159.624 80.5106 158.657 79.4993C157.689 78.4876 156.963 77.6118 157.035 77.5433C157.107 77.4748 157.949 78.2384 158.917 79.2502C159.885 80.2615 160.611 81.1372 160.539 81.2061Z" fill="white"/>
<path d="M91.7688 11.7825H35.4177V44.2529H91.7688V11.7825Z" fill="#E6E6E6"/>
<path d="M80.2462 29.1072H42.8318V30.2047H80.2462V29.1072Z" fill="#F0F0F0"/>
<path d="M82.8232 33.1975H42.8318V34.3947H82.8232V33.1975Z" fill="#F0F0F0"/>
<path d="M82.8232 37.3352H42.8318V38.5324H82.8232V37.3352Z" fill="#F0F0F0"/>
<path d="M55.9078 23.1665H42.8318V26.0137H55.9078V23.1665Z" fill="#F0F0F0"/>
<path d="M91.7688 11.7825H35.4177V17.0064H91.7688V11.7825Z" fill="#E0E0E0"/>
<path d="M87.2393 16.2013C87.1673 16.1325 87.8936 15.2567 88.8606 14.2454C89.8284 13.2337 90.6709 12.4697 90.7429 12.5382C90.8149 12.6071 90.0886 13.4824 89.1208 14.4941C88.1541 15.5055 87.3113 16.2698 87.2393 16.2013Z" fill="white"/>
<path d="M90.7433 16.2013C90.6713 16.2701 89.8288 15.5058 88.8614 14.4944C87.8933 13.4827 87.1677 12.607 87.2393 12.5385C87.3113 12.4696 88.1538 13.234 89.1212 14.2457C90.0893 15.2567 90.8152 16.1324 90.7433 16.2013Z" fill="white"/>
<path d="M70.4264 72.1028H13.7297V39.2864H70.4264V72.1028ZM14.0757 71.7568H70.0804V39.6324H14.0757V71.7568Z" fill="#E0E0E0"/>
<path d="M58.7312 56.7837H21.3164V57.8812H58.7312V56.7837Z" fill="#F0F0F0"/>
<path d="M61.3082 60.8745H21.3164V62.0717H61.3082V60.8745Z" fill="#F0F0F0"/>
<path d="M61.3082 65.0122H21.3164V66.2094H61.3082V65.0122Z" fill="#F0F0F0"/>
<path d="M34.3925 50.843H21.3164V53.6906H34.3925V50.843Z" fill="#F0F0F0"/>
<path d="M70.2534 39.4595H13.9027V44.6837H70.2534V39.4595Z" fill="#E0E0E0"/>
<path d="M135.859 79.6228H69.322V139.189H135.859V79.6228Z" fill="#E6E6E6"/>
<path d="M72.6668 60.8584H20.5459V115.011H72.6668V60.8584Z" fill="#F0F0F0"/>
<path d="M72.6668 60.8584H20.5459V66.7588H72.6668V60.8584Z" fill="#E0E0E0"/>
<path d="M24.8502 63.7481C24.8502 64.3799 24.3602 64.892 23.7558 64.892C23.1513 64.892 22.6614 64.3799 22.6614 63.7481C22.6614 63.1163 23.1513 62.6042 23.7558 62.6042C24.3602 62.6042 24.8502 63.1163 24.8502 63.7481Z" fill="white"/>
<path d="M29.2887 63.7481C29.2887 64.3799 28.7987 64.892 28.1943 64.892C27.5898 64.892 27.0999 64.3799 27.0999 63.7481C27.0999 63.1163 27.5898 62.6042 28.1943 62.6042C28.7987 62.6042 29.2887 63.1163 29.2887 63.7481Z" fill="white"/>
<path d="M33.7274 63.7481C33.7274 64.3799 33.2375 64.892 32.633 64.892C32.0286 64.892 31.5386 64.3799 31.5386 63.7481C31.5386 63.1163 32.0286 62.6042 32.633 62.6042C33.2375 62.6042 33.7274 63.1163 33.7274 63.7481Z" fill="white"/>
<path d="M154.104 23.6265H87.5662V89.9413H154.104V23.6265Z" fill="#F0F0F0"/>
<path d="M154.104 23.6265H87.5662V31.3942H154.104V23.6265Z" fill="#E0E0E0"/>
<path d="M93.2327 27.4304C93.2327 28.2621 92.5878 28.9365 91.792 28.9365C90.9965 28.9365 90.3516 28.2621 90.3516 27.4304C90.3516 26.5986 90.9965 25.9246 91.792 25.9246C92.5874 25.9246 93.2327 26.5989 93.2327 27.4304Z" fill="white"/>
<path d="M98.6545 26.4121C99.2423 27.0003 99.2631 27.9331 98.7005 28.4954C98.1379 29.058 97.2051 29.0372 96.6172 28.4494C96.0293 27.8612 96.0082 26.9284 96.5708 26.3658C97.1331 25.8032 98.0659 25.8239 98.6545 26.4121Z" fill="white"/>
<path d="M104.92 27.4304C104.92 28.2621 104.275 28.9365 103.479 28.9365C102.683 28.9365 102.039 28.2621 102.039 27.4304C102.039 26.5986 102.683 25.9246 103.479 25.9246C104.275 25.9246 104.92 26.5989 104.92 27.4304Z" fill="white"/>
<path d="M139.73 156.783C139.73 156.833 115.704 156.874 86.0728 156.874C56.432 156.874 32.4109 156.833 32.4109 156.783C32.4109 156.734 56.4316 156.693 86.0728 156.693C115.704 156.693 139.73 156.734 139.73 156.783Z" fill="#263238"/>
<path d="M116.318 114.426C110.973 110.692 109.76 103.761 109.972 97.5297C110.007 96.4897 109.893 95.3932 110.387 94.4804C110.883 93.568 112.037 92.9445 112.968 93.3826C113.74 93.7462 114.077 94.6445 114.509 95.3877C115.084 96.3762 115.94 97.1945 116.948 97.7173C117.611 98.0609 118.43 98.2712 119.084 97.9107C119.981 97.4156 120.087 96.1762 120.08 95.1417C120.068 93.2137 120.056 91.2855 120.044 89.3579C120.038 88.3237 120.035 87.2674 120.356 86.2858C120.678 85.3042 121.389 84.3921 122.373 84.1163C123.357 83.8409 124.574 84.408 124.782 85.4208C124.868 85.8422 124.782 86.2795 124.811 86.7089C124.84 87.1383 125.04 87.6134 125.448 87.7331C125.861 87.8545 126.275 87.5611 126.584 87.2584C127.651 86.2141 128.376 84.8685 129.053 83.5306C129.73 82.1926 130.387 80.8228 131.356 79.6834C132.325 78.544 133.665 77.6416 135.146 77.5575C136.628 77.4738 138.206 78.388 138.581 79.8425C138.956 81.3009 138.105 82.7804 137.179 83.961C135.806 85.7124 134.181 87.2615 132.372 88.5438C132.046 88.7752 131.692 89.0254 131.568 89.4084C131.343 90.098 131.996 90.7831 132.677 91.0097C133.448 91.2664 134.285 91.1865 135.091 91.2813C135.898 91.3761 136.772 91.7322 137.077 92.4944C137.5 93.5518 136.616 94.66 135.746 95.3856C134.004 96.8391 132.014 97.9875 129.892 98.765C129.131 99.0435 128.33 99.2878 127.717 99.8223C127.103 100.357 126.732 101.287 127.103 102.015C127.474 102.745 128.426 102.978 129.223 102.83C130.02 102.682 130.733 102.249 131.493 101.963C132.914 101.426 134.75 101.524 135.661 102.753C136.259 103.56 136.312 104.685 136.009 105.647C135.707 106.61 135.093 107.439 134.441 108.204C132.163 110.877 129.246 113.029 125.948 114.172C122.651 115.316 119.596 115.625 116.318 114.426Z" fill="#2F80ED"/>
<path d="M137.086 78.4235C137.089 78.4259 137.054 78.4595 136.986 78.5218C136.909 78.5899 136.808 78.6806 136.679 78.7958C136.408 79.0352 136.008 79.3885 135.506 79.8574C134.501 80.7919 133.089 82.198 131.555 84.1218C130.785 85.0806 129.986 86.166 129.148 87.3469C128.312 88.5299 127.427 89.7993 126.547 91.1688C125.667 92.5376 124.786 94.0046 123.995 95.5897C123.596 96.3803 123.241 97.2079 122.878 98.0514C122.517 98.895 122.151 99.7507 121.78 100.617C120.31 104.085 119.018 107.439 118.094 110.571C117.165 113.701 116.612 116.601 116.37 119.059C116.122 121.518 116.173 123.524 116.273 124.901C116.327 125.59 116.38 126.125 116.429 126.485C116.449 126.658 116.464 126.794 116.476 126.896C116.486 126.989 116.489 127.037 116.486 127.038C116.483 127.038 116.473 126.992 116.457 126.9C116.441 126.798 116.419 126.663 116.39 126.491C116.33 126.131 116.265 125.597 116.199 124.908C116.076 123.53 116.004 121.515 116.236 119.046C116.462 116.578 117.003 113.663 117.926 110.521C118.843 107.376 120.135 104.013 121.606 100.541C121.977 99.6749 122.343 98.8185 122.705 97.975C123.067 97.1335 123.427 96.299 123.829 95.5045C124.626 93.9116 125.514 92.441 126.401 91.0719C127.287 89.7014 128.178 88.4333 129.02 87.2538C129.864 86.0753 130.672 84.992 131.451 84.036C133.002 82.1171 134.434 80.7206 135.457 79.8023C135.967 79.3411 136.374 78.9965 136.654 78.7664C136.788 78.6574 136.893 78.5716 136.973 78.5069C137.046 78.4491 137.084 78.4208 137.086 78.4235Z" fill="#263238"/>
<path d="M123.883 95.4969C123.87 95.499 123.835 95.3419 123.782 95.0558C123.728 94.77 123.663 94.3541 123.59 93.8385C123.444 92.8085 123.29 91.3795 123.127 89.8031C122.964 88.2257 122.79 86.8029 122.629 85.7781C122.55 85.2657 122.482 84.8512 122.431 84.5654C122.381 84.2792 122.36 84.1194 122.373 84.1162C122.386 84.1135 122.431 84.2678 122.503 84.5498C122.576 84.8314 122.665 85.2432 122.761 85.7546C122.958 86.7773 123.153 88.2036 123.316 89.7824C123.473 91.3383 123.615 92.7459 123.724 93.8216C123.776 94.307 123.82 94.7163 123.855 95.0447C123.886 95.3339 123.897 95.4952 123.883 95.4969Z" fill="#263238"/>
<path d="M137.183 93.0116C137.183 93.0248 136.994 93.0469 136.652 93.0753C136.311 93.1057 135.817 93.1469 135.208 93.2175C133.99 93.349 132.314 93.5894 130.476 93.9358C128.639 94.2856 126.989 94.6728 125.804 94.9873C125.21 95.1402 124.733 95.2772 124.402 95.3699C124.072 95.4637 123.888 95.5097 123.883 95.4973C123.879 95.4845 124.056 95.4146 124.38 95.2983C124.705 95.1838 125.177 95.0267 125.768 94.8561C126.947 94.507 128.598 94.0977 130.441 93.7465C132.284 93.3995 133.97 93.1791 135.195 93.0822C135.808 93.0289 136.305 93.0078 136.648 93.0009C136.992 92.995 137.182 92.9981 137.183 93.0116Z" fill="#263238"/>
<path d="M118.09 110.276C118.084 110.278 118.053 110.223 117.999 110.113C117.937 109.983 117.862 109.824 117.771 109.632C117.576 109.213 117.308 108.6 116.988 107.838C116.347 106.315 115.526 104.182 114.653 101.817C113.78 99.4506 112.98 97.3134 112.371 95.7789C112.073 95.0329 111.827 94.4191 111.645 93.9631C111.567 93.7651 111.503 93.6018 111.45 93.4676C111.407 93.3537 111.387 93.2925 111.394 93.2894C111.4 93.287 111.431 93.3427 111.485 93.452C111.546 93.5821 111.622 93.7406 111.712 93.9329C111.908 94.3516 112.175 94.9647 112.496 95.727C113.137 97.2504 113.957 99.3828 114.831 101.749C115.704 104.115 116.503 106.252 117.112 107.786C117.411 108.532 117.656 109.146 117.839 109.602C117.917 109.8 117.981 109.964 118.034 110.097C118.077 110.212 118.096 110.273 118.09 110.276Z" fill="#263238"/>
<path d="M135.763 104.58C135.765 104.587 135.704 104.611 135.588 104.652C135.45 104.699 135.28 104.755 135.075 104.824C134.601 104.978 133.96 105.185 133.182 105.437C131.584 105.956 129.385 106.697 126.957 107.519C124.528 108.342 122.32 109.063 120.711 109.548C119.907 109.791 119.254 109.981 118.8 110.103C118.59 110.158 118.417 110.203 118.277 110.241C118.156 110.27 118.092 110.282 118.09 110.276C118.089 110.27 118.149 110.245 118.266 110.203C118.404 110.157 118.573 110.1 118.779 110.032C119.253 109.878 119.893 109.671 120.671 109.418C122.269 108.9 124.468 108.159 126.897 107.336C129.326 106.514 131.533 105.792 133.142 105.307C133.947 105.064 134.6 104.874 135.053 104.752C135.263 104.697 135.436 104.652 135.577 104.615C135.697 104.586 135.761 104.574 135.763 104.58Z" fill="#263238"/>
<path d="M128.553 20.6489L126.77 21.2865L126.008 18.9583C124.602 14.6637 120.114 12.3659 116.01 13.8344C111.903 15.3035 109.707 19.9921 111.113 24.2867L111.876 26.6149L110.087 27.2547C108.696 27.7522 107.943 29.3556 108.419 30.8112L113.38 45.963C113.863 47.4407 115.399 48.2286 116.79 47.731L135.258 41.1248C136.671 40.6193 137.425 39.0121 136.94 37.5347L131.98 22.383C131.503 20.9274 129.966 20.143 128.553 20.6489ZM114.478 23.0826C113.707 20.7291 114.91 18.159 117.162 17.3535C119.411 16.5487 121.869 17.8092 122.64 20.1627L123.402 22.4913L115.24 25.4109L114.478 23.0826ZM124.861 36.5258L126.128 40.3951C126.181 40.5588 126.087 40.7259 125.929 40.7826L124.157 41.4165C124.022 41.4649 123.848 41.3933 123.795 41.2297L122.528 37.3603C121.155 37.3022 119.881 36.3926 119.404 34.937C118.792 33.0654 119.75 31.0192 121.546 30.3767C123.341 29.7345 125.298 30.7379 125.91 32.6098C126.387 34.0654 125.913 35.6006 124.861 36.5258Z" fill="#2F80ED"/>
<path d="M126.693 21.2448C126.71 21.2915 123.388 22.535 119.275 24.0214C115.161 25.5085 111.813 26.6759 111.796 26.6292C111.779 26.5825 115.1 25.3393 119.214 23.8522C123.327 22.3658 126.676 21.1981 126.693 21.2448Z" fill="#263238"/>
<path d="M130.614 21.8823C130.617 21.8813 130.631 21.9121 130.654 21.973C130.68 22.0436 130.714 22.1329 130.755 22.2443C130.844 22.4965 130.967 22.8473 131.124 23.293C131.442 24.2192 131.895 25.5372 132.452 27.1606C133.007 28.7996 133.667 30.7448 134.399 32.9042C134.76 33.9882 135.155 35.1145 135.534 36.304C135.709 36.9019 135.854 37.541 135.794 38.2029C135.763 38.5312 135.673 38.8616 135.514 39.1606C135.351 39.4575 135.123 39.7187 134.86 39.9315C134.328 40.3567 133.705 40.6051 133.104 40.828C132.5 41.0449 131.904 41.2587 131.32 41.4688C130.151 41.8871 129.023 42.2909 127.948 42.676C125.8 43.4406 123.864 44.1298 122.234 44.7104C120.614 45.28 119.3 45.7422 118.377 46.0671C117.93 46.22 117.578 46.3408 117.325 46.4273C117.212 46.464 117.122 46.4934 117.05 46.5166C116.987 46.5359 116.955 46.5442 116.954 46.5411C116.953 46.5384 116.984 46.5242 117.044 46.4993C117.114 46.4716 117.203 46.4366 117.313 46.393C117.563 46.2989 117.911 46.1674 118.353 46.001C119.272 45.663 120.58 45.1824 122.191 44.5904C123.817 43.9994 125.748 43.2981 127.892 42.5199C128.966 42.1317 130.092 41.7248 131.261 41.3027C131.845 41.092 132.439 40.8774 133.042 40.6598C133.639 40.4387 134.245 40.1934 134.747 39.7913C134.995 39.5907 135.205 39.3485 135.356 39.0751C135.503 38.7997 135.586 38.4949 135.616 38.1859C135.674 37.5641 135.537 36.9431 135.365 36.3542C134.993 35.1764 134.598 34.0401 134.242 32.9575C133.524 30.7939 132.877 28.8439 132.331 27.2014C131.797 25.5704 131.363 24.2462 131.058 23.3158C130.915 22.8657 130.802 22.511 130.721 22.2564C130.686 22.1425 130.659 22.0515 130.637 21.9792C130.619 21.9159 130.611 21.8834 130.614 21.8823Z" fill="#263238"/>
<path d="M120.873 17.1111C120.864 17.1263 120.689 17.018 120.349 16.881C120.008 16.7509 119.492 16.599 118.838 16.5782C118.189 16.5544 117.399 16.6547 116.61 16.9993C115.824 17.3398 115.049 17.9443 114.495 18.7667C113.93 19.586 113.682 20.5341 113.682 21.3939C113.675 22.2575 113.858 23.0267 114.034 23.6578C114.217 24.2896 114.403 24.7909 114.526 25.139C114.65 25.4871 114.717 25.6805 114.705 25.6853C114.694 25.6895 114.605 25.5051 114.46 25.1646C114.318 24.8234 114.112 24.328 113.912 23.6944C113.719 23.0616 113.518 22.2828 113.516 21.3928C113.507 20.5078 113.76 19.5134 114.346 18.6653C114.921 17.8128 115.726 17.191 116.544 16.8467C117.364 16.499 118.179 16.4097 118.845 16.4506C119.514 16.4883 120.038 16.6637 120.376 16.8163C120.544 16.8983 120.672 16.9654 120.752 17.0218C120.835 17.0754 120.876 17.1055 120.873 17.1111Z" fill="#263238"/>
<path d="M121.03 30.65C121.028 30.6455 121.087 30.6157 121.205 30.5628C121.322 30.5085 121.5 30.4389 121.739 30.3708C121.976 30.2964 122.28 30.2424 122.638 30.2213C122.996 30.2037 123.417 30.2407 123.852 30.4023C124.736 30.713 125.551 31.6167 125.951 32.8142C126.143 33.419 126.16 34.1214 125.967 34.8006C125.76 35.4771 125.382 36.1258 124.835 36.6711L124.858 36.5794C125.318 37.8406 125.818 39.2132 126.339 40.6411L126.37 40.728L126.283 40.7574C126.032 40.8414 125.763 40.9318 125.492 41.0224C124.909 41.2175 124.334 41.4099 123.77 41.5988L123.685 41.6272L123.657 41.5418C123.183 40.1072 122.664 38.7547 122.287 37.4621L122.361 37.5209C121.653 37.4735 121.016 37.1763 120.51 36.7887C120.001 36.3974 119.611 35.9116 119.348 35.4006C119.089 34.8878 118.959 34.3436 118.981 33.8422C118.994 33.3412 119.109 32.8876 119.271 32.5053C119.594 31.734 120.075 31.2489 120.431 30.9842C120.794 30.7189 121.03 30.65 121.03 30.65C121.038 30.6656 120.81 30.7524 120.464 31.0261C120.124 31.2994 119.665 31.7852 119.364 32.543C119.062 33.2824 118.931 34.3453 119.471 35.3373C119.729 35.8275 120.11 36.2936 120.602 36.6669C121.093 37.0365 121.704 37.315 122.37 37.3558L122.428 37.3593L122.445 37.4147C122.826 38.6983 123.349 40.0453 123.827 41.4857L123.713 41.429C124.277 41.24 124.852 41.047 125.435 40.8515C125.705 40.7608 125.974 40.6705 126.225 40.5864L126.169 40.7024C125.652 39.273 125.155 37.8991 124.698 36.6372L124.68 36.5863L124.721 36.5455C125.238 36.0338 125.615 35.3992 125.814 34.7556C126.003 34.1062 125.992 33.4388 125.813 32.8561C125.435 31.6939 124.657 30.8102 123.814 30.4998C123.398 30.3372 122.99 30.2929 122.64 30.3023C122.289 30.3147 121.989 30.3594 121.752 30.4244C121.278 30.5469 121.036 30.6652 121.03 30.65Z" fill="#263238"/>
<path d="M110.336 130.552L75.7776 130.392C71.6211 130.373 68.2666 126.989 68.2842 122.832L68.6507 36.1925C68.6683 32.0335 72.0546 28.677 76.2132 28.6964L110.772 28.8559C114.929 28.8753 118.283 32.2595 118.265 36.4156L117.899 123.056C117.882 127.215 114.495 130.571 110.336 130.552Z" fill="#455A64"/>
<path d="M110.723 31.8461L104.023 31.8153C103.124 31.8111 102.392 32.5696 102.389 33.5086L102.383 34.7241C102.379 35.6635 101.647 36.4216 100.749 36.4174L87.6883 36.3572C86.7898 36.3531 86.0646 35.5881 86.0684 34.6487L86.0736 33.4332C86.0774 32.4938 85.3521 31.7288 84.4536 31.7246L82.097 31.7136L76.2326 31.6866C73.3203 31.6731 70.9485 34.0238 70.936 36.9364L70.5786 121.503C70.5661 124.414 72.9155 126.785 75.8264 126.798L110.316 126.957C113.229 126.971 115.6 124.62 115.613 121.707L115.97 37.1402C115.983 34.2297 113.634 31.8599 110.723 31.8461Z" fill="white"/>
<path d="M106.081 115.677L80.4344 115.558C80.1691 115.557 79.9549 115.268 79.9566 114.913L79.985 108.203C79.9864 107.848 80.203 107.561 80.4684 107.562L106.115 107.68C106.381 107.682 106.595 107.971 106.593 108.326L106.565 115.035C106.564 115.391 106.347 115.678 106.081 115.677Z" fill="#2F80ED"/>
<path d="M90.3425 118.632C89.8389 118.629 89.3551 118.546 88.8909 118.383C88.4332 118.213 88.079 117.998 87.8283 117.739L88.1115 117.188C88.3494 117.421 88.6681 117.62 89.0677 117.783C89.4738 117.94 89.8996 118.019 90.3451 118.021C90.7712 118.023 91.1168 117.973 91.382 117.871C91.6536 117.763 91.8511 117.618 91.9745 117.438C92.1044 117.258 92.1698 117.058 92.1707 116.839C92.1718 116.574 92.0953 116.36 91.941 116.198C91.7932 116.036 91.5968 115.909 91.3518 115.818C91.1069 115.72 90.8361 115.635 90.5394 115.562C90.2427 115.49 89.946 115.414 89.6494 115.336C89.3528 115.25 89.0788 115.139 88.8276 115.003C88.5828 114.866 88.3834 114.687 88.2294 114.467C88.0819 114.24 88.0089 113.946 88.0104 113.585C88.0118 113.249 88.1002 112.943 88.2757 112.666C88.4577 112.383 88.733 112.158 89.1017 111.992C89.4705 111.819 89.9421 111.734 90.5167 111.737C90.8977 111.739 91.2751 111.795 91.6491 111.907C92.0231 112.012 92.3453 112.159 92.6157 112.347L92.3712 112.917C92.0815 112.722 91.7722 112.579 91.4433 112.487C91.1209 112.395 90.8079 112.348 90.5045 112.347C90.0978 112.345 89.7618 112.398 89.4966 112.507C89.2315 112.616 89.0339 112.763 88.904 112.95C88.7806 113.13 88.7184 113.336 88.7174 113.569C88.7163 113.833 88.7897 114.047 88.9375 114.209C89.0917 114.371 89.2914 114.498 89.5363 114.589C89.7877 114.681 90.0618 114.763 90.3585 114.835C90.6551 114.908 90.9486 114.986 91.2388 115.072C91.5354 115.157 91.8061 115.268 92.0509 115.405C92.3021 115.535 92.5015 115.71 92.6491 115.93C92.8031 116.151 92.8794 116.438 92.8779 116.793C92.8765 117.123 92.7848 117.429 92.6029 117.712C92.4209 117.989 92.1424 118.214 91.7672 118.386C91.3985 118.552 90.9236 118.634 90.3425 118.632ZM94.4318 118.592L94.4603 111.813L95.1769 111.816L95.1485 118.596L94.4318 118.592ZM88.4233 130.565L88.4518 123.786L89.0425 123.788L93.6953 129.698L93.3854 129.697L93.4101 123.808L94.1171 123.812L94.0886 130.591L93.4979 130.588L88.8548 124.678L89.1647 124.68L89.1399 130.568L88.4233 130.565ZM91.3457 142.636C90.8292 142.634 90.3518 142.548 89.9135 142.378C89.4817 142.202 89.105 141.958 88.7835 141.646C88.4684 141.335 88.2214 140.969 88.0424 140.549C87.8698 140.128 87.7846 139.669 87.7867 139.172C87.7888 138.675 87.8779 138.217 88.0539 137.798C88.2365 137.38 88.4898 137.016 88.8139 136.707C89.138 136.399 89.5167 136.162 89.95 135.996C90.3898 135.824 90.8679 135.739 91.3844 135.741C91.9009 135.744 92.3718 135.826 92.7973 135.99C93.2292 136.153 93.5961 136.4 93.8982 136.731L93.4508 137.184C93.1679 136.899 92.8556 136.694 92.514 136.57C92.1723 136.445 91.8046 136.382 91.4107 136.38C90.9911 136.379 90.6034 136.448 90.2477 136.588C89.8985 136.722 89.591 136.918 89.3252 137.175C89.0659 137.425 88.8613 137.721 88.7114 138.063C88.5679 138.398 88.4954 138.769 88.4936 139.176C88.492 139.576 88.5614 139.947 88.702 140.29C88.8491 140.633 89.0512 140.934 89.3084 141.194C89.572 141.447 89.8778 141.645 90.2259 141.789C90.5804 141.926 90.9643 141.995 91.3775 141.997C91.7648 141.999 92.1299 141.943 92.4725 141.828C92.8217 141.713 93.1421 141.518 93.4338 141.242L93.8382 141.786C93.5142 142.069 93.1356 142.283 92.7024 142.43C92.2693 142.57 91.817 142.639 91.3457 142.636ZM93.151 141.696L93.1615 139.197L93.8491 139.2L93.8382 141.786L93.151 141.696ZM91.0532 154.635C90.1881 154.631 89.508 154.379 89.013 153.88C88.5179 153.381 88.2724 152.643 88.2765 151.669L88.2929 147.785L89.0095 147.788L88.9933 151.643C88.9899 152.443 89.1682 153.035 89.5282 153.418C89.8881 153.8 90.3974 153.993 91.0559 153.996C91.7209 153.999 92.235 153.811 92.5981 153.432C92.9613 153.052 93.1445 152.463 93.1479 151.662L93.1641 147.808L93.8613 147.811L93.845 151.694C93.8409 152.669 93.5893 153.404 93.0901 153.899C92.5973 154.394 91.9184 154.639 91.0532 154.635ZM88.2721 166.564L88.3006 159.785L90.8379 159.797C91.4125 159.8 91.906 159.896 92.3184 160.085C92.7308 160.267 93.0461 160.534 93.2641 160.883C93.4886 161.226 93.5999 161.643 93.5978 162.134C93.5958 162.612 93.4811 163.024 93.2537 163.372C93.0327 163.713 92.7152 163.976 92.3013 164.162C91.8873 164.347 91.393 164.438 90.8184 164.436L88.6781 164.426L88.9991 164.088L88.9887 166.568L88.2721 166.564ZM88.9989 164.147L88.6808 163.796L90.8016 163.806C91.4795 163.809 91.9934 163.666 92.3433 163.378C92.6996 163.082 92.8789 162.667 92.8812 162.131C92.8834 161.588 92.7077 161.168 92.3538 160.869C92.0064 160.571 91.4938 160.42 90.8159 160.417L88.695 160.407L89.016 160.069L88.9989 164.147Z" fill="#E8E8E3"/>
<path d="M85.5455 56.6982L76.6474 56.6572L76.6399 58.29L85.538 58.3309L85.5455 56.6982Z" fill="#2F80ED"/>
<path opacity="0.1" d="M85.5455 56.6982L76.6474 56.6572L76.6399 58.29L85.538 58.3309L85.5455 56.6982Z" fill="black"/>
<path d="M111.639 66.7178C111.637 66.7109 111.713 66.7219 111.842 66.67C111.963 66.623 112.155 66.4752 112.177 66.2043C112.176 65.6524 112.174 64.8504 112.172 63.8207C112.172 63.3021 112.172 62.7267 112.172 62.0969C112.172 61.9392 112.172 61.7786 112.172 61.6143C112.177 61.4461 112.176 61.2901 112.075 61.161C111.984 61.0326 111.828 60.9506 111.666 60.9499C111.488 60.9496 111.308 60.9493 111.124 60.9489C109.652 60.9461 107.977 60.9427 106.126 60.9392C98.714 60.9115 88.4848 60.8738 77.1865 60.832C77.0374 60.8309 76.8917 60.9039 76.8052 61.0247C76.709 61.1472 76.7132 61.2914 76.7152 61.4769C76.7139 61.8281 76.7121 62.1779 76.7107 62.527C76.7076 63.2249 76.7045 63.9179 76.7017 64.6058C76.7004 64.9501 76.6986 65.2926 76.6969 65.6341C76.7024 65.7978 76.681 65.9936 76.7114 66.1206C76.7457 66.2593 76.8509 66.377 76.9817 66.4323C77.0498 66.46 77.1135 66.4697 77.1958 66.469L77.4491 66.4704L77.9539 66.4728C78.2899 66.4745 78.6245 66.4763 78.9577 66.478C81.6222 66.4922 84.1927 66.506 86.6417 66.5188C91.5372 66.5486 95.9466 66.5756 99.652 66.5981C103.35 66.6271 106.346 66.651 108.423 66.6673C109.453 66.6794 110.256 66.6887 110.808 66.6953C111.076 66.7005 111.281 66.7043 111.428 66.707C111.567 66.7112 111.639 66.7178 111.639 66.7178C111.639 66.7178 111.567 66.7237 111.427 66.7257C111.281 66.7271 111.075 66.7292 110.807 66.732C110.255 66.7333 109.453 66.7354 108.422 66.7378C106.345 66.7351 103.35 66.7309 99.6509 66.7261C95.9456 66.7143 91.5362 66.7005 86.6403 66.6853C84.1916 66.6756 81.6212 66.6655 78.9566 66.6552C78.6234 66.6538 78.2888 66.6524 77.9529 66.651L77.4477 66.6489L77.1944 66.6479C77.1079 66.6496 77.0007 66.6361 76.9121 66.5974C76.7312 66.5212 76.5869 66.3593 76.5384 66.1666C76.5111 66.0687 76.5173 65.9697 76.517 65.8898L76.518 65.6341C76.5194 65.2926 76.5208 64.9497 76.5222 64.6058C76.5249 63.9176 76.5277 63.2246 76.5305 62.527C76.5319 62.1782 76.5332 61.8281 76.5346 61.4769C76.5374 61.3869 76.5294 61.3081 76.5436 61.2005C76.5588 61.0994 76.5979 61.0015 76.6592 60.9192C76.7779 60.752 76.982 60.65 77.1868 60.6524C88.4848 60.7147 98.714 60.7714 106.126 60.8122C107.977 60.8257 109.652 60.8378 111.124 60.8486C111.308 60.85 111.489 60.8513 111.666 60.8531C111.86 60.8548 112.044 60.9544 112.15 61.1067C112.269 61.2558 112.268 61.46 112.261 61.615C112.259 61.7793 112.258 61.9402 112.257 62.0976C112.251 62.7274 112.246 63.3027 112.242 63.8211C112.229 64.8521 112.219 65.6552 112.212 66.2074C112.182 66.496 111.975 66.6441 111.847 66.6873C111.713 66.7351 111.639 66.7178 111.639 66.7178Z" fill="#E0E0E0"/>
<path d="M95.3123 63.0121L79.0354 62.9373L79.0284 64.4635L95.3053 64.5383L95.3123 63.0121Z" fill="#2F80ED"/>
<path opacity="0.2" d="M95.3123 63.0121L79.0354 62.9373L79.0284 64.4635L95.3053 64.5383L95.3123 63.0121Z" fill="white"/>
<path d="M85.4825 71.5983L76.5844 71.5574L76.5769 73.1902L85.475 73.2311L85.4825 71.5983Z" fill="#2F80ED"/>
<path opacity="0.1" d="M85.4825 71.5983L76.5844 71.5574L76.5769 73.1902L85.475 73.2311L85.4825 71.5983Z" fill="black"/>
<path d="M111.41 81.6168C111.41 81.6106 111.483 81.6172 111.616 81.5781C111.741 81.5369 111.944 81.4331 112.054 81.1861C112.113 81.0643 112.119 80.9165 112.114 80.7473C112.113 80.5792 112.112 80.3958 112.112 80.1975C112.111 79.7993 112.11 79.3408 112.109 78.826C112.109 78.3094 112.109 77.7357 112.109 77.1084C112.109 76.9513 112.109 76.7912 112.109 76.6275C112.116 76.4621 112.096 76.3088 112.008 76.1708C111.925 76.0351 111.789 75.9275 111.632 75.8794C111.477 75.8303 111.292 75.8569 111.109 75.8497C109.642 75.8469 107.973 75.8435 106.128 75.84C98.7413 75.8127 88.5474 75.7746 77.2886 75.7331C76.9758 75.7255 76.6869 75.9805 76.6568 76.2898C76.6464 76.6188 76.6512 76.9825 76.6478 77.3257C76.6446 78.0208 76.6415 78.7118 76.6388 79.3972C76.6374 79.7401 76.6357 80.082 76.6343 80.4221C76.6401 80.592 76.6159 80.7695 76.6561 80.9051C76.6952 81.0483 76.7865 81.176 76.9087 81.2597C77.0356 81.3452 77.173 81.3767 77.3391 81.3705L77.8425 81.3729C78.1774 81.3746 78.5106 81.3764 78.8428 81.3781C81.4983 81.3919 84.0598 81.4058 86.4998 81.4186C91.3787 81.4483 95.7726 81.4753 99.4651 81.4978C103.151 81.5269 106.135 81.5504 108.206 81.5667C109.233 81.5788 110.032 81.5881 110.582 81.5947C110.849 81.5999 111.054 81.6037 111.2 81.6064C111.339 81.6102 111.41 81.6168 111.41 81.6168C111.41 81.6168 111.339 81.6227 111.2 81.6248C111.054 81.6262 110.849 81.6282 110.582 81.631C110.032 81.6324 109.232 81.6345 108.205 81.6372C106.135 81.6345 103.15 81.6303 99.4644 81.6255C95.7719 81.6141 91.3781 81.6002 86.4991 81.585C84.0588 81.5753 81.4973 81.5653 78.8421 81.5549C78.5099 81.5535 78.1767 81.5521 77.8418 81.5507L77.3384 81.5487C77.1692 81.5577 76.9612 81.5168 76.8083 81.4075C76.6516 81.3002 76.5346 81.1366 76.4841 80.9525C76.4326 80.7587 76.4633 80.5902 76.4557 80.4214C76.4571 80.0813 76.4582 79.7394 76.4595 79.3965C76.4623 78.7108 76.4654 78.0201 76.4678 77.3247C76.472 76.9725 76.4651 76.6382 76.4779 76.2683C76.5163 75.8701 76.8879 75.5424 77.2892 75.5525C88.5481 75.6148 98.7416 75.6711 106.128 75.712C107.973 75.7255 109.641 75.7376 111.109 75.7487C111.29 75.7583 111.473 75.7289 111.66 75.7864C111.841 75.8428 111.993 75.9666 112.087 76.1216C112.186 76.2735 112.208 76.4676 112.198 76.6275C112.196 76.7912 112.195 76.9514 112.194 77.1088C112.188 77.7361 112.183 78.3098 112.179 78.8263C112.173 79.3415 112.169 79.7996 112.164 80.1979C112.162 80.3961 112.16 80.5795 112.158 80.7473C112.161 80.9124 112.151 81.076 112.087 81.2009C111.965 81.458 111.751 81.559 111.62 81.5957C111.483 81.63 111.41 81.6168 111.41 81.6168Z" fill="#E0E0E0"/>
<path d="M85.4157 87.1401L76.5176 87.0991L76.5101 88.7319L85.4082 88.7728L85.4157 87.1401Z" fill="#2F80ED"/>
<path opacity="0.1" d="M85.4157 87.1401L76.5176 87.0991L76.5101 88.7319L85.4082 88.7728L85.4157 87.1401Z" fill="black"/>
<path d="M111.344 97.1568C111.344 97.1506 111.417 97.1571 111.55 97.1184C111.675 97.0772 111.878 96.9731 111.988 96.726C112.047 96.6042 112.053 96.4565 112.048 96.2873C112.047 96.1191 112.046 95.9357 112.046 95.7375C112.045 95.3392 112.044 94.8808 112.043 94.3659C112.043 93.8494 112.043 93.2757 112.043 92.6481C112.043 92.4913 112.043 92.3308 112.043 92.1668C112.05 92.0014 112.03 91.8484 111.942 91.7104C111.859 91.5747 111.724 91.4671 111.566 91.4187C111.411 91.3699 111.226 91.3966 111.043 91.389C109.576 91.3858 107.906 91.3827 106.062 91.3793C98.6752 91.3519 88.4817 91.3142 77.2228 91.2723C76.9097 91.2647 76.6211 91.5197 76.591 91.8291C76.5806 92.1581 76.5855 92.5218 76.5823 92.865C76.5792 93.5601 76.5761 94.2511 76.5733 94.9365C76.572 95.2794 76.5702 95.6205 76.5689 95.9614C76.5747 96.1309 76.5502 96.3084 76.5903 96.4444C76.6294 96.5876 76.7207 96.7153 76.8429 96.799C76.9699 96.8845 77.1072 96.9163 77.2733 96.9097L77.7767 96.9122C78.1117 96.9139 78.4449 96.9156 78.777 96.9174C81.4322 96.9315 83.9937 96.945 86.434 96.9578C91.313 96.9879 95.7068 97.0146 99.3994 97.0371C103.085 97.0661 106.07 97.0897 108.14 97.1059C109.167 97.118 109.967 97.1277 110.516 97.1339C110.783 97.1391 110.989 97.1426 111.134 97.1457C111.273 97.1506 111.344 97.1568 111.344 97.1568C111.344 97.1568 111.273 97.1627 111.134 97.1647C110.988 97.1661 110.783 97.1682 110.516 97.171C109.966 97.1724 109.166 97.1744 108.139 97.1772C106.069 97.1741 103.085 97.1703 99.3983 97.1654C95.7058 97.154 91.3119 97.1402 86.433 97.125C83.9926 97.1153 81.4312 97.1052 78.776 97.0948C78.4438 97.0935 78.1106 97.0917 77.7757 97.0904L77.2723 97.0883C77.1031 97.0973 76.8951 97.0561 76.7422 96.9471C76.5855 96.8395 76.4685 96.6762 76.418 96.4921C76.3668 96.2984 76.3972 96.1295 76.3896 95.961C76.391 95.6209 76.3924 95.279 76.3938 94.9365C76.3965 94.2507 76.3993 93.5598 76.4021 92.8646C76.4062 92.5128 76.3993 92.1785 76.4121 91.8083C76.4505 91.4101 76.8221 91.0824 77.2235 91.0928C88.4823 91.155 98.6755 91.2114 106.062 91.2523C107.906 91.2658 109.576 91.2779 111.043 91.2886C111.224 91.298 111.407 91.2689 111.594 91.3263C111.775 91.3827 111.927 91.5066 112.021 91.6619C112.12 91.8138 112.142 92.0079 112.132 92.1678C112.13 92.3315 112.129 92.4917 112.128 92.6487C112.122 93.2764 112.117 93.85 112.113 94.3663C112.107 94.8815 112.103 95.3399 112.099 95.7382C112.096 95.9361 112.094 96.1198 112.092 96.2876C112.095 96.453 112.085 96.6163 112.02 96.7412C111.898 96.998 111.684 97.0993 111.554 97.136C111.417 97.1696 111.344 97.1568 111.344 97.1568Z" fill="#E0E0E0"/>
<path d="M95.25 77.912L78.9728 77.8372L78.9658 79.3634L95.243 79.4382L95.25 77.912Z" fill="#2F80ED"/>
<path opacity="0.2" d="M95.25 77.912L78.9728 77.8372L78.9658 79.3634L95.243 79.4382L95.25 77.912Z" fill="white"/>
<path d="M80.4489 94.3323C80.4471 94.7513 80.1271 95.0897 79.734 95.088C79.341 95.0859 79.024 94.7448 79.0258 94.3258C79.0275 93.9067 79.3475 93.568 79.7406 93.5701C80.1337 93.5718 80.4506 93.913 80.4489 94.3323Z" fill="#2F80ED"/>
<path d="M82.6539 94.3426C82.6522 94.7616 82.3322 95.1 81.9391 95.0982C81.546 95.0965 81.2291 94.7554 81.2308 94.336C81.2326 93.917 81.5526 93.5786 81.9457 93.5803C82.3387 93.5817 82.6557 93.9232 82.6539 94.3426Z" fill="#2F80ED"/>
<path d="M84.859 94.3528C84.8573 94.7718 84.5372 95.1106 84.1442 95.1085C83.7511 95.1068 83.4342 94.7656 83.4359 94.3462C83.4377 93.9272 83.7577 93.5889 84.1508 93.5906C84.5435 93.5923 84.8608 93.9335 84.859 94.3528Z" fill="#2F80ED"/>
<path d="M87.0637 94.3628C87.062 94.7818 86.7419 95.1206 86.3492 95.1185C85.9561 95.1168 85.6389 94.7756 85.6409 94.3563C85.6427 93.9372 85.9627 93.5989 86.3558 93.6006C86.7485 93.6027 87.0658 93.9438 87.0637 94.3628Z" fill="#2F80ED"/>
<path d="M89.2692 94.3728C89.2674 94.7922 88.9474 95.1306 88.5543 95.1285C88.1613 95.1268 87.844 94.7856 87.8457 94.3666C87.8478 93.9473 88.1678 93.6089 88.5605 93.6106C88.9536 93.6127 89.2705 93.9538 89.2692 94.3728Z" fill="#2F80ED"/>
<path d="M91.4738 94.3831C91.4721 94.8024 91.152 95.1408 90.759 95.1388C90.3659 95.137 90.049 94.7959 90.0507 94.3769C90.0525 93.9575 90.3725 93.6195 90.7652 93.6209C91.1586 93.6226 91.4756 93.9641 91.4738 94.3831Z" fill="#2F80ED"/>
<path d="M93.6792 94.3932C93.6771 94.8126 93.3571 95.151 92.9644 95.1493C92.5713 95.1472 92.2544 94.806 92.2561 94.387C92.2578 93.9677 92.5779 93.6296 92.9706 93.6314C93.3633 93.6331 93.6806 93.9742 93.6792 94.3932Z" fill="#2F80ED"/>
<path d="M95.884 94.4033C95.8823 94.8226 95.5622 95.161 95.1695 95.1593C94.7765 95.1572 94.4592 94.8164 94.4613 94.397C94.463 93.978 94.783 93.6396 95.1757 93.6414C95.5688 93.6431 95.8857 93.9842 95.884 94.4033Z" fill="#2F80ED"/>
<path d="M98.0891 94.4141C98.0873 94.8331 97.7673 95.1715 97.3746 95.1698C96.9815 95.168 96.6642 94.8269 96.666 94.4075C96.668 93.9885 96.9881 93.6505 97.3808 93.6519C97.7738 93.6532 98.0908 93.9947 98.0891 94.4141Z" fill="#2F80ED"/>
<g opacity="0.2">
<path d="M80.4489 94.3323C80.4471 94.7513 80.1271 95.0897 79.734 95.088C79.341 95.0859 79.024 94.7448 79.0258 94.3258C79.0275 93.9067 79.3475 93.568 79.7406 93.5701C80.1337 93.5718 80.4506 93.913 80.4489 94.3323Z" fill="white"/>
<path d="M82.6539 94.3426C82.6522 94.7616 82.3322 95.1 81.9391 95.0982C81.546 95.0965 81.2291 94.7554 81.2308 94.336C81.2326 93.917 81.5526 93.5786 81.9457 93.5803C82.3387 93.5817 82.6557 93.9232 82.6539 94.3426Z" fill="white"/>
<path d="M84.859 94.3528C84.8573 94.7718 84.5372 95.1106 84.1442 95.1085C83.7511 95.1068 83.4342 94.7656 83.4359 94.3462C83.4377 93.9272 83.7577 93.5889 84.1508 93.5906C84.5435 93.5923 84.8608 93.9335 84.859 94.3528Z" fill="white"/>
<path d="M87.0637 94.3628C87.062 94.7818 86.7419 95.1206 86.3492 95.1185C85.9561 95.1168 85.6389 94.7756 85.6409 94.3563C85.6427 93.9372 85.9627 93.5989 86.3558 93.6006C86.7485 93.6027 87.0658 93.9438 87.0637 94.3628Z" fill="white"/>
<path d="M89.2692 94.3728C89.2674 94.7922 88.9474 95.1306 88.5543 95.1285C88.1613 95.1268 87.844 94.7856 87.8457 94.3666C87.8478 93.9473 88.1678 93.6089 88.5605 93.6106C88.9536 93.6127 89.2705 93.9538 89.2692 94.3728Z" fill="white"/>
<path d="M91.4738 94.3831C91.4721 94.8024 91.152 95.1408 90.759 95.1388C90.3659 95.137 90.049 94.7959 90.0507 94.3769C90.0525 93.9575 90.3725 93.6195 90.7652 93.6209C91.1586 93.6226 91.4756 93.9641 91.4738 94.3831Z" fill="white"/>
<path d="M93.6792 94.3932C93.6771 94.8126 93.3571 95.151 92.9644 95.1493C92.5713 95.1472 92.2544 94.806 92.2561 94.387C92.2578 93.9677 92.5779 93.6296 92.9706 93.6314C93.3633 93.6331 93.6806 93.9742 93.6792 94.3932Z" fill="white"/>
<path d="M95.884 94.4033C95.8823 94.8226 95.5622 95.161 95.1695 95.1593C94.7765 95.1572 94.4592 94.8164 94.4613 94.397C94.463 93.978 94.783 93.6396 95.1757 93.6414C95.5688 93.6431 95.8857 93.9842 95.884 94.4033Z" fill="white"/>
<path d="M98.0891 94.4141C98.0873 94.8331 97.7673 95.1715 97.3746 95.1698C96.9815 95.168 96.6642 94.8269 96.666 94.4075C96.668 93.9885 96.9881 93.6505 97.3808 93.6519C97.7738 93.6532 98.0908 93.9947 98.0891 94.4141Z" fill="white"/>
</g>
<path d="M94.9575 44.4629C95.4232 44.2674 95.7543 43.7875 95.7571 43.2218C95.7602 42.4807 95.1993 41.8773 94.5042 41.8738C93.8094 41.8707 93.2434 42.4689 93.2406 43.21C93.2382 43.7809 93.5717 44.2671 94.0423 44.4629C92.1057 44.7546 92.1936 46.8593 92.1936 46.8593L96.7726 46.8804C96.7726 46.8804 96.8771 44.7529 94.9575 44.4629Z" fill="#2F80ED"/>
<path opacity="0.1" d="M94.9575 44.4629C95.4232 44.2674 95.7543 43.7875 95.7571 43.2218C95.7602 42.4807 95.1993 41.8773 94.5042 41.8738C93.8094 41.8707 93.2434 42.4689 93.2406 43.21C93.2382 43.7809 93.5717 44.2671 94.0423 44.4629C92.1057 44.7546 92.1936 46.8593 92.1936 46.8593L96.7726 46.8804C96.7726 46.8804 96.8771 44.7529 94.9575 44.4629Z" fill="black"/>
<path d="M102.401 48.2572L86.0718 48.1821L86.0628 50.1346L102.392 50.2097L102.401 48.2572Z" fill="#2F80ED"/>
<path opacity="0.2" d="M102.401 48.2572L86.0718 48.1821L86.0628 50.1346L102.392 50.2097L102.401 48.2572Z" fill="white"/>
<path d="M42.3729 58.3621C42.3729 58.3655 42.3183 58.3714 42.2124 58.3801C42.0979 58.3884 41.9418 58.3998 41.7415 58.4143C41.5335 58.4178 41.2806 58.4631 40.9824 58.5157C40.8339 58.5458 40.6699 58.5579 40.5025 58.6074C40.3343 58.6541 40.1554 58.7036 39.9662 58.7562C39.2195 58.9918 38.3202 59.3662 37.4148 60.0218C36.5117 60.6723 35.6083 61.6027 34.9042 62.8165C34.5339 63.413 34.2655 64.1019 34.0243 64.826C33.8281 65.563 33.6544 66.346 33.6413 67.1712C33.6046 67.5826 33.6461 68.0006 33.6634 68.4255C33.6745 68.6379 33.7202 68.8483 33.7475 69.0625C33.7766 69.2767 33.808 69.4919 33.8689 69.7033C34.044 70.5634 34.3945 71.4066 34.8377 72.2145C35.7238 73.8366 37.213 75.2341 39.052 76.0441C39.972 76.4499 40.9893 76.669 42.0238 76.7115C43.0594 76.7773 44.1202 76.6108 45.1257 76.2652L45.4299 76.1534L45.47 76.1389L45.5063 76.1572C46.9952 76.9132 48.4553 77.6544 49.8701 78.3727L49.7403 78.4834C49.2743 77.0371 48.8227 75.6351 48.3892 74.2895L48.3726 74.2376L48.411 74.1992C49.5109 73.0979 50.2773 71.7599 50.7022 70.3901C51.1281 69.0161 51.2008 67.6169 51.0347 66.3346C50.8686 65.0496 50.4486 63.8811 49.8884 62.8978C49.3286 61.9117 48.6324 61.1107 47.9179 60.4851C47.1952 59.8641 46.4457 59.4433 45.7741 59.1212C45.0863 58.8333 44.4732 58.6489 43.9635 58.5506C43.7088 58.507 43.4822 58.4686 43.2847 58.4351C43.0888 58.4212 42.922 58.4098 42.784 58.4001C42.6553 58.3901 42.5539 58.3825 42.4771 58.3766C42.4082 58.3693 42.3729 58.3648 42.3729 58.3621C42.3729 58.3596 42.4082 58.359 42.4774 58.36C42.5542 58.3621 42.656 58.3652 42.7854 58.3686C42.9241 58.3742 43.0923 58.3811 43.2895 58.3891C43.4888 58.4188 43.7175 58.4527 43.9746 58.4911C44.4894 58.5811 45.1105 58.7579 45.8091 59.0409C46.4907 59.3582 47.2533 59.7769 47.9903 60.3997C48.7189 61.0266 49.43 61.8338 50.004 62.8307C50.578 63.8247 51.0112 65.0091 51.1856 66.3139C51.36 67.6155 51.2915 69.0383 50.8624 70.4378C50.4344 71.8333 49.6573 73.1989 48.5376 74.3241L48.5594 74.2338C48.9947 75.5784 49.4487 76.98 49.9168 78.4256L49.9853 78.637L49.787 78.5367C48.3716 77.8191 46.9114 77.079 45.4219 76.3237L45.4984 76.3275L45.1877 76.4416C44.1597 76.7953 43.0746 76.9644 42.0162 76.8973C40.9592 76.8534 39.9191 76.6281 38.9797 76.2122C37.1013 75.3829 35.5861 73.9532 34.6876 72.2986C34.2378 71.4745 33.8845 70.6146 33.7084 69.7389C33.6475 69.5237 33.6164 69.3047 33.5873 69.0867C33.5603 68.8691 33.515 68.6545 33.5043 68.4386C33.488 68.0068 33.4475 67.5816 33.4866 67.164C33.5036 66.3256 33.6831 65.5305 33.8866 64.7835C34.135 64.0493 34.4118 63.3521 34.7907 62.749C35.5121 61.5224 36.4345 60.5865 37.3545 59.9364C38.2766 59.281 39.1897 58.9129 39.9461 58.6859C40.1374 58.6361 40.3187 58.5887 40.489 58.5444C40.6582 58.4974 40.8239 58.4877 40.9737 58.4607C41.2751 58.4133 41.5297 58.3738 41.7391 58.3766C41.9404 58.3697 42.0975 58.3648 42.2127 58.3607C42.3186 58.3586 42.3729 58.359 42.3729 58.3621Z" fill="#2F80ED"/>
<path d="M44.3462 66.4408H43.7068L42.3114 64.4959V63.2195C42.3114 63.2195 41.3232 63.1586 41.4391 64.8302C41.5554 66.5017 41.4298 66.0761 41.4298 66.0761C41.4298 66.0761 39.3313 66.0841 39.1569 66.2664C39.0299 66.3989 38.9728 68.4836 38.9507 69.614C38.9396 70.1831 39.2887 70.7125 39.8181 70.8471C39.8932 70.8665 39.9693 70.8776 40.0441 70.8776C40.5676 70.8776 43.2418 70.452 43.2418 70.452H44.3462V66.4408Z" fill="#2F80ED"/>
<path d="M46.1765 66.0903L45.7834 70.4638H44.6884V66.1786L46.1765 66.0903Z" fill="#2F80ED"/>
<path d="M59.218 155.126V152.166L53.9135 152.13L53.8696 156.602L54.1983 156.627C55.6615 156.721 61.6445 156.859 62.6248 156.555C63.7185 156.217 59.218 155.126 59.218 155.126Z" fill="#2F80ED"/>
<path d="M62.7504 156.278C62.7504 156.328 60.7661 156.368 58.3191 156.368C55.8712 156.368 53.8876 156.328 53.8876 156.278C53.8876 156.228 55.8712 156.188 58.3191 156.188C60.7661 156.188 62.7504 156.228 62.7504 156.278Z" fill="#263238"/>
<path d="M59.3112 155.73C59.2676 155.708 59.3049 155.551 59.4188 155.397C59.5322 155.242 59.671 155.16 59.7056 155.195C59.7412 155.23 59.6686 155.36 59.5637 155.504C59.4589 155.646 59.3558 155.754 59.3112 155.73Z" fill="#263238"/>
<path d="M59.6495 155.925C59.6035 155.908 59.6274 155.733 59.7315 155.548C59.8353 155.363 59.9734 155.252 60.0118 155.282C60.0516 155.314 59.9848 155.464 59.8882 155.636C59.7917 155.808 59.6969 155.944 59.6495 155.925Z" fill="#263238"/>
<path d="M55.4858 156.265C55.465 156.279 55.3861 156.202 55.2712 156.072C55.1557 155.942 55.0045 155.76 54.8059 155.605C54.609 155.452 54.3921 155.375 54.2319 155.355C54.0706 155.333 53.9647 155.358 53.9557 155.332C53.9464 155.313 54.045 155.239 54.2364 155.227C54.4246 155.214 54.6907 155.286 54.9159 155.463C55.1398 155.637 55.283 155.846 55.374 155.996C55.4647 156.149 55.5055 156.251 55.4858 156.265Z" fill="#263238"/>
<path d="M59.3273 155.174C59.3533 155.216 59.2623 155.318 59.1107 155.374C58.9595 155.43 58.8232 155.41 58.8163 155.362C58.8083 155.312 58.9159 155.254 59.0484 155.205C59.1813 155.156 59.301 155.131 59.3273 155.174Z" fill="#263238"/>
<path d="M59.2443 154.888C59.2492 154.937 59.1076 154.98 58.9288 154.982C58.7495 154.985 58.607 154.946 58.6108 154.896C58.6143 154.846 58.7554 154.804 58.9263 154.802C59.0969 154.8 59.2395 154.838 59.2443 154.888Z" fill="#263238"/>
<path d="M72.2799 155.126L72.2802 152.166L66.9757 152.13L66.9318 156.557L67.2605 156.581C68.7237 156.676 74.7067 156.859 75.6873 156.555C76.7807 156.217 72.2799 155.126 72.2799 155.126Z" fill="#2F80ED"/>
<path d="M75.8126 156.285C75.8126 156.334 73.8286 156.375 71.3813 156.375C68.9334 156.375 66.9498 156.335 66.9498 156.285C66.9498 156.235 68.9334 156.195 71.3813 156.195C73.8283 156.195 75.8126 156.235 75.8126 156.285Z" fill="#263238"/>
<path d="M72.3733 155.73C72.3297 155.708 72.3671 155.551 72.4813 155.397C72.5948 155.242 72.7335 155.16 72.7681 155.195C72.8038 155.23 72.7311 155.36 72.6263 155.504C72.5211 155.646 72.4176 155.754 72.3733 155.73Z" fill="#263238"/>
<path d="M72.7117 155.925C72.6657 155.908 72.6896 155.733 72.7937 155.548C72.8975 155.363 73.0356 155.252 73.074 155.282C73.1137 155.314 73.047 155.464 72.9508 155.636C72.8539 155.808 72.7588 155.944 72.7117 155.925Z" fill="#263238"/>
<path d="M68.5476 156.265C68.5268 156.279 68.4479 156.202 68.3331 156.072C68.2179 155.942 68.0663 155.76 67.8677 155.605C67.6708 155.452 67.4542 155.375 67.2937 155.355C67.1324 155.333 67.0266 155.358 67.0176 155.332C67.0082 155.313 67.1068 155.239 67.2978 155.227C67.4861 155.214 67.7525 155.286 67.9774 155.463C68.2016 155.637 68.3441 155.846 68.4355 155.996C68.5268 156.149 68.5677 156.251 68.5476 156.265Z" fill="#263238"/>
<path d="M72.3895 155.174C72.4155 155.216 72.3245 155.318 72.1733 155.374C72.0217 155.43 71.8857 155.41 71.8785 155.362C71.8705 155.312 71.9781 155.254 72.1106 155.205C72.2435 155.156 72.3632 155.131 72.3895 155.174Z" fill="#263238"/>
<path d="M72.3061 154.888C72.311 154.937 72.1695 154.98 71.9906 154.982C71.8114 154.985 71.6691 154.946 71.6726 154.896C71.6761 154.846 71.8176 154.804 71.9885 154.802C72.1591 154.8 72.3013 154.838 72.3061 154.888Z" fill="#263238"/>
<path d="M91.821 67.278C91.6826 67.1354 91.3421 67.2025 91.3421 67.2025C91.3421 67.2025 91.4016 66.7981 91.3387 66.6026C91.276 66.4071 90.8401 66.4448 90.8401 66.4448C90.8401 66.4448 90.8131 66.2566 90.8511 65.9528C90.8608 65.8767 90.8186 65.8206 90.7498 65.7787C90.5432 65.6538 90.0979 65.6597 90.0979 65.6597C89.8308 65.4687 90.9117 63.9574 91.3124 63.4737C91.7085 62.9959 91.6418 62.6128 91.2843 62.6135C91.0407 62.6139 89.7789 64.0667 89.3938 64.5546C89.009 65.0421 87.9766 66.3988 87.9416 65.3161C87.9063 64.2335 87.4714 63.4145 87.1994 63.2751C86.9275 63.1356 86.6341 63.463 86.7846 63.7636C86.9064 64.0065 86.9832 64.4747 87.0268 64.8286C87.0628 65.1206 87.0507 65.4168 86.987 65.7037C86.8064 66.5147 86.6123 67.0413 86.5213 67.2665L86.4946 67.2517C86.4946 67.2517 78.9425 74.4931 78.3982 75.01C77.9083 75.4751 68.095 74.4599 66.129 74.2513C65.5917 74.1911 64.7959 74.0831 64.1063 74.1136C63.2534 74.1509 63.1019 74.272 62.2483 74.2834C59.6346 74.3184 57.4565 74.5727 55.8355 74.8471C53.8758 75.1785 52.2689 76.5736 51.6624 78.4666C49.6781 84.659 45.1891 99.3194 44.3891 107.556C43.7591 108.74 43.055 110.124 42.7688 110.902C42.2128 112.416 42.3477 112.468 42.5353 112.503C43.0383 112.596 43.6141 109.877 43.829 110.533C44.0442 111.19 42.7384 113.776 43.2681 113.852C43.9587 113.951 44.5092 111.094 44.5735 110.855C44.6362 110.624 44.9846 110.702 44.915 110.914C44.8147 111.219 43.8411 114.447 44.5185 114.551C44.8939 114.608 44.9344 113.924 44.9344 113.924C44.9344 113.924 45.623 110.837 45.9409 110.896C46.2641 110.957 45.9209 112.783 45.7614 113.391C45.6039 113.991 45.8257 114.31 46.1496 114.159C46.3703 114.056 46.9021 112.206 47.0454 111.602C47.189 110.997 47.5526 109.332 48.0412 110.299C48.5297 111.265 49.2691 111.825 49.5746 111.837C49.8798 111.848 50.0078 111.428 49.7445 111.219C49.5317 111.05 49.2646 110.658 49.0757 110.355C48.92 110.106 48.8058 109.832 48.7429 109.545C48.4996 108.438 48.5017 107.794 48.5017 107.794L48.4453 107.438C49.22 103.6 51.4534 92.3391 54.6615 85.1451L55.9826 87.8636L56.5559 89.876L53.0353 98.5741L68.0563 98.3762L65.817 89.7472L68.5376 80.7495H68.5372C71.4817 80.8152 79.0442 80.9249 80.3151 80.3568C81.8994 79.6489 90.0993 69.3124 90.0993 69.3124H90.0989C90.6529 68.8713 91.2162 68.3969 91.6317 67.9828C91.6324 67.9821 92.1213 67.5866 91.821 67.278Z" fill="#FFBE9D"/>
<path d="M52.3817 92.1699C52.8167 90.6825 55.056 83.3272 55.056 83.3272C55.056 83.3272 56.1549 89.3237 55.866 90.0458C55.5331 90.878 54.9214 91.8302 54.9214 91.8302C52.3817 95.6981 52.7149 97.6312 52.7149 97.6312L68.0566 97.1634C68.094 95.0179 66.8238 90.0296 66.5584 89.2348C66.2927 88.4401 67.1736 85.8316 67.1736 85.8316C67.1736 85.8316 68.9074 84.0708 68.8403 83.1646C68.705 81.3391 68.5379 80.7495 68.5379 80.7495L77.873 81.0931L77.5796 74.7588L64.1606 73.416C63.6963 74.7374 59.4706 74.09 59.4706 74.09C54.9086 74.2398 54.6325 75.0789 52.7298 76.5518C50.8275 78.0247 47.6945 90.6752 47.6945 90.6752L52.3817 92.1699Z" fill="#2F80ED"/>
<path d="M61.4549 90.674C61.4546 90.6978 61.1459 90.7183 60.6463 90.7148C60.147 90.7117 59.4567 90.6806 58.6983 90.6048C57.9395 90.528 57.2572 90.4211 56.7669 90.3245C56.277 90.2283 55.9784 90.147 55.9829 90.1235C55.9877 90.0982 56.294 90.1353 56.7873 90.1989C57.2807 90.2629 57.9617 90.3494 58.7163 90.4252C59.4706 90.501 60.155 90.5518 60.6511 90.5875C61.1477 90.6235 61.4552 90.648 61.4549 90.674Z" fill="#263238"/>
<path d="M62.505 89.3691C62.5116 89.3912 62.195 89.5113 61.6673 89.6545C61.14 89.7974 60.3992 89.9556 59.5702 90.0545C58.7409 90.1524 57.9835 90.1728 57.4371 90.1569C56.8905 90.1414 56.5548 90.0981 56.5562 90.0756C56.5573 90.049 56.8943 90.0465 57.4368 90.0296C57.9793 90.0126 58.7274 89.9729 59.5488 89.8756C60.3695 89.7777 61.1065 89.641 61.6379 89.5307C62.1694 89.4199 62.4977 89.3431 62.505 89.3691Z" fill="#263238"/>
<path d="M67.6656 83.5489C67.6895 83.5541 67.65 83.853 67.5608 84.3316C67.4715 84.8101 67.3314 85.4675 67.1546 86.1885C66.9774 86.91 66.7978 87.558 66.6556 88.0234C66.5134 88.4891 66.4103 88.7725 66.3864 88.7659C66.3622 88.759 66.4221 88.4638 66.5325 87.9905C66.6632 87.4504 66.8138 86.8304 66.9795 86.146C67.149 85.4626 67.3027 84.8436 67.4366 84.3042C67.5573 83.833 67.641 83.5437 67.6656 83.5489Z" fill="#263238"/>
<path d="M52.5426 91.2886C52.5295 91.3367 51.4714 91.09 50.1794 90.7374C48.8871 90.3845 47.8505 90.0603 47.8636 90.0118C47.8768 89.9637 48.9345 90.2108 50.2268 90.5634C51.5188 90.9159 52.5558 91.2408 52.5426 91.2886Z" fill="#263238"/>
<path d="M68.7071 80.6681C68.7071 80.6764 68.5649 80.6913 68.3099 80.6661C68.0563 80.6401 67.685 80.5809 67.2549 80.4145C66.8245 80.2533 66.3353 79.9837 65.8782 79.5762C65.4211 79.1703 65.0125 78.6118 64.752 77.9548C64.4873 77.2981 64.4004 76.6137 64.4419 76.0044C64.4821 75.3961 64.6433 74.8463 64.9156 74.4612C65.1852 74.0709 65.5426 73.882 65.7913 73.8166C65.9173 73.7831 66.019 73.7751 66.0868 73.7768C66.155 73.7786 66.1899 73.7862 66.1899 73.7917C66.1906 73.8087 66.0463 73.8007 65.8124 73.8834C65.5827 73.9657 65.2595 74.1599 65.0215 74.5325C64.5506 75.2729 64.4191 76.6248 64.9198 77.8884C65.1706 78.5202 65.5564 79.0565 65.9903 79.4537C66.4238 79.8526 66.8902 80.1249 67.3027 80.2965C68.1338 80.6411 68.7133 80.6297 68.7071 80.6681Z" fill="#263238"/>
<path d="M76.772 80.9664C76.7225 80.9664 76.6848 79.5388 76.6883 77.778C76.6917 76.0165 76.735 74.5896 76.7845 74.5896C76.8343 74.5899 76.8717 76.0172 76.8682 77.7783C76.8651 79.5391 76.8218 80.9667 76.772 80.9664Z" fill="#263238"/>
<path d="M64.0786 73.8019C64.1164 73.0296 64.1973 72.1573 64.1973 72.1573C64.1973 72.1573 66.1066 71.947 66.2225 69.9744C66.3384 68.0019 66.2225 63.4537 66.2225 63.4537L62.7448 61.6829L58.9194 64.7017L59.499 74.5631L63.0188 74.7869C63.5738 74.8222 64.0503 74.38 64.0786 73.8019Z" fill="#FFBE9D"/>
<path d="M64.4225 68.4142C64.428 68.4156 64.4284 68.4512 64.3924 68.499C64.3571 68.5453 64.2799 68.5979 64.1727 68.5959C63.9509 68.5851 63.7378 68.3402 63.6592 68.0412C63.6198 67.8893 63.6201 67.7354 63.6499 67.6028C63.6734 67.4724 63.7488 67.3413 63.8575 67.3056C63.9094 67.2863 63.9633 67.2883 64.0045 67.3091C64.045 67.3295 64.0699 67.3603 64.0827 67.3887C64.1087 67.4475 64.0886 67.4831 64.0834 67.4804C64.0755 67.48 64.0775 67.4475 64.0485 67.4105C64.0211 67.3728 63.9561 67.3385 63.8841 67.3759C63.8108 67.4091 63.7606 67.5029 63.7419 67.6229C63.7201 67.7419 63.7229 67.8786 63.7578 68.0139C63.827 68.2817 64.0128 68.5011 64.1779 68.5208C64.2595 68.5312 64.3273 68.4997 64.364 68.4699C64.4021 68.4388 64.4152 68.4108 64.4225 68.4142Z" fill="#EB996E"/>
<path d="M67.4082 62.389C67.1425 61.4811 66.1771 61.0299 65.2976 60.7808C63.9596 60.4016 62.5102 60.2338 61.203 60.7151C59.8958 61.1964 58.3236 62.043 58.3239 63.4872C57.5524 63.4236 57.1116 64.0996 56.8054 64.9373C56.6244 65.4321 56.5054 65.9829 56.4773 66.5286L56.4645 66.5244C56.3652 68.4146 55.8386 71.019 54.6131 72.4172C53.9363 73.1891 52.962 73.7223 52.5675 74.6838C52.2247 75.5194 52.4022 76.5069 52.0779 77.3504C51.7918 78.095 51.1583 78.6237 50.704 79.2714C49.7148 80.6824 49.6473 82.6757 50.3742 84.2504C51.1012 85.825 52.5416 86.9772 54.1405 87.5052C55.7393 88.0332 57.4811 87.9751 59.1083 87.5516C60.3096 87.2388 61.4784 86.7212 62.4358 85.9029C63.3932 85.0846 64.1278 83.9473 64.3468 82.6775C64.5904 81.264 64.1949 79.8288 63.9039 78.4251C62.9835 73.9842 63.2465 73.7534 64.408 69.6339C64.4343 69.5613 64.4506 69.4855 64.4707 69.4107C64.4859 69.3561 64.5008 69.3038 64.5163 69.2478L64.5139 69.2471C64.5464 69.0859 64.5675 68.9219 64.5682 68.7544C64.2319 68.8869 63.8257 68.7987 63.5676 68.5378C63.3098 68.2769 63.2136 67.8562 63.3309 67.5022C63.4659 67.095 63.8395 66.823 64.2233 66.6614C64.607 66.4998 65.0198 66.4199 65.3966 66.241C66.1955 65.8608 66.7494 65.0719 67.1262 64.2453C67.3909 63.6658 67.5878 63.0021 67.4082 62.389Z" fill="#263238"/>
<path d="M64.5592 68.4984C64.5713 68.4933 64.6384 68.622 64.7412 68.8403C64.844 69.0586 64.9817 69.3669 65.1349 69.7212L65.1637 69.7883L65.0903 69.7946C64.9751 69.8046 64.8585 69.8146 64.7381 69.825C64.4966 69.8406 64.2952 69.8696 64.0613 69.8672C64.0243 69.8606 63.9831 69.8267 63.972 69.7887C63.9596 69.7513 63.963 69.7198 63.9668 69.6925C63.9769 69.6382 63.989 69.598 63.9994 69.552L64.0606 69.307C64.1371 69.0081 64.1917 68.8247 64.2063 68.8282C64.2208 68.8316 64.1924 69.0209 64.135 69.3237L64.0869 69.571C64.0693 69.6548 64.0388 69.7797 64.0838 69.77C64.2561 69.7627 64.5014 69.734 64.7291 69.7171C64.8495 69.7074 64.9661 69.6984 65.0813 69.689L65.037 69.7624C64.8889 69.4063 64.7633 69.0925 64.6775 68.8669C64.5928 68.6417 64.5471 68.5036 64.5592 68.4984Z" fill="#2F80ED"/>
<path d="M52.7149 97.6311L68.0566 97.1633L74.7292 123.231L73.5002 153.132H65.38L66.3861 123.867L60.4515 105.721L61.366 154.291L53.1679 154.412L52.3042 108.758C52.2683 107.489 51.8506 104.627 52.006 103.368L52.7149 97.6311Z" fill="#263238"/>
<path d="M62.495 106.09C62.4919 106.113 62.204 106.099 61.7424 106.045C61.2808 105.991 60.6459 105.893 59.9505 105.754C59.255 105.614 58.6319 105.458 58.1852 105.329C57.7385 105.2 57.4676 105.103 57.4738 105.079C57.4876 105.029 58.6014 105.299 59.9861 105.577C61.3698 105.857 62.5015 106.038 62.495 106.09Z" fill="#455A64"/>
<path d="M73.4265 151.492C73.4265 151.542 71.5879 151.582 69.3209 151.582C67.0529 151.582 65.2149 151.542 65.2149 151.492C65.2149 151.442 67.0529 151.402 69.3209 151.402C71.5879 151.402 73.4265 151.442 73.4265 151.492Z" fill="#455A64"/>
<path d="M61.2926 153.029C61.2926 153.08 59.5093 153.12 57.3094 153.12C55.1092 153.12 53.3259 153.08 53.3259 153.029C53.3259 152.98 55.1092 152.939 57.3094 152.939C59.5093 152.939 61.2926 152.98 61.2926 153.029Z" fill="#455A64"/>
<path d="M60.2366 152.905C60.1868 152.906 59.9713 142.292 59.755 129.203C59.5388 116.108 59.4038 105.496 59.4536 105.495C59.5035 105.494 59.719 116.105 59.9353 129.2C60.1515 142.29 60.2865 152.904 60.2366 152.905Z" fill="#455A64"/>
<path d="M72.3359 151.492C72.3328 151.492 72.3318 151.444 72.3321 151.351C72.3338 151.249 72.3366 151.112 72.3397 150.936C72.3505 150.562 72.366 150.027 72.3857 149.343C72.4342 147.95 72.5034 145.951 72.5892 143.485C72.7785 138.531 73.0397 131.703 73.3282 124.161C73.331 124.091 73.3338 124.022 73.3362 123.957L73.339 123.983C71.5207 116.702 69.8772 110.121 68.6856 105.35C68.1009 102.973 67.6272 101.047 67.2971 99.7055C67.1386 99.046 67.0151 98.5302 66.9286 98.1696C66.8899 98.0004 66.8598 97.8679 66.8373 97.7693C66.8176 97.6787 66.8089 97.6323 66.812 97.6316C66.8148 97.6309 66.8293 97.6762 66.8549 97.7652C66.8816 97.8624 66.9175 97.9939 66.9636 98.1613C67.058 98.5201 67.1926 99.0332 67.3649 99.6893C67.7082 101.027 68.2005 102.948 68.8084 105.319C70.0132 110.087 71.6751 116.664 73.5134 123.939L73.5165 123.952L73.5161 123.965C73.5137 124.029 73.5106 124.099 73.5082 124.168C73.1992 131.71 72.9193 138.536 72.7162 143.49C72.6065 145.955 72.5176 147.953 72.4556 149.346C72.421 150.03 72.3944 150.564 72.3757 150.938C72.365 151.113 72.3567 151.25 72.3505 151.352C72.3439 151.445 72.339 151.492 72.3359 151.492Z" fill="#455A64"/>
<path d="M69.6893 123.349C69.6976 123.398 68.8946 123.577 67.8953 123.748C67.1493 123.877 66.5051 123.965 66.2238 123.981L66.2234 123.91C66.3169 123.936 66.367 123.956 66.3649 123.968C66.3632 123.981 66.3089 123.985 66.2124 123.981L66.0027 123.972L66.212 123.91C66.4826 123.831 67.1192 123.699 67.8652 123.571C68.8638 123.399 69.6807 123.3 69.6893 123.349Z" fill="#455A64"/>
<path d="M69.534 124.344C69.5271 124.394 68.8064 124.338 67.9189 124.27C67.0314 124.2 66.3107 124.143 66.3117 124.093C66.3127 124.044 67.0397 124.02 67.9331 124.09C68.8258 124.159 69.5406 124.295 69.534 124.344Z" fill="#455A64"/>
<path opacity="0.2" d="M52.6467 98.1821C53.0176 98.7042 53.5467 98.8872 54.1615 98.9879C54.776 99.0886 55.4033 99.0215 56.022 98.9526C59.9819 98.5132 64.1782 98.108 68.0566 97.1631C63.0364 97.4444 57.735 97.3496 52.7149 97.6309C52.7149 97.6309 52.672 97.9762 52.6619 98.0592" fill="black"/>
<g opacity="0.2">
<path d="M57.8216 105.258L60.6498 116.238L60.4519 105.721L57.8216 105.258Z" fill="black"/>
</g>
</svg>
