<svg width="182" height="182" viewBox="0 0 182 182" fill="none" xmlns="http://www.w3.org/2000/svg">
<path d="M182 139.193H0V139.284H182V139.193Z" fill="#EBEBEB"/>
<path d="M114.903 141.672H105.636V141.763H114.903V141.672Z" fill="#EBEBEB"/>
<path d="M165.782 143.641H143.82V143.732H165.782V143.641Z" fill="#EBEBEB"/>
<path d="M103.664 141.717H80.9751V141.808H103.664V141.717Z" fill="#EBEBEB"/>
<path d="M66.2629 144.44H61.516V144.531H66.2629V144.44Z" fill="#EBEBEB"/>
<path d="M92.4866 144.44H70.8737V144.531H92.4866V144.44Z" fill="#EBEBEB"/>
<path d="M33.0923 142.904H19.0951V142.995H33.0923V142.904Z" fill="#EBEBEB"/>
<path d="M86.2731 122.959H15.9851C14.8396 122.959 13.9073 122.027 13.9073 120.882V22.0802C13.9073 20.9347 14.8396 20.0025 15.9851 20.0025H86.2731C87.4182 20.0025 88.3504 20.9347 88.3504 22.0802V120.882C88.3504 122.027 87.4182 122.959 86.2731 122.959ZM15.9851 20.0939C14.8894 20.0939 13.9983 20.985 13.9983 22.0806V120.882C13.9983 121.978 14.8894 122.869 15.9851 122.869H86.2731C87.3684 122.869 88.2594 121.978 88.2594 120.882V22.0802C88.2594 20.985 87.3684 20.0935 86.2731 20.0935L15.9851 20.0939Z" fill="#EBEBEB"/>
<path d="M165.005 122.959H94.7172C93.5717 122.959 92.6398 122.027 92.6398 120.882V22.0802C92.6398 20.9347 93.572 20.0025 94.7172 20.0025H165.005C166.151 20.0025 167.083 20.9347 167.083 22.0802V120.882C167.083 122.027 166.151 122.959 165.005 122.959ZM94.7172 20.0939C93.6219 20.0939 92.7308 20.985 92.7308 22.0806V120.882C92.7308 121.978 93.6219 122.869 94.7172 122.869H165.005C166.1 122.869 166.992 121.978 166.992 120.882V22.0802C166.992 20.985 166.1 20.0935 165.005 20.0935L94.7172 20.0939Z" fill="#EBEBEB"/>
<path d="M71.3302 107.623H47.1602L45.6929 90.6968H69.8629L71.3302 107.623Z" fill="#E6E6E6"/>
<path d="M72.582 107.623H48.4124L46.9451 90.6968H71.1147L72.582 107.623Z" fill="#F0F0F0"/>
<path d="M51.716 103.988L50.9101 94.3313H67.8107L68.6162 103.988H51.716Z" fill="white"/>
<path d="M76.764 107.623H73.928V139.193H76.764V107.623Z" fill="#E6E6E6"/>
<path d="M77.659 107.623H75.6894V139.193H77.659V107.623Z" fill="#F0F0F0"/>
<path d="M50.21 111.107H77.6589V107.622H50.21V111.107Z" fill="#F0F0F0"/>
<path d="M51.1802 111.107H48.3443V139.192H51.1802V111.107Z" fill="#E6E6E6"/>
<path d="M52.0753 111.107H50.1057V139.192H52.0753V111.107Z" fill="#F0F0F0"/>
<path d="M30.9939 111.107H28.1579V139.192H30.9939V111.107Z" fill="#E6E6E6"/>
<path d="M31.8889 111.107H29.9193V139.192H31.8889V111.107Z" fill="#F0F0F0"/>
<path d="M58.8177 111.107H55.9817V139.192H58.8177V111.107Z" fill="#E6E6E6"/>
<path d="M59.7127 111.107H57.7431V139.192H59.7127V111.107Z" fill="#F0F0F0"/>
<path d="M50.2098 107.623H28.1579V111.107H50.2098V107.623Z" fill="#E6E6E6"/>
<path d="M132.437 28.9067H47.1409V76.3927H132.437V28.9067Z" fill="#E0E0E0"/>
<path d="M137.121 28.9067H47.5715V76.3927H137.121V28.9067Z" fill="#F5F5F5"/>
<path d="M135.658 74.9292V30.3694L49.0349 30.3694L49.0349 74.9292L135.658 74.9292Z" fill="white"/>
<path d="M84.108 74.9294L100.463 30.3696H73.4719L57.1174 74.9294H84.108Z" fill="#F5F5F5"/>
<path d="M110.089 74.9294L126.443 30.3696H106.082L89.7278 74.9294H110.089Z" fill="#F5F5F5"/>
<path d="M159.472 93.8403H152.222V139.193H159.472V93.8403Z" fill="#E6E6E6"/>
<path d="M157.566 139.193H159.472V135.701H155.567L157.566 139.193Z" fill="#FAFAFA"/>
<path d="M92.6213 93.8403H85.3707V139.193H92.6213V93.8403Z" fill="#E6E6E6"/>
<path d="M159.472 93.8403H90.9574V138.251H159.472V93.8403Z" fill="#FAFAFA"/>
<path d="M158.175 108.17H92.2543V95.6268H158.175V108.17ZM92.6183 107.806H157.811V95.9908H92.6183V107.806Z" fill="#E6E6E6"/>
<path d="M146.571 101.717H105.14C103.215 101.717 101.363 100.164 100.058 97.4585L99.9322 97.1975H151.779L151.653 97.4585C150.348 100.164 148.495 101.717 146.571 101.717ZM100.515 97.5615C101.747 99.9751 103.422 101.353 105.14 101.353H146.571C148.289 101.353 149.964 99.9751 151.195 97.5615H100.515Z" fill="#E6E6E6"/>
<path d="M92.864 139.193H90.9574V135.701H94.8628L92.864 139.193Z" fill="#FAFAFA"/>
<path d="M158.175 122.317H92.2543V109.774H158.175V122.317ZM92.6183 121.953H157.811V110.138H92.6183V121.953Z" fill="#E6E6E6"/>
<path d="M146.571 115.864H105.14C103.215 115.864 101.363 114.312 100.058 111.606L99.9322 111.345H151.779L151.653 111.606C150.348 114.312 148.495 115.864 146.571 115.864ZM100.515 111.709C101.747 114.122 103.422 115.5 105.14 115.5H146.571C148.289 115.5 149.964 114.122 151.195 111.709H100.515Z" fill="#E6E6E6"/>
<path d="M158.175 136.464H92.2543V123.921H158.175V136.464ZM92.6183 136.1H157.811V124.285H92.6183V136.1Z" fill="#E6E6E6"/>
<path d="M146.571 130.011H105.14C103.215 130.011 101.363 128.459 100.058 125.753L99.9322 125.492H151.779L151.653 125.753C150.348 128.459 148.495 130.011 146.571 130.011ZM100.515 125.856C101.747 128.27 103.422 129.647 105.14 129.647H146.571C148.289 129.647 149.964 128.27 151.195 125.856H100.515Z" fill="#E6E6E6"/>
<path d="M44.0378 99.839V100.719H43.4743L43.0092 107.623H36.1532L35.6884 100.719H35.1249V99.839H44.0378Z" fill="#E6E6E6"/>
<path d="M41.7814 82.7048C41.2179 78.5927 35.668 77.4181 28.6257 77.2674C21.9241 77.1243 19.7776 74.7529 19.7776 74.7529C19.7776 74.7529 19.7987 84.3548 29.4552 87.8314C38.6248 91.1325 42.3459 86.8242 41.7814 82.7048Z" fill="#E6E6E6"/>
<path d="M38.358 92.0279C38.4755 90.3364 41.176 87.2282 47.6716 88.6413C52.3687 89.663 54.1148 87.2282 54.1148 87.2282C54.1148 87.2282 53.6798 94.1002 46.616 96.1663C39.9082 98.1282 38.1508 95.0026 38.358 92.0279Z" fill="#E6E6E6"/>
<path d="M39.8398 102.431C39.9108 102.431 39.9814 102.401 40.0313 102.342C40.5023 101.786 40.1168 100.453 39.5839 98.6083C38.8996 96.2409 38.0482 93.295 38.7693 91.1554C39.1762 89.9477 39.68 88.883 40.1667 87.8529C41.1862 85.6965 42.0668 83.8343 41.3322 81.8895C41.2834 81.7599 41.1389 81.6947 41.0093 81.7435C40.8801 81.7923 40.8146 81.9368 40.8634 82.0664C41.5226 83.8121 40.7243 85.5007 39.7135 87.6385C39.2432 88.6326 38.7107 89.7595 38.2943 90.9949C37.5229 93.283 38.3987 96.3126 39.1023 98.747C39.5173 100.183 39.9461 101.667 39.6487 102.018C39.5595 102.124 39.5726 102.282 39.6782 102.371C39.7251 102.411 39.7827 102.431 39.8398 102.431Z" fill="#E6E6E6"/>
<path d="M91 155.632C129.978 155.632 161.576 153.787 161.576 151.511C161.576 149.234 129.978 147.389 91 147.389C52.0222 147.389 20.4244 149.234 20.4244 151.511C20.4244 153.787 52.0222 155.632 91 155.632Z" fill="#F5F5F5"/>
<path d="M90.9854 131.421H39.2974L36.4684 48.2959H88.1564L90.9854 131.421Z" fill="#407BFF"/>
<path d="M93.5651 128.842H41.8771L39.0477 45.7162H90.7357L93.5651 128.842Z" fill="#407BFF"/>
<path opacity="0.3" d="M93.5651 128.842H41.8771L39.0477 45.7162H90.7357L93.5651 128.842Z" fill="white"/>
<path d="M76.2516 79.9272C81.7863 74.2978 81.5515 65.0921 75.7271 59.3657C69.9027 53.6393 60.6943 53.5607 55.1596 59.1902C49.6249 64.8196 49.8598 74.0253 55.6842 79.7517C61.5086 85.4781 70.7169 85.5567 76.2516 79.9272Z" fill="#407BFF"/>
<path d="M77.7027 69.5564C77.7733 71.6286 77.314 73.5742 76.4473 75.2723C74.5505 79.0124 70.6735 81.556 66.1115 81.556C61.5499 81.556 57.4996 79.0124 55.348 75.2723C54.3659 73.5746 53.7741 71.629 53.7035 69.5564C53.4778 62.9279 58.6666 57.5568 65.2947 57.5568C71.9228 57.5568 77.477 62.9279 77.7027 69.5564Z" fill="white"/>
<path opacity="0.6" d="M76.4469 75.2723C74.5501 79.0124 70.6731 81.556 66.1111 81.556C61.5495 81.556 57.4993 79.0124 55.3477 75.2723C58.3001 73.2543 61.8851 72.076 65.7883 72.076C69.6922 72.076 73.3573 73.2539 76.4469 75.2723Z" fill="#407BFF"/>
<path opacity="0.6" d="M69.4431 69.2631C71.4779 67.1934 71.3915 63.809 69.2502 61.7038C67.1089 59.5985 63.7235 59.5696 61.6887 61.6392C59.6539 63.7088 59.7403 67.0933 61.8816 69.1985C64.0229 71.3038 67.4083 71.3327 69.4431 69.2631Z" fill="#407BFF"/>
<path d="M83.1827 98.739H50.2102L49.987 92.187H82.96L83.1827 98.739Z" fill="white"/>
<path d="M83.5817 110.45H50.6087L50.3856 103.898H83.3585L83.5817 110.45Z" fill="white"/>
<path d="M70.8555 104.799L62.9098 105.879C62.5832 105.923 62.3685 106.221 62.4304 106.537L63.4736 111.861C63.5358 112.179 63.8529 112.402 64.1794 112.358L72.1251 111.278C72.4516 111.233 72.6668 110.938 72.6045 110.62L71.5613 105.295C71.4994 104.979 71.182 104.754 70.8555 104.799ZM68.5725 110.193L67.134 110.388L66.9891 108.67C66.683 108.535 66.4613 108.263 66.3987 107.943C66.2968 107.423 66.6484 106.941 67.1824 106.868C67.7146 106.795 68.2318 107.16 68.3341 107.68C68.3967 108 68.29 108.316 68.0516 108.526L68.5725 110.193Z" fill="#407BFF"/>
<path d="M70.0715 104.513C69.781 104.552 69.5007 104.355 69.4454 104.072L69.3431 103.551C69.0621 102.117 67.6905 101.034 66.2058 101.163C64.6187 101.301 63.5548 102.703 63.8518 104.218L63.969 104.817C64.0243 105.1 63.834 105.361 63.5435 105.401C63.253 105.44 62.9727 105.243 62.9174 104.96L62.818 104.452C62.4264 102.453 63.6847 100.531 65.7206 100.176C67.8609 99.8037 69.9714 101.247 70.3794 103.331L70.4966 103.929C70.5519 104.212 70.3616 104.473 70.0715 104.513Z" fill="#407BFF"/>
<path d="M78.1388 119.625H56.6759L56.531 115.36H77.9936L78.1388 119.625Z" fill="#407BFF"/>
<path d="M67.7834 95.463C67.8059 96.1247 67.2876 96.6613 66.6258 96.6613C65.9641 96.6613 65.4093 96.1247 65.3868 95.463C65.3642 94.8012 65.8825 94.2647 66.5443 94.2647C67.206 94.2647 67.7608 94.8012 67.7834 95.463Z" fill="#263238"/>
<path d="M62.6244 95.463C62.6469 96.1247 62.1286 96.6613 61.4669 96.6613C60.8051 96.6613 60.2504 96.1247 60.2278 95.463C60.2052 94.8012 60.7236 94.2647 61.3853 94.2647C62.0471 94.2647 62.6018 94.8012 62.6244 95.463Z" fill="#263238"/>
<path d="M57.4654 95.463C57.488 96.1247 56.9696 96.6613 56.3079 96.6613C55.6461 96.6613 55.0914 96.1247 55.0688 95.463C55.0463 94.8012 55.5646 94.2647 56.2264 94.2647C56.8881 94.2647 57.4428 94.8012 57.4654 95.463Z" fill="#263238"/>
<path d="M72.9423 95.463C72.9649 96.1247 72.4466 96.6613 71.7848 96.6613C71.1231 96.6613 70.5683 96.1247 70.5457 95.463C70.5232 94.8012 71.0415 94.2647 71.7033 94.2647C72.365 94.2647 72.9198 94.8012 72.9423 95.463Z" fill="#263238"/>
<path d="M78.1013 95.463C78.1239 96.1247 77.6055 96.6613 76.9438 96.6613C76.282 96.6613 75.7273 96.1247 75.7047 95.463C75.6821 94.8012 76.2005 94.2647 76.8622 94.2647C77.524 94.2647 78.0791 94.8012 78.1013 95.463Z" fill="#263238"/>
<path d="M121.543 63.4383C122.028 64.2154 122.43 64.9613 122.846 65.7355C123.261 66.5021 123.636 67.2909 124.004 68.0855C124.728 69.6809 125.375 71.3269 125.86 73.0836C125.924 73.2991 125.974 73.5276 126.028 73.7515L126.107 74.0882L126.147 74.2564L126.194 74.5337C126.299 75.2734 126.207 75.8765 126.081 76.4087C125.82 77.4694 125.399 78.3153 124.948 79.1227C124.028 80.721 122.953 82.0824 121.714 83.3717L120.181 82.2112C120.936 80.7771 121.683 79.2745 122.233 77.8298C122.499 77.1112 122.723 76.3799 122.788 75.7797C122.82 75.4845 122.799 75.2308 122.758 75.1365L122.614 74.6917C122.554 74.509 122.501 74.3274 122.429 74.1432C121.905 72.6744 121.237 71.1991 120.511 69.7446C119.795 68.2955 119.002 66.8202 118.221 65.4432L121.543 63.4383Z" fill="#FF8B7B"/>
<path d="M120.57 81.6907L118.899 82.5778L120.82 84.8273C120.82 84.8273 122.019 84.0159 122.074 82.7769L120.57 81.6907Z" fill="#FF8B7B"/>
<path d="M116.65 83.965L118.708 85.5982L120.82 84.8276L118.898 82.5781L116.65 83.965Z" fill="#FF8B7B"/>
<path d="M109.619 51.5293C109.578 51.7317 109.437 51.874 109.305 51.8471C109.173 51.8201 109.099 51.6345 109.14 51.4321C109.181 51.2297 109.322 51.0874 109.454 51.1143C109.586 51.1413 109.66 51.3273 109.619 51.5293Z" fill="#263238"/>
<path d="M109.456 51.878C109.456 51.878 108.758 52.9518 108.137 53.4122C108.428 53.8192 109.067 53.7901 109.067 53.7901L109.456 51.878Z" fill="#FF5652"/>
<path d="M108.8 59.0182L108.816 56.6326L111.975 57.0144C111.975 57.0144 111.921 59.0659 110.157 59.6691L108.8 59.0182Z" fill="#FF8B7B"/>
<path d="M109.708 54.9145L111.933 55.5537L111.976 57.0144L108.816 56.6326L109.708 54.9145Z" fill="#FF8B7B"/>
<path opacity="0.2" d="M111.934 55.5537L109.71 54.913L109.276 55.7429C109.331 57.1516 110.19 58.3091 111.329 58.8297C111.948 58.0179 111.974 57.0133 111.974 57.0133L111.934 55.5537Z" fill="black"/>
<path d="M110.588 50.5563C110.618 50.5563 110.647 50.5458 110.671 50.5239C110.72 50.4784 110.723 50.4016 110.677 50.3525C110.222 49.8596 109.669 49.9473 109.645 49.9514C109.579 49.9626 109.535 50.0252 109.546 50.0911C109.557 50.157 109.621 50.2011 109.686 50.1905C109.704 50.1876 110.136 50.1243 110.499 50.5174C110.523 50.5432 110.556 50.5563 110.588 50.5563Z" fill="#263238"/>
<path d="M115.239 55.2126C114.872 57.0858 114.65 59.6807 115.961 60.9307C115.961 60.9307 115.448 62.8308 111.968 62.8308C108.141 62.8308 110.127 61.1633 110.127 61.1633C111.718 60.6697 111.704 58.8577 111.34 57.4021L115.239 55.2126Z" fill="#FF8B7B"/>
<path d="M116.677 62.1832C117.018 61.7006 117.005 60.1758 116.641 59.9068C116.053 59.4725 113.54 59.3728 110.155 60.151C110.52 61.6281 109.739 62.4023 109.739 62.4023L116.677 62.1832Z" fill="#407BFF"/>
<path d="M128.053 148.598C127.796 148.654 127.54 148.669 127.416 148.563C127.364 148.519 127.312 148.434 127.357 148.282C127.381 148.201 127.434 148.141 127.514 148.103C127.859 147.938 128.654 148.262 128.687 148.276C128.71 148.285 128.724 148.306 128.725 148.33C128.726 148.354 128.712 148.376 128.691 148.386C128.569 148.445 128.311 148.543 128.053 148.598ZM127.637 148.189C127.611 148.195 127.587 148.203 127.566 148.213C127.518 148.236 127.488 148.27 127.474 148.316C127.441 148.425 127.482 148.46 127.495 148.471C127.633 148.588 128.144 148.48 128.504 148.336C128.26 148.25 127.864 148.14 127.637 148.189Z" fill="#407BFF"/>
<path d="M128.677 148.391C128.667 148.393 128.657 148.393 128.647 148.39C128.358 148.306 127.739 147.866 127.731 147.575C127.73 147.523 127.748 147.427 127.886 147.379C127.976 147.348 128.066 147.355 128.155 147.401C128.497 147.575 128.713 148.284 128.722 148.315C128.729 148.336 128.723 148.359 128.707 148.375C128.699 148.383 128.689 148.389 128.677 148.391ZM127.953 147.486C127.944 147.488 127.935 147.491 127.926 147.494C127.851 147.52 127.852 147.556 127.852 147.572C127.857 147.744 128.266 148.089 128.565 148.229C128.49 148.024 128.319 147.621 128.1 147.509C128.05 147.483 128.001 147.476 127.953 147.486Z" fill="#407BFF"/>
<path d="M109.151 149.028C108.822 149.028 108.505 148.983 108.398 148.835C108.361 148.783 108.332 148.695 108.404 148.57C108.444 148.5 108.508 148.452 108.596 148.428C109.022 148.312 109.917 148.822 109.955 148.844C109.976 148.856 109.988 148.881 109.984 148.906C109.98 148.931 109.961 148.951 109.936 148.956C109.773 148.988 109.457 149.028 109.151 149.028ZM108.745 148.531C108.702 148.531 108.662 148.536 108.627 148.545C108.571 148.56 108.533 148.588 108.509 148.63C108.466 148.705 108.481 148.743 108.497 148.764C108.616 148.929 109.263 148.933 109.739 148.866C109.502 148.744 109.044 148.531 108.745 148.531Z" fill="#407BFF"/>
<path d="M109.924 148.957C109.916 148.957 109.907 148.955 109.899 148.952C109.59 148.813 108.978 148.259 109.025 147.97C109.036 147.902 109.084 147.817 109.251 147.8C109.375 147.787 109.488 147.823 109.587 147.904C109.913 148.172 109.982 148.861 109.984 148.891C109.987 148.912 109.977 148.933 109.959 148.946C109.949 148.953 109.936 148.957 109.924 148.957ZM109.299 147.919C109.287 147.919 109.275 147.92 109.263 147.921C109.154 147.932 109.147 147.975 109.145 147.989C109.117 148.163 109.532 148.598 109.848 148.787C109.815 148.586 109.724 148.173 109.51 147.998C109.446 147.945 109.376 147.919 109.299 147.919Z" fill="#407BFF"/>
<path d="M112.74 148.896H110.179L109.924 142.968H112.484L112.74 148.896Z" fill="#FF8B7B"/>
<path d="M131.531 147.711L129.029 148.253L126.517 142.731L129.019 142.189L131.531 147.711Z" fill="#FF8B7B"/>
<path d="M128.788 148.002L131.599 147.393C131.702 147.371 131.806 147.423 131.85 147.518L132.825 149.635C132.927 149.855 132.793 150.113 132.555 150.159C131.57 150.355 131.081 150.401 129.845 150.668C129.084 150.833 127.367 151.251 126.317 151.479C125.29 151.701 124.904 150.697 125.314 150.51C127.151 149.671 127.918 148.932 128.415 148.243C128.505 148.119 128.639 148.034 128.788 148.002Z" fill="#263238"/>
<path d="M110.196 148.6H112.992C113.097 148.6 113.187 148.673 113.21 148.775L113.715 151.051C113.768 151.286 113.589 151.51 113.347 151.506C112.338 151.489 110.881 151.429 109.613 151.429C108.131 151.429 106.851 151.51 105.113 151.51C104.061 151.51 103.77 150.448 104.21 150.351C106.213 149.913 107.848 149.866 109.579 148.799C109.767 148.683 109.975 148.6 110.196 148.6Z" fill="#263238"/>
<path d="M120.545 61.5095C122.944 62.0595 124.923 68.1856 124.923 68.1856L120.104 71.8583C120.104 71.8583 118.336 70.1909 117.549 67.1267C116.724 63.9159 118.091 60.9471 120.545 61.5095Z" fill="#407BFF"/>
<path opacity="0.4" d="M120.545 61.5095C122.944 62.0595 124.923 68.1856 124.923 68.1856L120.104 71.8583C120.104 71.8583 118.336 70.1909 117.549 67.1267C116.724 63.9159 118.091 60.9471 120.545 61.5095Z" fill="black"/>
<path d="M107.927 68.8204C107.328 69.4665 106.731 70.0412 106.113 70.6327C105.806 70.9269 105.492 71.2151 105.171 71.498L104.688 71.9213L104.566 72.0265C104.507 72.0771 104.436 72.1372 104.359 72.1958C104.199 72.3141 104.023 72.452 103.656 72.6111C103.461 72.6861 103.21 72.7854 102.77 72.7942C102.561 72.7974 102.277 72.761 102.006 72.6584C101.729 72.5557 101.461 72.3781 101.278 72.1954C100.897 71.8128 100.782 71.4772 100.707 71.2526C100.637 71.0211 100.617 70.8559 100.603 70.7114C100.58 70.4289 100.595 70.2378 100.61 70.0609C100.627 69.8862 100.651 69.7351 100.678 69.5924C100.785 69.0311 100.936 68.5783 101.101 68.1248C101.267 67.676 101.451 67.245 101.666 66.8093C101.897 66.3456 102.121 66.0092 102.343 65.6216C103.242 64.1182 104.298 62.7452 105.42 61.4512C106.565 60.1659 107.768 58.9909 109.151 57.9142L110.491 59.2927C109.549 60.5518 108.624 61.9011 107.769 63.2319C106.915 64.5725 106.122 65.9375 105.44 67.3254C105.283 67.6683 105.089 68.044 104.98 68.3308C104.852 68.6442 104.735 68.9809 104.638 69.3125C104.543 69.6401 104.466 69.9815 104.432 70.232C104.424 70.2924 104.42 70.3452 104.42 70.3758C104.418 70.4038 104.426 70.4194 104.422 70.3419C104.418 70.2997 104.414 70.2367 104.375 70.1035C104.331 69.9768 104.262 69.7369 103.955 69.4268C103.807 69.2816 103.585 69.1294 103.355 69.0472C103.133 68.9602 102.9 68.9347 102.742 68.9354C102.406 68.9431 102.255 69.0118 102.156 69.0475C101.977 69.1247 101.974 69.1454 101.975 69.1374L102.115 69.01L102.552 68.6096L103.423 67.7946C103.998 67.2519 104.578 66.6731 105.125 66.1359L107.927 68.8204Z" fill="#FF8B7B"/>
<path opacity="0.2" d="M118.488 66.0143C119.792 67.304 120.217 69.6529 120.318 71.6949L120.105 71.8587C120.105 71.8587 118.335 70.1894 117.547 67.126C117.498 66.9345 117.457 66.7427 117.422 66.5545L118.488 66.0143Z" fill="black"/>
<path d="M105.381 64.0767C104.857 66.8428 104.53 72.5226 106.05 83.771H119.744C119.838 81.6689 118.517 71.4143 120.545 61.5094C120.545 61.5094 118.197 61.0384 115.961 60.9307C114.211 60.8462 111.677 60.7906 110.139 60.9311C109.497 60.9897 108.867 61.0825 108.305 61.1818C106.825 61.4436 105.66 62.5993 105.381 64.0767Z" fill="#407BFF"/>
<path opacity="0.4" d="M105.381 64.0767C104.857 66.8428 104.53 72.5226 106.05 83.771H119.744C119.838 81.6689 118.517 71.4143 120.545 61.5094C120.545 61.5094 118.197 61.0384 115.961 60.9307C114.211 60.8462 111.677 60.7906 110.139 60.9311C109.497 60.9897 108.867 61.0825 108.305 61.1818C106.825 61.4436 105.66 62.5993 105.381 64.0767Z" fill="black"/>
<path opacity="0.2" d="M107.476 68.1648L105.002 67.5722C104.925 69.0708 104.918 70.9283 105.03 73.2252C106.17 71.9286 107.623 69.9073 107.476 68.1648Z" fill="black"/>
<path opacity="0.2" d="M109.925 142.969L110.056 146.025H112.617L112.486 142.969H109.925Z" fill="black"/>
<path opacity="0.2" d="M129.02 142.19L126.517 142.732L127.813 145.579L130.316 145.037L129.02 142.19Z" fill="black"/>
<path d="M116.456 52.4724C115.798 54.9269 115.538 56.3967 114.023 57.4173C111.745 58.9523 108.909 57.1906 108.82 54.5891C108.74 52.2475 109.829 48.6271 112.463 48.1324C115.058 47.6454 117.114 50.018 116.456 52.4724Z" fill="#FF8B7B"/>
<path d="M110.71 52.5667C110.588 52.2376 110.021 49.7013 110.553 49.0428C111.086 48.3843 117.145 48.8579 118.042 49.7399C119.528 51.2028 118.497 52.5085 116.869 54.1931C115.645 55.4598 115.598 56.8877 114.981 57.097C113.899 57.4643 112.222 57.1193 111.885 55.9643C111.549 54.8097 110.71 52.5667 110.71 52.5667Z" fill="#263238"/>
<path d="M117.308 46.8548C115.166 45.9426 111.15 46.9516 108.981 46.4289C108.904 47.5519 109.581 49.3526 111.75 49.8367C111.75 49.8367 114.828 50.4369 117.21 50.3401C119.591 50.2433 119.127 47.6294 117.308 46.8548Z" fill="#263238"/>
<path d="M117.643 49.8174C117.643 49.8174 118.967 49.9666 119.907 49.3828C120.31 50.3507 118.108 50.6164 117.643 49.8174Z" fill="#263238"/>
<path d="M111.877 52.6675C111.837 53.3318 111.529 53.9568 111.158 54.366C110.6 54.9807 110.017 54.5982 109.918 53.8491C109.829 53.1749 110.012 52.0425 110.695 51.7037C111.367 51.3691 111.922 51.9079 111.877 52.6675Z" fill="#FF8B7B"/>
<path d="M110.907 83.771C110.907 83.771 113.813 103.337 115.408 110.667C117.155 118.695 126.521 145.252 126.521 145.252L131.104 144.26C131.104 144.26 124.555 122.617 123.089 111.395C121.963 102.775 119.744 83.771 119.744 83.771H110.907Z" fill="#407BFF"/>
<path d="M125.424 143.722C125.404 143.727 126.278 145.38 126.278 145.38L131.435 144.263L131 142.713L125.424 143.722Z" fill="#263238"/>
<path opacity="0.3" d="M112.744 90.7423C116.103 91.4011 115.748 103.93 115.344 110.374C114.375 105.819 112.956 97.0537 111.988 90.8329C112.21 90.7215 112.461 90.6866 112.744 90.7423Z" fill="black"/>
<path d="M106.05 83.771C106.05 83.771 105.697 102.914 105.975 110.721C106.265 118.842 109.102 145.433 109.102 145.433H113.439C113.439 145.433 113.598 119.317 113.791 111.341C114.001 102.646 115.051 83.771 115.051 83.771H106.05Z" fill="#407BFF"/>
<path d="M108.267 143.706C108.247 143.706 108.512 145.506 108.512 145.506H113.787L113.93 143.899L108.267 143.706Z" fill="#263238"/>
<path d="M110.748 64.9165C111.976 68.2249 104.763 72.1218 104.763 72.1218L101.64 68.1077C101.64 68.1077 103.724 63.9617 106.28 62.0926C109.438 59.7837 109.813 62.3979 110.748 64.9165Z" fill="#407BFF"/>
<path opacity="0.4" d="M110.748 64.9165C111.976 68.2249 104.763 72.1218 104.763 72.1218L101.64 68.1077C101.64 68.1077 103.724 63.9617 106.28 62.0926C109.438 59.7837 109.813 62.3979 110.748 64.9165Z" fill="black"/>
<path d="M139.002 39.7972C146.257 39.7972 152.138 36.049 152.138 31.4252C152.138 26.8015 146.257 23.0532 139.002 23.0532C131.748 23.0532 125.867 26.8015 125.867 31.4252C125.867 36.049 131.748 39.7972 139.002 39.7972Z" fill="#407BFF"/>
<path d="M134.26 35.6392C133.53 35.6392 132.818 35.4208 132.199 34.999C131.369 34.4333 130.818 33.5757 130.646 32.5842C130.319 30.6888 131.578 28.8004 133.452 28.3745C134.996 28.0247 136.563 28.6825 137.392 30.0187L145.825 28.2784C146.508 28.1376 147.202 28.5449 147.37 29.1873C147.459 29.5288 147.407 29.8815 147.221 30.1807C147.035 30.4799 146.743 30.6834 146.398 30.7547L146.177 30.8006C146.111 30.8141 146.057 30.8541 146.025 30.9131C145.993 30.9713 145.988 31.0401 146.012 31.102L146.161 31.4885C146.261 31.7503 146.167 32.0447 145.936 32.1885C145.757 32.3006 145.634 32.4928 145.61 32.7032C145.58 32.9609 145.408 33.1593 145.172 33.2081L144.998 33.2438C144.762 33.2918 144.526 33.179 144.396 32.954C144.244 32.6912 143.942 32.5558 143.643 32.6177C143.344 32.6796 143.118 32.9238 143.082 33.2256C143.051 33.4836 142.879 33.6816 142.643 33.7301L142.473 33.765C142.24 33.8134 142.001 33.6998 141.871 33.4753C141.765 33.2918 141.575 33.1637 141.365 33.1324C141.096 33.0923 140.892 32.8594 140.881 32.5784L140.864 32.1645C140.861 32.0972 140.831 32.0375 140.778 31.9963C140.725 31.9548 140.662 31.9399 140.594 31.953L137.907 32.5077C137.679 34.0304 136.531 35.2494 135.012 35.5628C134.762 35.6134 134.51 35.6392 134.26 35.6392ZM133.533 28.7294C131.844 29.1131 130.71 30.8148 131.005 32.5223C131.159 33.4159 131.656 34.1883 132.404 34.6983C133.152 35.2083 134.052 35.3884 134.939 35.2054C136.346 34.9149 137.401 33.761 137.562 32.3341L137.577 32.2031L140.52 31.5956C140.69 31.5603 140.866 31.6018 141.002 31.7088C141.139 31.8154 141.221 31.9759 141.228 32.1492L141.245 32.5631C141.249 32.6679 141.323 32.7578 141.418 32.7716C141.742 32.8201 142.022 33.0097 142.186 33.2922C142.226 33.3613 142.302 33.4279 142.4 33.4079L142.57 33.373C142.667 33.353 142.711 33.2612 142.721 33.1819C142.775 32.7247 143.116 32.3545 143.57 32.261C144.022 32.1678 144.48 32.3731 144.711 32.7713C144.751 32.8404 144.827 32.9078 144.925 32.887L145.099 32.8514C145.195 32.8313 145.24 32.74 145.248 32.661C145.286 32.3363 145.468 32.0517 145.745 31.8795C145.826 31.8289 145.859 31.7171 145.821 31.6196L145.673 31.2327C145.611 31.0707 145.623 30.8909 145.706 30.7387C145.789 30.5869 145.934 30.4795 146.104 30.4446L146.325 30.3987C146.572 30.3481 146.78 30.2025 146.912 29.9896C147.045 29.7763 147.083 29.5244 147.019 29.2805C146.899 28.8226 146.395 28.5329 145.898 28.6362L137.21 30.4293L137.145 30.315C136.416 29.0414 134.966 28.4036 133.533 28.7294ZM134.265 34.2935C133.814 34.2935 133.373 34.1625 132.988 33.9091C132.467 33.5666 132.112 33.0425 131.986 32.4328C131.86 31.822 131.979 31.1992 132.321 30.6794C132.663 30.1599 133.188 29.8047 133.798 29.6787C134.409 29.5524 135.032 29.6711 135.551 30.0129C136.07 30.3543 136.426 30.8792 136.552 31.4904C136.678 32.1001 136.559 32.7225 136.218 33.2423C135.876 33.7628 135.351 34.1188 134.74 34.2448C134.582 34.2775 134.423 34.2935 134.265 34.2935ZM134.276 29.9936C134.141 29.9936 134.006 30.0074 133.872 30.0351C133.357 30.1414 132.914 30.4413 132.626 30.8796C132.337 31.3182 132.236 31.8434 132.343 32.3592C132.449 32.8736 132.749 33.3158 133.188 33.6048C133.627 33.8935 134.153 33.9943 134.667 33.888C135.183 33.7817 135.625 33.4811 135.914 33.0421C136.202 32.6035 136.302 32.0786 136.196 31.5635C136.089 31.0477 135.79 30.6048 135.352 30.3165C135.027 30.1043 134.656 29.9936 134.276 29.9936Z" fill="white"/>
<path opacity="0.6" d="M128.308 44.7058C130.693 44.7058 132.626 43.4737 132.626 41.9539C132.626 40.4341 130.693 39.2021 128.308 39.2021C125.924 39.2021 123.991 40.4341 123.991 41.9539C123.991 43.4737 125.924 44.7058 128.308 44.7058Z" fill="#407BFF"/>
<path opacity="0.3" d="M121.441 45.8349C122.42 45.8349 123.213 45.3292 123.213 44.7054C123.213 44.0816 122.42 43.5759 121.441 43.5759C120.462 43.5759 119.669 44.0816 119.669 44.7054C119.669 45.3292 120.462 45.8349 121.441 45.8349Z" fill="#407BFF"/>
</svg>
