<svg width="48" height="48" viewBox="0 0 48 48" fill="none" xmlns="http://www.w3.org/2000/svg">
<path d="M37.523 13.6235C36.7253 16.6003 34.9677 19.2308 32.5227 21.1069C30.0776 22.9831 27.0819 24 24 24C20.9181 24 17.9224 22.9831 15.4773 21.1069C13.0323 19.2308 11.2747 16.6003 10.477 13.6235L14.3407 12.5882C14.9105 14.7145 16.1659 16.5934 17.9124 17.9335C19.6588 19.2736 21.7987 20 24 20C26.2013 20 28.3412 19.2736 30.0876 17.9335C31.8341 16.5934 33.0895 14.7145 33.6593 12.5882L37.523 13.6235Z" fill="#C9C7C5"/>
<path d="M37.523 25.6235C36.7253 28.6003 34.9677 31.2308 32.5227 33.1069C30.0776 34.9831 27.0819 36 24 36C20.9181 36 17.9224 34.9831 15.4773 33.1069C13.0323 31.2308 11.2747 28.6003 10.477 25.6235L14.3407 24.5882C14.9105 26.7145 16.1659 28.5934 17.9124 29.9335C19.6588 31.2736 21.7987 32 24 32C26.2013 32 28.3412 31.2736 30.0876 29.9335C31.8341 28.5934 33.0895 26.7145 33.6593 24.5882L37.523 25.6235Z" fill="#C9C7C5"/>
</svg>
