<svg width="100" height="100" viewBox="0 0 100 100" fill="none" xmlns="http://www.w3.org/2000/svg">
<path d="M64.4792 22.5333L73.3001 31.3542M70.1501 14.7625L46.2876 38.625C45.0509 39.8535 44.2094 41.4234 43.8709 43.1333L41.6667 54.1667L52.7001 51.9583C54.4084 51.6167 55.9751 50.7792 57.2084 49.5458L81.0709 25.6833C81.788 24.9663 82.3568 24.115 82.7449 23.1781C83.133 22.2412 83.3327 21.237 83.3327 20.2229C83.3327 19.2088 83.133 18.2047 82.7449 17.2678C82.3568 16.3309 81.788 15.4796 81.0709 14.7625C80.3538 14.0454 79.5026 13.4766 78.5657 13.0885C77.6288 12.7005 76.6246 12.5007 75.6105 12.5007C74.5964 12.5007 73.5922 12.7005 72.6553 13.0885C71.7184 13.4766 70.8672 14.0454 70.1501 14.7625Z" stroke="#08477D" stroke-width="2" stroke-linecap="round" stroke-linejoin="round"/>
<path d="M79.1667 62.5V75C79.1667 77.2102 78.2888 79.3298 76.726 80.8926C75.1632 82.4554 73.0436 83.3334 70.8334 83.3334H25.0001C22.7899 83.3334 20.6703 82.4554 19.1075 80.8926C17.5447 79.3298 16.6667 77.2102 16.6667 75V29.1667C16.6667 26.9566 17.5447 24.837 19.1075 23.2742C20.6703 21.7113 22.7899 20.8334 25.0001 20.8334H37.5001" stroke="#08477D" stroke-width="2" stroke-linecap="round" stroke-linejoin="round"/>
</svg>
