<svg width="28" height="26" viewBox="0 0 28 26" fill="none" xmlns="http://www.w3.org/2000/svg">
<path d="M21.3784 1H6.62162C3.51689 1 1 3.52827 1 6.64706V19.3529C1 22.4717 3.51689 25 6.62162 25H21.3784C24.4831 25 27 22.4717 27 19.3529V6.64706C27 3.52827 24.4831 1 21.3784 1Z" stroke="url(#paint0_linear_99_2483)"/>
<path d="M21.3784 1H6.62162C3.51689 1 1 3.52827 1 6.64706V19.3529C1 22.4717 3.51689 25 6.62162 25H21.3784C24.4831 25 27 22.4717 27 19.3529V6.64706C27 3.52827 24.4831 1 21.3784 1Z" stroke="url(#paint1_linear_99_2483)"/>
<path d="M1.06604 6.77417L11.192 12.6048C12.0405 13.0994 13.0042 13.3599 13.9852 13.3599C14.9663 13.3599 15.9299 13.0994 16.7785 12.6048L26.9325 6.77417" stroke="url(#paint2_linear_99_2483)" stroke-linecap="round" stroke-linejoin="round"/>
<path d="M1.06604 6.77417L11.192 12.6048C12.0405 13.0994 13.0042 13.3599 13.9852 13.3599C14.9663 13.3599 15.9299 13.0994 16.7785 12.6048L26.9325 6.77417" stroke="url(#paint3_linear_99_2483)" stroke-linecap="round" stroke-linejoin="round"/>
<defs>
<linearGradient id="paint0_linear_99_2483" x1="-13.8571" y1="-9" x2="30.8584" y2="-2.79202" gradientUnits="userSpaceOnUse">
<stop stop-color="#36EEF4"/>
<stop offset="1" stop-color="#6BB0FF"/>
</linearGradient>
<linearGradient id="paint1_linear_99_2483" x1="14" y1="1" x2="14" y2="25" gradientUnits="userSpaceOnUse">
<stop stop-color="#08477D"/>
<stop offset="1" stop-color="#0F81E3"/>
</linearGradient>
<linearGradient id="paint2_linear_99_2483" x1="-13.7148" y1="4.03012" x2="22.4628" y2="22.2399" gradientUnits="userSpaceOnUse">
<stop stop-color="#36EEF4"/>
<stop offset="1" stop-color="#6BB0FF"/>
</linearGradient>
<linearGradient id="paint3_linear_99_2483" x1="13.9993" y1="6.77417" x2="13.9993" y2="13.3599" gradientUnits="userSpaceOnUse">
<stop stop-color="#08477D"/>
<stop offset="1" stop-color="#0F81E3"/>
</linearGradient>
</defs>
</svg>
