<svg width="182" height="182" viewBox="0 0 182 182" fill="none" xmlns="http://www.w3.org/2000/svg">
<path d="M91 173.966C138.361 173.966 176.755 151.8 176.755 124.456C176.755 97.1117 138.361 74.9451 91 74.9451C43.639 74.9451 5.24524 97.1117 5.24524 124.456C5.24524 151.8 43.639 173.966 91 173.966Z" fill="#F0F0F0"/>
<path d="M73.2539 161.976C89.5859 161.976 102.826 154.332 102.826 144.903C102.826 135.473 89.5859 127.83 73.2539 127.83C56.9219 127.83 43.6822 135.473 43.6822 144.903C43.6822 154.332 56.9219 161.976 73.2539 161.976Z" fill="#E0E0E0"/>
<path d="M157.348 123.543L153.881 121.541C153.881 121.541 153.031 114.114 153.597 108.363C154.39 100.282 159.61 90.5574 165.836 92.8411C172.063 95.1248 162.982 103.355 160.96 110.21C158.939 117.065 157.348 123.543 157.348 123.543Z" fill="#2F80ED"/>
<path opacity="0.15" d="M157.348 123.543L153.881 121.541C153.881 121.541 153.031 114.114 153.597 108.363C154.39 100.282 159.61 90.5574 165.836 92.8411C172.063 95.1248 162.982 103.355 160.96 110.21C158.939 117.065 157.348 123.543 157.348 123.543Z" fill="black"/>
<path d="M155.525 122.7C155.527 122.7 155.529 122.7 155.532 122.7C155.648 122.696 155.739 122.599 155.735 122.483C155.126 104.526 164.065 95.4929 164.155 95.404C164.238 95.3225 164.239 95.1896 164.157 95.1074C164.075 95.0248 163.942 95.0237 163.86 95.1052C163.769 95.1958 154.7 104.358 155.315 122.498C155.319 122.611 155.412 122.7 155.525 122.7Z" fill="white"/>
<path d="M159.528 124.791L157.061 123.367C157.061 123.367 156.641 118.271 159.14 112.08C161.315 106.691 166.712 102.22 169.426 103.159C172.14 104.099 172.073 106.023 170.749 108.042C169.426 110.062 161.375 114.874 159.528 124.791Z" fill="#2F80ED"/>
<path d="M158.227 124.25H158.228C158.344 124.249 158.438 124.155 158.437 124.039C158.388 112.685 169.049 105.011 169.157 104.935C169.252 104.868 169.274 104.737 169.207 104.642C169.141 104.548 169.01 104.524 168.914 104.592C168.805 104.67 157.967 112.471 158.017 124.041C158.018 124.156 158.111 124.25 158.227 124.25Z" fill="white"/>
<path d="M28.9961 119.081L32.1979 116.92C32.1979 116.92 33.6073 108.532 32.298 101.163C30.4568 90.8034 23.3123 87.356 20.7628 88.4385C18.2133 89.5211 17.6684 92.611 22.4252 98.5257C25.2316 102.015 28.8978 109.436 28.9961 119.081Z" fill="#2F80ED"/>
<g opacity="0.15">
<path d="M28.9961 119.081L32.1979 116.92C32.1979 116.92 33.6073 108.532 32.298 101.163C30.4568 90.8034 23.3123 87.356 20.7628 88.4385C18.2133 89.5211 17.6684 92.611 22.4252 98.5257C25.2316 102.015 28.8978 109.436 28.9961 119.081Z" fill="black"/>
</g>
<path d="M30.0958 114.932C30.0849 114.932 30.0743 114.931 30.0637 114.93C29.9367 114.914 29.8453 114.799 29.8606 114.672C31.0171 104.918 26.8991 94.3346 22.4205 90.1238C22.3273 90.0365 22.3226 89.8891 22.4106 89.7959C22.4987 89.7034 22.6454 89.698 22.7386 89.7861C27.2988 94.0736 31.4954 104.828 30.3215 114.727C30.3073 114.843 30.2093 114.929 30.0958 114.932Z" fill="white"/>
<path d="M20.6096 124.738C20.1014 125.043 18.616 123.942 18.205 123.677C17.5014 123.225 16.9259 122.575 16.5375 121.836C16.0858 120.975 15.958 120.047 16.0756 119.083C16.1368 118.583 16.2667 118.095 16.3963 117.608C16.5237 117.131 16.6511 116.653 16.7785 116.175C16.9041 115.704 17.0311 115.217 16.9598 114.734C16.8163 113.762 15.938 113.096 15.1401 112.522C14.2578 111.888 13.3358 111.046 13.3179 109.872C13.3041 108.967 13.7569 108.117 14.304 107.396C14.8515 106.675 15.5048 106.034 15.9973 105.274C16.3519 104.727 16.6245 104.088 16.5524 103.44C16.5077 103.037 16.3333 102.66 16.1335 102.308C15.7043 101.552 15.1445 100.863 14.8427 100.048C14.541 99.233 14.5621 98.2112 15.1914 97.6117C15.708 97.1196 16.488 97.0373 17.2004 97.0704C17.8596 97.1014 18.5086 97.386 19.0906 97.6951C20.9732 98.6946 22.0791 100.88 24.0709 101.639C24.8393 101.932 25.6757 101.983 26.4744 102.178C27.273 102.372 28.0912 102.763 28.4734 103.491C29.2269 104.926 27.9151 106.738 28.4549 108.266C28.9324 109.619 30.2654 110.114 31.032 111.327C31.3672 111.857 31.4542 112.476 31.4138 113.102C31.3454 114.162 31.2056 114.942 30.7208 116.128C30.32 117.109 29.1297 118.993 29.1297 118.993C29.1297 118.993 20.6871 124.691 20.6096 124.738Z" fill="#2F80ED"/>
<path d="M25.53 121.72C25.5268 121.72 25.5238 121.72 25.5238 121.72C25.3924 121.717 25.2912 121.611 25.2938 121.483C25.4991 112.268 20.9644 102.186 17.7521 99.2934C17.6571 99.2078 17.6491 99.0612 17.735 98.9658C17.8209 98.8708 17.9672 98.8635 18.0626 98.9487C21.3393 101.899 25.9657 112.148 25.7579 121.493C25.7546 121.619 25.6538 121.718 25.53 121.72Z" fill="white"/>
<path d="M23.8324 110.494C23.8098 110.494 23.7865 110.491 23.7639 110.485C20.7879 109.627 17.0976 109.537 17.0609 109.536C16.9327 109.533 16.8312 109.427 16.8337 109.299C16.8366 109.171 16.9316 109.068 17.0711 109.072C17.1085 109.073 20.8574 109.164 23.8924 110.039C24.0154 110.074 24.0868 110.202 24.0511 110.325C24.0216 110.426 23.9314 110.492 23.8324 110.494Z" fill="white"/>
<path d="M109.622 112.747L108.241 111.949C107.806 111.697 107.453 111.086 107.453 110.584L107.453 53.2474C107.453 52.7447 107.806 52.1335 108.241 51.8824L146.586 29.7439C147.022 29.4927 147.727 29.4927 148.163 29.7439L149.544 30.541C149.979 30.7922 150.332 31.4034 150.332 31.906V89.2419C150.332 89.7445 149.979 90.3557 149.544 90.6069L111.198 112.747C110.763 112.999 110.057 112.998 109.622 112.747Z" fill="#455A64"/>
<path d="M150.325 31.7779C150.271 31.3703 149.94 31.221 149.543 31.4503L111.199 53.5925C110.981 53.7199 110.788 53.931 110.642 54.1785L107.683 52.4713C107.825 52.2238 108.021 52.0091 108.24 51.8817L146.587 29.7432C147.02 29.492 147.726 29.492 148.163 29.7432L149.543 30.5403C149.943 30.7697 150.274 31.3047 150.325 31.7779Z" fill="#455A64"/>
<path d="M111.064 112.811C110.628 112.996 110.016 112.974 109.623 112.749L108.24 111.948C107.807 111.697 107.454 111.085 107.454 110.583V53.2466C107.454 52.9955 107.541 52.7188 107.683 52.4713L110.642 54.1785C110.497 54.426 110.409 54.7063 110.409 54.9574V112.294C110.409 112.745 110.693 112.952 111.064 112.811Z" fill="#263238"/>
<path d="M110.41 54.9567V112.293C110.41 112.795 110.762 112.999 111.198 112.748L149.544 90.6073C149.979 90.3561 150.332 89.7449 150.332 89.2423V31.9057C150.332 31.403 149.979 31.1995 149.544 31.4507L111.198 53.5917C110.763 53.8429 110.41 54.454 110.41 54.9567Z" fill="#37474F"/>
<path d="M101.455 76.812C100.96 76.5172 98.6629 75.2104 98.5428 75.1412C98.1788 74.9192 98.0478 74.3805 98.3863 74.0165L107.454 64.2904L110.409 65.9866L101.346 75.7164C101.018 76.0658 101.124 76.5718 101.455 76.812Z" fill="#455A64"/>
<path d="M110.41 65.9881L101.345 75.7153C100.89 76.2027 101.274 76.9936 101.938 76.939L110.41 76.2412V65.9881Z" fill="#37474F"/>
<path d="M130.371 48.4855C134.84 45.9051 138.463 47.997 138.463 53.1575C138.463 58.3179 134.84 64.5929 130.371 67.1733C125.901 69.7537 122.279 67.6618 122.279 62.5013C122.279 57.3406 125.902 51.0656 130.371 48.4855Z" fill="#2F80ED"/>
<path d="M130.314 52.5467C131.764 51.7095 132.939 52.388 132.939 54.062C132.939 55.7364 131.764 57.7722 130.314 58.6091C128.864 59.4459 127.689 58.7678 127.689 57.0934C127.689 55.4194 128.864 53.3835 130.314 52.5467Z" fill="white"/>
<path d="M135.488 61.4738C135.488 58.723 133.556 57.6081 131.175 58.9836L129.685 59.8434C127.304 61.2186 125.372 64.5634 125.372 67.3138V68.064C125.803 68.2067 126.269 68.2773 126.763 68.2784C127.849 68.2806 129.072 67.9228 130.371 67.1733C132.312 66.0522 134.094 64.2329 135.488 62.1119V61.4738Z" fill="white"/>
<path d="M125.245 92.7217L135.497 86.8024C135.932 86.5512 136.285 86.7547 136.285 87.2574V90.5592C136.285 91.0619 135.932 91.673 135.497 91.9242L125.245 97.8436C124.809 98.0947 124.457 97.8913 124.457 97.3886V94.0867C124.457 93.584 124.809 92.9729 125.245 92.7217Z" fill="#2F80ED"/>
<path d="M120.227 85.3456L140.515 73.6328C141.037 73.3314 141.46 73.5757 141.46 74.1788V75.4077C141.46 76.0108 141.037 76.7443 140.515 77.0457L120.227 88.7585C119.705 89.0599 119.282 88.8156 119.282 88.2125V86.9836C119.281 86.3805 119.705 85.647 120.227 85.3456Z" fill="#FAFAFA"/>
<path d="M122.6 76.8688C122.876 76.7094 123.09 76.6854 123.243 76.7978C123.396 76.9099 123.473 77.1589 123.473 77.5455C123.473 77.9324 123.396 78.2713 123.243 78.5632C123.09 78.8555 122.876 79.0812 122.6 79.2406L122.052 79.5566V80.7319C122.052 80.7709 122.043 80.8091 122.025 80.8477C122.006 80.8866 121.985 80.9132 121.959 80.9274L121.682 81.0876C121.657 81.1025 121.635 81.101 121.617 81.0832C121.598 81.0654 121.589 81.0377 121.589 80.9988V77.5939C121.589 77.5553 121.598 77.5164 121.617 77.4778C121.635 77.4396 121.657 77.4123 121.682 77.3981L122.6 76.8688ZM122.052 78.8977L122.582 78.5913C122.712 78.5163 122.816 78.4169 122.894 78.2928C122.971 78.169 123.01 78.0092 123.01 77.8123C123.01 77.6154 122.971 77.5014 122.894 77.4709C122.816 77.4403 122.712 77.4625 122.582 77.5378L122.052 77.844V78.8977Z" fill="#FAFAFA"/>
<path d="M124.999 75.483C125.036 75.4619 125.063 75.4608 125.081 75.4801C125.1 75.4998 125.116 75.5351 125.13 75.5871L125.969 78.434C125.971 78.4431 125.972 78.4547 125.972 78.4689C125.972 78.5075 125.963 78.5461 125.945 78.5847C125.926 78.6233 125.905 78.6502 125.879 78.6644L125.633 78.8067C125.587 78.8329 125.555 78.8366 125.537 78.8173C125.518 78.798 125.506 78.7765 125.499 78.7518L125.352 78.252L124.27 78.877L124.123 79.5467C124.116 79.5788 124.103 79.6152 124.086 79.6556C124.067 79.696 124.035 79.7291 123.989 79.7557L123.743 79.898C123.718 79.9122 123.696 79.9107 123.678 79.8929C123.659 79.8754 123.651 79.8474 123.651 79.8092C123.651 79.795 123.652 79.7822 123.654 79.7702L124.493 75.9552C124.507 75.8871 124.522 75.8336 124.541 75.7932C124.559 75.7531 124.586 75.7222 124.623 75.7011L124.999 75.483ZM125.187 77.6885L124.811 76.404L124.435 78.1231L125.187 77.6885Z" fill="#FAFAFA"/>
<path d="M127.245 74.1337C127.398 74.0456 127.533 73.9994 127.649 73.9958C127.765 73.9914 127.862 74.0147 127.94 74.0646C128.017 74.1148 128.076 74.1854 128.116 74.2764C128.156 74.3674 128.178 74.4628 128.183 74.5618C128.185 74.6025 128.176 74.6419 128.158 74.6793C128.138 74.7165 128.116 74.7427 128.091 74.7572L127.851 74.8956C127.812 74.9185 127.783 74.9232 127.764 74.9119C127.744 74.9007 127.726 74.8799 127.711 74.8508C127.676 74.7824 127.625 74.7361 127.555 74.711C127.485 74.6866 127.382 74.7132 127.245 74.7926C127.186 74.8268 127.129 74.8694 127.076 74.9192C127.022 74.9698 126.975 75.0248 126.935 75.0848C126.895 75.1445 126.864 75.2079 126.841 75.2734C126.818 75.3396 126.807 75.4059 126.807 75.4725C126.807 75.5537 126.817 75.6134 126.839 75.6516C126.861 75.6898 126.897 75.7127 126.949 75.72C127 75.7277 127.068 75.7222 127.153 75.7051C127.237 75.688 127.342 75.6647 127.467 75.6341C127.604 75.6006 127.722 75.5864 127.822 75.5908C127.921 75.5952 128.002 75.6217 128.065 75.6716C128.128 75.7218 128.174 75.7939 128.205 75.8886C128.236 75.9836 128.251 76.1026 128.251 76.2464C128.251 76.4047 128.229 76.5645 128.183 76.7261C128.138 76.8874 128.072 77.041 127.988 77.1866C127.903 77.3318 127.8 77.4683 127.676 77.5957C127.553 77.7231 127.415 77.8309 127.262 77.9193C127.134 77.9932 127.012 78.0402 126.896 78.0595C126.779 78.0795 126.676 78.0707 126.586 78.0332C126.496 77.9954 126.423 77.9295 126.368 77.8345C126.314 77.7395 126.283 77.6168 126.276 77.4661C126.273 77.4254 126.282 77.3861 126.301 77.3486C126.32 77.3114 126.343 77.2852 126.368 77.2707L126.608 77.1323C126.646 77.1094 126.676 77.1032 126.696 77.1123C126.717 77.1214 126.734 77.1433 126.748 77.1771C126.764 77.2142 126.783 77.2485 126.806 77.2809C126.829 77.3133 126.86 77.3358 126.898 77.3486C126.937 77.3613 126.986 77.362 127.044 77.3518C127.102 77.3409 127.174 77.3107 127.261 77.2601C127.33 77.2212 127.396 77.1749 127.46 77.1218C127.524 77.0694 127.58 77.0104 127.628 76.946C127.676 76.8815 127.714 76.8138 127.744 76.7418C127.774 76.6701 127.788 76.594 127.788 76.5128C127.788 76.436 127.772 76.3821 127.741 76.3512C127.709 76.3203 127.66 76.3064 127.595 76.309C127.53 76.3112 127.45 76.3243 127.354 76.3479C127.258 76.3712 127.147 76.3952 127.022 76.4182C126.908 76.4418 126.808 76.4495 126.722 76.4411C126.637 76.4327 126.566 76.4022 126.51 76.3501C126.454 76.2981 126.413 76.2227 126.385 76.1244C126.358 76.0258 126.344 75.898 126.344 75.7393C126.344 75.5813 126.367 75.4223 126.413 75.2628C126.458 75.103 126.521 74.952 126.601 74.8115C126.681 74.6702 126.776 74.5407 126.887 74.4227C126.998 74.3037 127.118 74.2076 127.245 74.1337Z" fill="#FAFAFA"/>
<path d="M129.634 72.7545C129.788 72.6664 129.922 72.6202 130.038 72.6162C130.154 72.6122 130.252 72.6351 130.33 72.685C130.407 72.7352 130.465 72.8058 130.505 72.8968C130.545 72.9882 130.568 73.0836 130.572 73.1822C130.575 73.2234 130.566 73.2627 130.547 73.2998C130.527 73.3373 130.505 73.3635 130.48 73.3777L130.24 73.5164C130.201 73.5389 130.172 73.544 130.153 73.5328C130.134 73.5211 130.116 73.5004 130.1 73.4712C130.066 73.4035 130.014 73.3566 129.944 73.3315C129.875 73.3071 129.772 73.3336 129.634 73.413C129.575 73.4476 129.519 73.4898 129.465 73.54C129.411 73.5906 129.365 73.6452 129.325 73.7053C129.285 73.7653 129.253 73.8283 129.23 73.8942C129.207 73.9601 129.196 74.0263 129.196 74.0933C129.196 74.1745 129.207 74.2338 129.228 74.272C129.25 74.311 129.286 74.3336 129.338 74.3408C129.39 74.3481 129.457 74.343 129.542 74.3259C129.626 74.3088 129.732 74.2855 129.857 74.2549C129.994 74.2214 130.112 74.2072 130.211 74.2112C130.31 74.2156 130.391 74.2422 130.454 74.2921C130.517 74.3427 130.564 74.4144 130.595 74.509C130.626 74.6044 130.641 74.723 130.641 74.8672C130.641 75.0252 130.618 75.1849 130.572 75.3469C130.527 75.5082 130.461 75.6618 130.377 75.807C130.293 75.9526 130.189 76.0888 130.066 76.2165C129.943 76.3439 129.804 76.4517 129.652 76.5398C129.523 76.6137 129.401 76.6606 129.285 76.6803C129.169 76.7003 129.066 76.6912 128.975 76.6537C128.885 76.6162 128.813 76.5503 128.758 76.4549C128.703 76.3599 128.672 76.2373 128.665 76.0866C128.663 76.0458 128.672 76.0065 128.691 75.9694C128.71 75.9315 128.732 75.9057 128.758 75.8911L128.997 75.7528C129.036 75.7302 129.066 75.7237 129.086 75.7331C129.107 75.7422 129.124 75.7637 129.138 75.7979C129.154 75.8347 129.174 75.8689 129.196 75.9017C129.219 75.9337 129.25 75.9563 129.289 75.9694C129.327 75.9821 129.376 75.9828 129.434 75.9726C129.492 75.9617 129.564 75.9315 129.651 75.8813C129.72 75.842 129.786 75.7961 129.85 75.7426C129.914 75.6905 129.97 75.6316 130.018 75.5672C130.065 75.5024 130.104 75.435 130.134 75.3629C130.164 75.2916 130.178 75.2155 130.178 75.1344C130.178 75.0572 130.162 75.0033 130.13 74.9724C130.098 74.9418 130.05 74.9276 129.985 74.9302C129.92 74.9327 129.84 74.9454 129.744 74.9691C129.648 74.9928 129.537 75.0164 129.412 75.0397C129.298 75.063 129.198 75.071 129.112 75.0626C129.027 75.0539 128.955 75.0237 128.9 74.9716C128.844 74.9196 128.802 74.8442 128.775 74.7456C128.748 74.6473 128.734 74.5192 128.734 74.3609C128.734 74.2029 128.757 74.0438 128.803 73.884C128.848 73.7242 128.911 73.5735 128.991 73.4327C129.071 73.2914 129.166 73.1622 129.277 73.0439C129.388 72.9245 129.507 72.8284 129.634 72.7545Z" fill="#FAFAFA"/>
<path d="M132.288 73.2099L131.993 74.9556C131.982 75.0146 131.967 75.0663 131.95 75.1092C131.933 75.1525 131.908 75.1842 131.873 75.2039L131.596 75.364C131.561 75.3837 131.534 75.3829 131.515 75.36C131.495 75.3378 131.483 75.3025 131.476 75.2541L131.038 72.1816C131.035 72.1652 131.034 72.1517 131.034 72.1415C131.034 72.1029 131.043 72.064 131.062 72.0254C131.08 71.9868 131.101 71.9599 131.127 71.9457L131.38 71.7994C131.403 71.7866 131.425 71.7844 131.445 71.7935C131.466 71.8026 131.479 71.8314 131.486 71.8805L131.774 73.9492L132.027 72.3956C132.032 72.3683 132.042 72.3301 132.06 72.2817C132.076 72.2333 132.106 72.1972 132.147 72.1732L132.427 72.0112C132.468 71.9876 132.498 71.9901 132.515 72.0189C132.532 72.0476 132.542 72.0727 132.547 72.0946L132.8 73.3558L133.088 70.9553C133.095 70.8985 133.109 70.8541 133.129 70.8206C133.15 70.7878 133.171 70.7645 133.194 70.7518L133.447 70.6054C133.472 70.5912 133.494 70.5927 133.512 70.6105C133.531 70.628 133.54 70.656 133.54 70.6946C133.54 70.7048 133.539 70.7197 133.536 70.7383L133.098 74.3172C133.091 74.3739 133.078 74.4245 133.059 74.4689C133.04 74.5134 133.013 74.5457 132.978 74.5658L132.701 74.7256C132.666 74.7456 132.641 74.7438 132.624 74.7201C132.607 74.6964 132.593 74.6619 132.581 74.6156L132.288 73.2099Z" fill="#FAFAFA"/>
<path d="M133.992 71.6669C133.999 71.4663 134.023 71.2665 134.066 71.0681C134.108 70.8697 134.17 70.6826 134.252 70.5072C134.335 70.3317 134.437 70.1701 134.56 70.0238C134.684 69.8767 134.83 69.7552 134.999 69.6572C135.165 69.5608 135.31 69.5142 135.433 69.5167C135.557 69.5196 135.659 69.5622 135.741 69.6449C135.824 69.7275 135.886 69.8425 135.93 69.9892C135.973 70.1366 135.998 70.3081 136.005 70.5043C136.008 70.5701 136.009 70.6429 136.01 70.7227C136.012 70.8027 136.012 70.8857 136.012 70.972C136.012 71.0583 136.012 71.142 136.01 71.2232C136.009 71.3051 136.008 71.3797 136.005 71.4474C135.998 71.6487 135.974 71.8478 135.932 72.0462C135.89 72.2445 135.827 72.4316 135.745 72.6071C135.663 72.7825 135.559 72.9434 135.435 73.089C135.31 73.2346 135.165 73.3555 134.999 73.4516C134.83 73.5491 134.684 73.5964 134.56 73.5943C134.437 73.5914 134.335 73.5499 134.252 73.4687C134.17 73.3882 134.108 73.2732 134.066 73.1232C134.023 72.974 133.999 72.8026 133.992 72.61C133.99 72.5445 133.988 72.472 133.987 72.3912C133.986 72.3112 133.985 72.2282 133.985 72.1423C133.985 72.0564 133.986 71.9723 133.987 71.8907C133.988 71.8096 133.99 71.7349 133.992 71.6669ZM135.543 70.7976C135.534 70.5498 135.481 70.3849 135.384 70.3019C135.286 70.2193 135.158 70.2236 134.999 70.3161C134.839 70.4085 134.71 70.5519 134.613 70.7471C134.516 70.9418 134.463 71.1678 134.454 71.4263C134.449 71.5624 134.446 71.7124 134.446 71.8758C134.446 72.0393 134.449 72.1859 134.454 72.317C134.462 72.5649 134.516 72.729 134.613 72.8098C134.71 72.891 134.838 72.8852 134.999 72.7931C135.158 72.701 135.286 72.5583 135.384 72.3654C135.481 72.1721 135.534 71.9468 135.543 71.6884C135.548 71.5522 135.55 71.4026 135.55 71.2392C135.55 71.0757 135.548 70.9291 135.543 70.7976Z" fill="#FAFAFA"/>
<path d="M137.604 68.206C137.889 68.0414 138.105 68.0181 138.254 68.1364C138.402 68.2547 138.476 68.4946 138.476 68.8568C138.476 69.1134 138.438 69.3537 138.362 69.579C138.285 69.8039 138.173 70.0034 138.025 70.177L138.497 71.2061C138.504 71.2232 138.507 71.2406 138.507 71.2585C138.507 71.2898 138.5 71.3211 138.485 71.3531C138.47 71.3844 138.452 71.4059 138.431 71.4179L138.14 71.5857C138.095 71.6119 138.061 71.6148 138.039 71.5941C138.018 71.5726 138.002 71.5515 137.993 71.5286L137.545 70.5589L137.09 70.822V72.0502C137.09 72.0888 137.081 72.1273 137.062 72.1656C137.044 72.2045 137.023 72.2311 136.997 72.246L136.72 72.4058C136.695 72.42 136.673 72.4185 136.655 72.4007C136.636 72.3832 136.628 72.3556 136.628 72.317V68.9121C136.628 68.8732 136.636 68.8346 136.655 68.7964C136.673 68.7574 136.694 68.7309 136.72 68.7159L137.604 68.206ZM137.09 70.1628L137.586 69.8764C137.717 69.8014 137.82 69.706 137.898 69.591C137.975 69.4763 138.014 69.3202 138.014 69.1232C138.014 68.9267 137.975 68.8171 137.898 68.7953C137.82 68.7734 137.717 68.8 137.586 68.8754L137.09 69.1618V70.1628Z" fill="#FAFAFA"/>
<path d="M140.031 66.8046C140.2 66.707 140.346 66.6568 140.471 66.6531C140.595 66.6502 140.699 66.6877 140.783 66.7663C140.866 66.8446 140.929 66.9604 140.974 67.114C141.018 67.2676 141.045 67.4525 141.054 67.6683C141.064 67.9228 141.064 68.183 141.054 68.4484C141.045 68.6752 141.018 68.891 140.974 69.0956C140.929 69.3009 140.866 69.4898 140.784 69.6641C140.701 69.8381 140.599 69.9943 140.477 70.1333C140.355 70.2728 140.212 70.3892 140.048 70.4842L139.185 70.9822C139.16 70.9968 139.138 70.9953 139.12 70.9775C139.102 70.96 139.092 70.9323 139.092 70.8934V67.4885C139.092 67.4503 139.102 67.411 139.12 67.3728C139.138 67.3342 139.159 67.3072 139.185 67.2927L140.031 66.8046ZM140.592 67.9351C140.587 67.8256 140.573 67.7291 140.55 67.6465C140.526 67.5639 140.49 67.4998 140.443 67.455C140.396 67.4099 140.338 67.3881 140.267 67.3881C140.196 67.3888 140.112 67.4172 140.014 67.474L139.555 67.7386V70.1104L140.031 69.836C140.125 69.7821 140.206 69.7151 140.274 69.6347C140.343 69.5549 140.4 69.4669 140.445 69.3697C140.491 69.2728 140.526 69.1687 140.55 69.0566C140.574 68.9442 140.588 68.8306 140.593 68.7159C140.601 68.4498 140.601 68.1903 140.592 67.9351Z" fill="#FAFAFA"/>
<path d="M90.0453 13.9758C90.6815 14.1166 91.281 14.342 91.8441 14.651C92.4073 14.9604 92.8845 15.3393 93.275 15.7878C93.6656 16.2359 93.947 16.7455 94.1184 17.3162C94.2902 17.8862 94.3026 18.5036 94.1559 19.1664C94.0362 19.7077 93.8472 20.1598 93.5899 20.5212C93.3318 20.883 93.0359 21.1939 92.7017 21.4531C92.3676 21.7126 92.0149 21.9401 91.6458 22.1348C91.2756 22.3299 90.9254 22.5152 90.5964 22.6899C90.2662 22.8654 89.9674 23.059 89.7013 23.2694C89.4345 23.4802 89.2481 23.7303 89.1414 24.0189C89.081 24.162 88.9918 24.2766 88.8735 24.3636C88.7545 24.4513 88.6209 24.4779 88.4721 24.4455L86.9291 24.1037C86.7802 24.071 86.6601 23.988 86.5694 23.8536C86.4784 23.7201 86.4562 23.5806 86.5024 23.4347C86.6466 22.9127 86.8603 22.4737 87.1453 22.1181C87.4299 21.7625 87.7459 21.4563 88.0939 21.1994C88.4418 20.9427 88.8033 20.7214 89.1782 20.5347C89.5528 20.3476 89.9018 20.166 90.2254 19.9891C90.5483 19.8125 90.8242 19.6247 91.0521 19.427C91.2807 19.2294 91.4263 18.9881 91.4892 18.7038C91.6032 18.1898 91.4805 17.7188 91.1205 17.2911C90.7609 16.8638 90.2222 16.5707 89.5051 16.4117C88.3548 16.1569 87.3815 16.5449 86.5854 17.5754C86.485 17.7093 86.3889 17.8051 86.2986 17.8629C86.2072 17.9212 86.0737 17.9306 85.8975 17.8913L84.2533 17.5273C84.1317 17.5004 84.0353 17.4363 83.9657 17.3359C83.8958 17.2354 83.8758 17.1171 83.9057 16.9817C84.0236 16.511 84.277 16.0597 84.6635 15.6269C85.0501 15.1945 85.5215 14.8305 86.0766 14.5342C86.632 14.2386 87.253 14.0315 87.9392 13.9139C88.6264 13.7967 89.3278 13.8167 90.0453 13.9758ZM88.3042 25.6864C88.4528 25.7191 88.5696 25.8018 88.6533 25.9343C88.7378 26.0664 88.7636 26.2069 88.7305 26.3558L88.3348 28.1419C88.3017 28.2912 88.2194 28.4077 88.0869 28.4917C87.9548 28.5765 87.8147 28.602 87.6658 28.5689L85.9201 28.1823C85.7708 28.1488 85.6543 28.0669 85.5699 27.9341C85.4854 27.802 85.4596 27.6618 85.4927 27.5126L85.8884 25.7261C85.9215 25.5776 86.0038 25.4607 86.1363 25.3763C86.2688 25.2925 86.4089 25.2663 86.5581 25.2995L88.3042 25.6864Z" fill="#2F80ED"/>
<path d="M91.9886 31.051C92.4323 30.9786 92.8746 30.9687 93.315 31.0233C93.7551 31.0772 94.1577 31.1977 94.5231 31.3852C94.8882 31.5733 95.1991 31.8278 95.455 32.1496C95.7116 32.4717 95.8772 32.8641 95.9529 33.326C96.0145 33.7038 96.009 34.0424 95.9366 34.3397C95.8641 34.6375 95.7538 34.9127 95.606 35.1649C95.4583 35.4168 95.2908 35.6527 95.1034 35.8722C94.9163 36.092 94.7394 36.2999 94.573 36.4968C94.4063 36.6937 94.2643 36.8943 94.1475 37.0974C94.0303 37.3005 93.9746 37.5084 93.9804 37.7206C93.9782 37.828 93.9502 37.9244 93.8971 38.0107C93.8432 38.097 93.7642 38.1486 93.6608 38.1657L92.5841 38.3416C92.48 38.3587 92.3817 38.3357 92.2889 38.2731C92.1965 38.2109 92.1462 38.1272 92.1389 38.0216C92.0978 37.65 92.1226 37.3144 92.2143 37.013C92.3053 36.7123 92.4298 36.4346 92.587 36.1812C92.7443 35.9279 92.9194 35.6931 93.1119 35.4772C93.3045 35.2618 93.4817 35.0557 93.6437 34.8592C93.8053 34.6637 93.9342 34.4726 94.0299 34.2877C94.1257 34.1021 94.1577 33.9106 94.1253 33.7118C94.0667 33.3537 93.8672 33.0829 93.5269 32.9005C93.1865 32.7185 92.7665 32.6683 92.266 32.7502C91.4634 32.8812 90.9388 33.3795 90.6921 34.244C90.6618 34.3554 90.6251 34.4413 90.5814 34.5017C90.5381 34.5625 90.4547 34.6025 90.3321 34.6226L89.1851 34.8104C89.0999 34.8242 89.022 34.8078 88.951 34.7613C88.8804 34.7143 88.8375 34.644 88.8218 34.5494C88.777 34.2178 88.8236 33.8633 88.9612 33.4869C89.0981 33.1105 89.307 32.7563 89.5873 32.4247C89.8676 32.0928 90.213 31.8016 90.6225 31.5504C91.0331 31.2993 91.4881 31.1329 91.9886 31.051ZM93.8698 39.004C93.9735 38.9873 94.0696 39.0106 94.1577 39.0732C94.2454 39.1369 94.2978 39.2203 94.3149 39.3236L94.5188 40.5707C94.5359 40.6744 94.5126 40.7705 94.4496 40.8583C94.3863 40.9463 94.3029 40.9984 94.1988 41.0155L92.9805 41.2146C92.8768 41.2317 92.7807 41.2088 92.693 41.1458C92.6049 41.0825 92.5525 40.9991 92.5353 40.8954L92.3315 39.6483C92.3148 39.5449 92.3377 39.4488 92.4007 39.3608C92.464 39.273 92.5474 39.2203 92.6511 39.2031L93.8698 39.004Z" fill="#2F80ED"/>
<g opacity="0.2">
<path d="M91.9886 31.051C92.4323 30.9786 92.8746 30.9687 93.315 31.0233C93.7551 31.0772 94.1577 31.1977 94.5231 31.3852C94.8882 31.5733 95.1991 31.8278 95.455 32.1496C95.7116 32.4717 95.8772 32.8641 95.9529 33.326C96.0145 33.7038 96.009 34.0424 95.9366 34.3397C95.8641 34.6375 95.7538 34.9127 95.606 35.1649C95.4583 35.4168 95.2908 35.6527 95.1034 35.8722C94.9163 36.092 94.7394 36.2999 94.573 36.4968C94.4063 36.6937 94.2643 36.8943 94.1475 37.0974C94.0303 37.3005 93.9746 37.5084 93.9804 37.7206C93.9782 37.828 93.9502 37.9244 93.8971 38.0107C93.8432 38.097 93.7642 38.1486 93.6608 38.1657L92.5841 38.3416C92.48 38.3587 92.3817 38.3357 92.2889 38.2731C92.1965 38.2109 92.1462 38.1272 92.1389 38.0216C92.0978 37.65 92.1226 37.3144 92.2143 37.013C92.3053 36.7123 92.4298 36.4346 92.587 36.1812C92.7443 35.9279 92.9194 35.6931 93.1119 35.4772C93.3045 35.2618 93.4817 35.0557 93.6437 34.8592C93.8053 34.6637 93.9342 34.4726 94.0299 34.2877C94.1257 34.1021 94.1577 33.9106 94.1253 33.7118C94.0667 33.3537 93.8672 33.0829 93.5269 32.9005C93.1865 32.7185 92.7665 32.6683 92.266 32.7502C91.4634 32.8812 90.9388 33.3795 90.6921 34.244C90.6618 34.3554 90.6251 34.4413 90.5814 34.5017C90.5381 34.5625 90.4547 34.6025 90.3321 34.6226L89.1851 34.8104C89.0999 34.8242 89.022 34.8078 88.951 34.7613C88.8804 34.7143 88.8375 34.644 88.8218 34.5494C88.777 34.2178 88.8236 33.8633 88.9612 33.4869C89.0981 33.1105 89.307 32.7563 89.5873 32.4247C89.8676 32.0928 90.213 31.8016 90.6225 31.5504C91.0331 31.2993 91.4881 31.1329 91.9886 31.051ZM93.8698 39.004C93.9735 38.9873 94.0696 39.0106 94.1577 39.0732C94.2454 39.1369 94.2978 39.2203 94.3149 39.3236L94.5188 40.5707C94.5359 40.6744 94.5126 40.7705 94.4496 40.8583C94.3863 40.9463 94.3029 40.9984 94.1988 41.0155L92.9805 41.2146C92.8768 41.2317 92.7807 41.2088 92.693 41.1458C92.6049 41.0825 92.5525 40.9991 92.5353 40.8954L92.3315 39.6483C92.3148 39.5449 92.3377 39.4488 92.4007 39.3608C92.464 39.273 92.5474 39.2203 92.6511 39.2031L93.8698 39.004Z" fill="black"/>
</g>
<path d="M102.281 33.0108C102.382 33.0832 102.444 33.1826 102.466 33.3089C102.487 33.4356 102.461 33.5495 102.389 33.6511L101.522 34.8708C101.45 34.9728 101.35 35.0343 101.224 35.0554C101.097 35.0772 100.983 35.0514 100.882 34.9793L99.6901 34.1319C99.5882 34.0595 99.527 33.9605 99.5056 33.8342C99.4837 33.7071 99.5096 33.5936 99.582 33.492L100.449 32.2719C100.521 32.1703 100.62 32.1088 100.747 32.0873C100.873 32.0658 100.987 32.0913 101.089 32.1638L102.281 33.0108ZM107.324 24.7436C107.757 25.0519 108.138 25.4127 108.464 25.8251C108.789 26.2378 109.029 26.675 109.179 27.1369C109.331 27.5996 109.38 28.0724 109.328 28.5569C109.275 29.0417 109.089 29.5102 108.766 29.963C108.504 30.3328 108.218 30.6128 107.909 30.8031C107.599 30.9939 107.278 31.1336 106.943 31.2225C106.608 31.3116 106.271 31.3706 105.931 31.4001C105.589 31.4288 105.267 31.4569 104.963 31.4838C104.658 31.5107 104.372 31.5613 104.104 31.6352C103.836 31.7088 103.616 31.838 103.444 32.0214C103.353 32.1099 103.249 32.1678 103.132 32.1958C103.015 32.2238 102.906 32.2016 102.804 32.1292L101.75 31.3801C101.649 31.308 101.585 31.2072 101.559 31.0772C101.533 30.9476 101.56 30.8352 101.642 30.7398C101.917 30.3925 102.218 30.1301 102.546 29.9528C102.873 29.7759 103.209 29.6456 103.553 29.563C103.896 29.4804 104.24 29.4287 104.582 29.4076C104.923 29.3861 105.244 29.3602 105.545 29.33C105.844 29.2998 106.111 29.2467 106.347 29.1702C106.582 29.0938 106.768 28.9587 106.906 28.7647C107.156 28.4135 107.213 28.02 107.079 27.5832C106.944 27.1468 106.632 26.7544 106.142 26.4064C105.357 25.848 104.499 25.8302 103.571 26.3529C103.453 26.4217 103.35 26.4639 103.264 26.4784C103.176 26.493 103.073 26.4577 102.953 26.3725L101.83 25.5743C101.747 25.5153 101.695 25.4367 101.674 25.3388C101.654 25.2401 101.676 25.1455 101.742 25.053C101.98 24.736 102.315 24.4761 102.744 24.2733C103.174 24.0706 103.644 23.9465 104.157 23.9006C104.669 23.8547 105.203 23.8962 105.757 24.0265C106.311 24.1561 106.833 24.3953 107.324 24.7436Z" fill="#2F80ED"/>
<g opacity="0.6">
<path d="M102.281 33.0108C102.382 33.0832 102.444 33.1826 102.466 33.3089C102.487 33.4356 102.461 33.5495 102.389 33.6511L101.522 34.8708C101.45 34.9728 101.35 35.0343 101.224 35.0554C101.097 35.0772 100.983 35.0514 100.882 34.9793L99.6901 34.1319C99.5882 34.0595 99.527 33.9605 99.5056 33.8342C99.4837 33.7071 99.5096 33.5936 99.582 33.492L100.449 32.2719C100.521 32.1703 100.62 32.1088 100.747 32.0873C100.873 32.0658 100.987 32.0913 101.089 32.1638L102.281 33.0108ZM107.324 24.7436C107.757 25.0519 108.138 25.4127 108.464 25.8251C108.789 26.2378 109.029 26.675 109.179 27.1369C109.331 27.5996 109.38 28.0724 109.328 28.5569C109.275 29.0417 109.089 29.5102 108.766 29.963C108.504 30.3328 108.218 30.6128 107.909 30.8031C107.599 30.9939 107.278 31.1336 106.943 31.2225C106.608 31.3116 106.271 31.3706 105.931 31.4001C105.589 31.4288 105.267 31.4569 104.963 31.4838C104.658 31.5107 104.372 31.5613 104.104 31.6352C103.836 31.7088 103.616 31.838 103.444 32.0214C103.353 32.1099 103.249 32.1678 103.132 32.1958C103.015 32.2238 102.906 32.2016 102.804 32.1292L101.75 31.3801C101.649 31.308 101.585 31.2072 101.559 31.0772C101.533 30.9476 101.56 30.8352 101.642 30.7398C101.917 30.3925 102.218 30.1301 102.546 29.9528C102.873 29.7759 103.209 29.6456 103.553 29.563C103.896 29.4804 104.24 29.4287 104.582 29.4076C104.923 29.3861 105.244 29.3602 105.545 29.33C105.844 29.2998 106.111 29.2467 106.347 29.1702C106.582 29.0938 106.768 28.9587 106.906 28.7647C107.156 28.4135 107.213 28.02 107.079 27.5832C106.944 27.1468 106.632 26.7544 106.142 26.4064C105.357 25.848 104.499 25.8302 103.571 26.3529C103.453 26.4217 103.35 26.4639 103.264 26.4784C103.176 26.493 103.073 26.4577 102.953 26.3725L101.83 25.5743C101.747 25.5153 101.695 25.4367 101.674 25.3388C101.654 25.2401 101.676 25.1455 101.742 25.053C101.98 24.736 102.315 24.4761 102.744 24.2733C103.174 24.0706 103.644 23.9465 104.157 23.9006C104.669 23.8547 105.203 23.8962 105.757 24.0265C106.311 24.1561 106.833 24.3953 107.324 24.7436Z" fill="white"/>
</g>
<path d="M75.1754 65.2332H62.2436V33.8982C62.2436 28.2318 66.8373 23.6378 72.504 23.6378H73.699C79.3658 23.6378 83.9595 28.2315 83.9595 33.8982V56.4498C83.9591 61.3009 80.0265 65.2332 75.1754 65.2332Z" fill="#263238"/>
<path d="M60.9862 140.664C60.8799 141.451 60.6539 142.37 60.6117 144.597C60.5665 146.984 60.1279 147.831 60.0697 149.791C60.0034 152.029 60.39 152.867 61.2985 154.125C62.2071 155.384 64.5913 156.525 65.5988 154.398C66.6188 152.246 66.4768 150.878 66.1547 148.682C65.8216 146.412 65.7794 145.158 65.5861 143.426C65.4161 141.9 65.2123 140.741 65.2123 140.741L60.9862 140.664Z" fill="#263238"/>
<path d="M67.7629 124.805L59.899 124.662C60.0159 129.912 60.8502 135.739 60.9863 140.664C61.0118 141.591 60.963 147.868 61.3128 149.776C61.8381 152.642 65.2404 152.255 65.4209 150.54C65.6015 148.825 65.2018 141.496 65.2127 140.74C65.1829 137.581 66.6633 132.249 67.4397 126.579C67.4775 126.3 67.7269 125.076 67.7629 124.805Z" fill="#FFA8A7"/>
<path d="M77.8646 136.579C77.8646 136.579 77.5541 136.412 77.4901 136.744C77.414 137.138 77.3004 137.95 77.1366 138.597C76.9091 139.497 76.7199 140.978 76.8564 141.711C76.9929 142.444 78.7015 143.387 79.8106 143.728C81.4471 144.23 82.5701 145.051 83.4666 145.895C84.5651 146.929 86.9359 147.906 88.5502 147.894C90.4605 147.88 91.7924 147.258 92.4217 146.235C93.0791 145.166 91.8481 145.088 89.6648 143.672C89.169 143.35 88.6048 142.986 87.97 142.572C84.5113 140.312 83.2449 139.102 82.2665 136.842L77.8646 136.579Z" fill="#263238"/>
<path d="M82.2938 135.181C82.2355 133.555 83.3505 119.767 83.3505 119.767L75.8823 123.171C77.4817 132.716 77.8224 134.967 77.8508 136.529C77.8384 136.566 77.8067 136.698 77.8085 136.929C77.8155 138.784 79.9081 139.784 81.5406 141.02C82.1857 141.508 84.061 142.95 85.956 143.903C87.1422 144.499 89.5508 144.553 89.8493 143.79C87.8626 142.273 84.9732 140.002 83.393 138.27C82.6385 137.442 82.352 136.806 82.2938 135.181Z" fill="#FFA8A7"/>
<path d="M63.1216 73.5851C60.2547 79.8816 60.2547 84.7505 60.7286 92.784C61.1633 100.153 61.8563 106.64 61.8563 106.64C61.7453 107.948 59.9278 110.5 59.6927 116.278C59.4728 121.681 60.0647 128.548 60.0647 128.548C60.0647 128.548 64.1444 130.81 67.1613 128.529C67.1613 128.529 70.0722 114.628 70.9254 107.866C71.6698 101.964 72.9634 94.4234 72.9634 94.4234L75.7036 107.834C75.7036 107.834 74.6611 111.14 74.4172 113.658C74.0317 117.636 76.2565 125.447 76.2565 125.447C76.2565 125.447 80.472 126.705 83.0466 124.422C83.0466 124.422 84.0094 111.723 84.3686 106.93C84.8498 100.514 83.8379 83.1427 83.0462 73.9466L63.1216 73.5851Z" fill="#455A64"/>
<path d="M72.9634 94.4234L74.0961 84.329C74.0961 84.329 79.1707 83.6508 81.4693 81.4898C81.4693 81.4898 79.7422 84.6544 75.4903 85.2685L73.8526 94.6615L75.7039 107.834L72.9634 94.4234Z" fill="#263238"/>
<path d="M93.5102 71.1049C93.8261 68.0109 93.8141 65.9495 93.7868 65.5531C93.6762 63.9512 93.3897 63.6905 91.15 60.8521C88.1266 57.0199 85.5462 53.5757 82.8166 50.149C80.8681 47.7026 78.8199 47.3262 76.8193 47.4368C75.4205 47.5144 78.1494 54.2371 79.5242 58.2152L87.3688 66.6528C87.6101 66.9858 87.7211 67.3961 87.6807 67.8052L87.1991 74.9884L89.5484 78.1308C89.5484 78.1308 93.1058 75.0637 93.5102 71.1049Z" fill="#FFA8A7"/>
<path d="M69.2623 47.6545C67.7451 47.759 64.986 48.0018 64.986 48.0018C63.3939 48.8903 62.9917 49.6187 62.6954 51.7332C62.5694 52.6326 63.3025 55.0328 63.9322 58.4428L65.1272 64.7669L64.9977 67.9031C64.3774 69.8167 62.9742 72.1954 61.7384 75.7015C67.8157 79.0932 72.9128 79.2188 77.5353 78.6255C81.0603 78.173 82.9254 77.3198 83.5471 76.4775C83.4175 73.0137 83.1725 70.8752 83.1125 67.2563C83.0874 65.7362 83.1787 64.2027 83.2377 62.4533C85.6026 60.5106 85.6295 57.2802 84.3395 55.1919C81.3427 50.3401 78.4289 47.2854 76.499 47.442L69.2623 47.6545Z" fill="#2F80ED"/>
<path opacity="0.6" d="M69.2623 47.6545C67.7451 47.759 64.986 48.0018 64.986 48.0018C63.3939 48.8903 62.9917 49.6187 62.6954 51.7332C62.5694 52.6326 63.3025 55.0328 63.9322 58.4428L65.1272 64.7669L64.9977 67.9031C64.3774 69.8167 62.9742 72.1954 61.7384 75.7015C67.8157 79.0932 72.9128 79.2188 77.5353 78.6255C81.0603 78.173 82.9254 77.3198 83.5471 76.4775C83.4175 73.0137 83.1725 70.8752 83.1125 67.2563C83.0874 65.7362 83.1787 64.2027 83.2377 62.4533C85.6026 60.5106 85.6295 57.2802 84.3395 55.1919C81.3427 50.3401 78.4289 47.2854 76.499 47.442L69.2623 47.6545Z" fill="white"/>
<path opacity="0.1" d="M78.5334 62.5061C78.5334 62.5061 75.7575 64.6602 72.5896 63.5369C69.4221 62.4136 68.9594 59.6443 68.9594 59.6443C68.9594 59.6443 68.6231 63.2658 72.6191 64.5008C76.4757 65.6922 78.5334 62.5061 78.5334 62.5061Z" fill="black"/>
<path d="M82.2971 37.714C82.1777 42.9691 80.472 44.2682 79.6173 44.6413C78.7627 45.0144 77.1127 44.7869 75.5118 44.5219V47.6756C75.5118 47.6756 77.3594 49.6128 77.2211 51.0572C77.0795 52.5052 74.3175 52.6657 72.2423 51.2512C70.7277 50.2196 69.6459 49.0403 69.1738 48.4808C69.002 48.2773 68.9092 48.0218 68.9092 47.7553V40.3341C68.9092 40.3341 68.0319 41.2634 66.4795 40.1998C64.9307 39.1398 64.7963 37.1615 65.7442 36.0418C66.4198 35.2468 68.1368 35.1908 68.9616 36.4262C69.4242 37.3333 69.4879 38.244 70.0066 37.8669C71.3913 36.8703 70.6487 34.6048 72.3206 33.4851C72.3242 33.4851 72.3242 33.4814 72.3279 33.4814C72.828 33.2128 73.3955 32.9587 74.0299 32.7385C77.0122 31.7084 79.5951 30.8424 80.2183 28.8044C81.3937 29.5026 82.4427 31.5144 82.2971 37.714Z" fill="#FFA8A7"/>
<path d="M76.4193 42.4093C76.8002 42.4093 77.109 42.1005 77.109 41.7195C77.109 41.3385 76.8002 41.0297 76.4193 41.0297C76.0383 41.0297 75.7295 41.3385 75.7295 41.7195C75.7295 42.1005 76.0383 42.4093 76.4193 42.4093Z" fill="#B16668"/>
<path d="M75.9577 36.9172C75.9789 37.334 75.6706 37.6867 75.2698 37.706C74.8687 37.7249 74.5269 37.4028 74.5058 36.986C74.485 36.5696 74.7929 36.2165 75.1941 36.1972C75.5948 36.1787 75.937 36.5008 75.9577 36.9172Z" fill="#263238"/>
<path d="M81.4741 36.9889C81.4934 37.3675 81.2132 37.6885 80.8484 37.7056C80.4477 37.7246 80.175 37.4679 80.1539 37.0515C80.135 36.673 80.4149 36.3519 80.7796 36.3345C81.1444 36.3173 81.4552 36.6104 81.4741 36.9889Z" fill="#263238"/>
<path d="M75.023 38.7886C73.7177 38.7886 72.6555 37.7264 72.6555 36.4211C72.6555 34.8115 74.3143 34.8115 75.023 34.8115C75.7317 34.8115 77.3904 34.8115 77.3904 36.4211C77.3904 37.7268 76.3283 38.7886 75.023 38.7886ZM75.023 35.185C73.5881 35.185 73.029 35.5315 73.029 36.4215C73.029 37.5211 73.9233 38.4155 75.023 38.4155C76.1226 38.4155 77.017 37.5211 77.017 36.4215C77.017 35.5315 76.4579 35.185 75.023 35.185Z" fill="#455A64"/>
<path d="M81.0329 38.7886C79.7276 38.7886 78.6655 37.7264 78.6655 36.4211C78.6655 34.8115 80.3242 34.8115 81.0329 34.8115C81.7416 34.8115 83.4004 34.8115 83.4004 36.4211C83.4004 37.7268 82.3382 38.7886 81.0329 38.7886ZM81.0329 35.185C79.598 35.185 79.0389 35.5315 79.0389 36.4215C79.0389 37.5211 79.9333 38.4155 81.0329 38.4155C82.1326 38.4155 83.0269 37.5211 83.0269 36.4215C83.0269 35.5315 82.4678 35.185 81.0329 35.185Z" fill="#455A64"/>
<path d="M77.7581 35.6582L77.8745 40.0793L80.2016 39.3582L77.7581 35.6582Z" fill="#F28F8F"/>
<path d="M75.51 44.5208C73.82 44.2992 70.343 43.3003 69.8014 41.9259C69.8014 41.9259 69.9819 42.7896 71.0204 43.68C72.0589 44.57 75.51 45.5732 75.51 45.5732V44.5208Z" fill="#F28F8F"/>
<path d="M75.59 33.5113L74.0481 34.4511C73.7955 34.0074 73.936 33.4374 74.3619 33.1779C74.7878 32.9183 75.3378 33.0676 75.59 33.5113Z" fill="#263238"/>
<path d="M81.8712 34.5593L80.1535 33.9594C80.3027 33.4749 80.808 33.2168 81.2823 33.3824C81.7566 33.5477 82.0201 34.0748 81.8712 34.5593Z" fill="#263238"/>
<path d="M77.2033 36.6097C77.1003 36.6097 77.017 36.5245 77.017 36.4211C77.017 36.1183 77.6161 35.9224 78.1537 35.9224C78.6914 35.9224 79.0386 36.1183 79.0386 36.4211C79.0386 36.5241 78.9553 36.6078 78.8519 36.6078C78.7489 36.6078 78.6652 36.5245 78.6652 36.4211C78.6484 36.3869 78.4762 36.2959 78.1534 36.2959C77.8305 36.2959 77.4068 36.3869 77.3893 36.4244C77.3897 36.5278 77.3063 36.6097 77.2033 36.6097Z" fill="#455A64"/>
<path d="M72.8484 36.452C72.8415 36.452 72.8346 36.4517 72.8273 36.4509L68.6664 36.072C68.5918 36.0029 68.3948 35.7994 67.9846 35.6294L72.8688 36.08C72.9711 36.0913 73.0449 36.1838 73.0337 36.2864C73.0227 36.3814 72.9419 36.452 72.8484 36.452Z" fill="#455A64"/>
<path d="M55.7659 40.7884C57.1265 38.9706 58.0543 37.5968 59.2963 36.0385C60.0014 35.1537 60.4524 34.5221 61.1309 33.6143C61.5979 32.9893 61.8716 32.4622 62.3892 32.2686C62.9716 32.0506 63.5333 31.6196 63.9078 31.2261C64.1754 30.9447 64.3945 30.6219 64.626 30.3099C65.4035 29.262 66.3324 28.3265 67.3746 27.5413C68.4698 26.7161 69.6867 26.0868 70.8104 25.3005C71.4808 24.8313 72.1997 24.052 71.3836 23.3247C71.1401 23.1074 70.8307 22.9779 70.5119 22.9083C68.5313 22.4755 66.8031 23.1584 64.8659 23.6538C64.0239 23.8689 63.1955 24.1387 62.399 24.487C62.0125 24.6559 61.627 24.8397 61.3067 25.1138C60.8073 25.5411 60.5084 26.1494 60.1841 26.7205C59.313 28.2551 57.5087 29.6092 56.2387 30.8039C54.7489 32.2053 53.4173 33.4902 51.7178 35.0364C50.1883 36.428 48.6919 37.7111 47.289 39.2308C46.1286 40.4881 46.5508 41.4716 46.7161 41.8112C47.6618 43.7564 48.7206 44.4539 49.9855 45.6587C52.1765 47.7459 59.7229 53.7497 62.2265 55.7313C62.7623 56.1554 63.1831 56.7054 63.4535 57.3329L63.9315 58.4431C66.7852 58.9684 68.6893 54.6837 66.3259 49.5247C65.9426 48.6879 65.3343 47.9756 64.5907 47.4332C61.6121 45.2601 55.7659 40.7884 55.7659 40.7884Z" fill="#FFA8A7"/>
<path d="M55.7659 40.7884C55.7659 40.7884 54.4755 42.5134 52.278 43.189C52.278 43.189 54.0984 43.6534 56.59 41.4174L55.7659 40.7884Z" fill="#F28F8F"/>
<path d="M92.7694 67.3065L92.7789 67.3076L92.3122 66.9054L92.3119 66.9112C92.2067 66.8268 92.0432 66.8002 91.8321 66.8577L86.778 68.2325C86.3095 68.3599 85.801 68.835 85.6423 69.2936L82.0052 79.7873C81.9211 80.0305 81.9546 80.218 82.0722 80.3235L82.0682 80.325L82.5494 80.7396L82.549 80.7334C82.6538 80.8207 82.8191 80.8488 83.0335 80.7905L88.0876 79.4161C88.5561 79.2887 89.0646 78.8133 89.2233 78.3546C89.9378 76.2919 92.1466 69.9229 92.8608 67.8605C92.9503 67.6017 92.9059 67.4073 92.7694 67.3065Z" fill="#455A64"/>
<path d="M82.473 80.1903L86.1101 69.6965C86.2688 69.2379 86.7773 68.7629 87.2458 68.6355L92.2999 67.261C92.7684 67.1336 93.0192 67.4023 92.8604 67.8609C92.1463 69.9233 89.9375 76.2922 89.2234 78.355C89.0647 78.8137 88.5558 79.289 88.0877 79.4164L83.0335 80.7909C82.5651 80.9176 82.3143 80.6489 82.473 80.1903Z" fill="#2F80ED"/>
<path d="M86.6961 68.9267C86.4329 69.1345 86.2065 69.4206 86.1097 69.6976L82.4715 80.1881C82.3929 80.4236 82.4162 80.6082 82.5221 80.7144L82.0697 80.3264L82.0744 80.3217C81.9543 80.2154 81.9219 80.0309 82.0052 79.7862L85.6434 69.291C85.7311 69.0326 85.939 68.7694 86.1836 68.5616L86.6961 68.9267Z" fill="#37474F"/>
<path d="M91.3808 72.0884C91.0245 73.1574 89.7545 73.8705 87.6669 74.3652C85.5794 74.8599 84.423 77.0766 84.76 77.7511C85.0975 78.4256 88.4707 79.0521 89.82 78.8595C91.1693 78.6666 92.5267 76.7163 92.9351 76.1128C93.3435 75.5093 93.8196 71.2938 93.3861 70.7157C92.9522 70.1373 92.0411 70.2262 92.0411 70.2262L91.3808 72.0884Z" fill="#F28F8F"/>
</svg>
