<svg width="57" height="52" viewBox="0 0 57 52" fill="none" xmlns="http://www.w3.org/2000/svg">
<path opacity="0.7" d="M54.4004 8.96088L54.1043 9.14704C53.8101 8.5973 53.009 7.15364 51.936 5.64722C50.102 3.07238 48.3902 1.55027 46.8476 1.1228C46.1962 0.942467 45.5776 0.963654 45.0012 1.18297C45.0011 1.18297 45.0009 1.18313 45.0008 1.18313C44.9409 1.20594 44.882 1.23295 44.8229 1.26012L44.801 1.22502C44.7715 1.17796 44.7218 1.15369 44.6701 1.1503C44.6619 1.14949 44.6538 1.149 44.6456 1.14949C44.6382 1.15014 44.6311 1.15094 44.6237 1.15272C44.6058 1.15628 44.588 1.16194 44.5716 1.17246L44.1953 1.40908L44.1564 1.34713C44.152 1.34018 44.1448 1.33694 44.1396 1.3308C44.1404 1.33031 44.1409 1.3295 44.1417 1.32902C44.1365 1.32287 44.1291 1.32012 44.1233 1.31495C44.1122 1.30508 44.1019 1.29505 44.0889 1.28858C44.0794 1.28373 44.0694 1.28228 44.0594 1.27936C44.0465 1.27564 44.0342 1.27079 44.0209 1.27031C44.007 1.26966 43.9936 1.27354 43.9799 1.27629C43.97 1.27839 43.96 1.27807 43.9505 1.28195C43.9276 1.29133 43.9063 1.30557 43.8885 1.32611C43.7135 1.52892 43.6717 1.80824 43.8053 2.02173C43.8295 2.06039 43.8593 2.09322 43.8914 2.12314C43.8974 2.12864 43.9032 2.1343 43.9095 2.13964C43.9432 2.16811 43.9797 2.19253 44.0194 2.2121C44.0213 2.21307 44.0233 2.21372 44.0252 2.21453C44.1117 2.25561 44.2095 2.27469 44.3106 2.27129C44.3623 2.26952 44.4146 2.26337 44.4664 2.2493C44.5743 2.22019 44.6232 2.09322 44.5638 1.99828L44.5249 1.93618L44.9012 1.69939C44.9766 1.65201 44.9996 1.55318 44.9564 1.47636C45.0164 1.45 45.0761 1.42234 45.1371 1.40067C45.6509 1.21726 46.2012 1.20383 46.7808 1.36444C48.2453 1.77007 49.957 3.30059 51.7307 5.79036C52.8076 7.30195 53.6083 8.74933 53.8921 9.2808L53.5542 9.49332C56.5727 14.3152 56.0347 20.1209 52.3552 22.4352C52.2808 22.4819 52.2046 22.5239 52.129 22.5671C52.129 22.5671 52.1291 22.5671 52.1291 22.567C52.0144 22.6325 51.8981 22.6939 51.7803 22.7512C51.7801 22.7512 51.7801 22.7513 51.7799 22.7513C51.6625 22.8086 51.5437 22.8618 51.4235 22.9111C51.4229 22.9115 51.4222 22.9116 51.4216 22.912C51.3022 22.961 51.1813 23.0059 51.0593 23.0472C51.0577 23.0478 51.0561 23.0483 51.0545 23.0488C50.9335 23.0895 50.8113 23.1266 50.6881 23.1599C50.6853 23.1607 50.6826 23.1613 50.6797 23.1622C50.5575 23.195 50.4342 23.2241 50.3102 23.2497C50.3061 23.2505 50.3021 23.2513 50.2981 23.2522C50.1753 23.2773 50.0517 23.2987 49.9271 23.3166C49.9213 23.3174 49.9155 23.3182 49.9097 23.319C49.7869 23.3365 49.6633 23.3504 49.5392 23.3611C49.5313 23.3617 49.5236 23.3624 49.5156 23.363C49.3933 23.3731 49.2702 23.3799 49.1468 23.3834C49.1368 23.3837 49.1268 23.3839 49.1168 23.3842C48.9953 23.3873 48.8733 23.3871 48.751 23.3839C48.7384 23.3836 48.7258 23.3831 48.7132 23.3828C48.5933 23.379 48.473 23.3724 48.3523 23.3629C48.3368 23.3616 48.3215 23.3603 48.306 23.359C48.1879 23.349 48.0696 23.3362 47.9511 23.3205C47.9328 23.3181 47.9144 23.3153 47.8958 23.3127C47.7801 23.2967 47.6641 23.2781 47.5481 23.2569C47.5403 23.2555 47.5326 23.2539 47.5248 23.2524C47.521 23.2231 47.5166 23.1939 47.5126 23.1646C47.5103 23.1486 47.5081 23.1326 47.5058 23.1164C47.5058 23.1162 47.5058 23.1162 47.5058 23.1161V23.1159C47.4934 23.0281 47.4803 22.9401 47.4664 22.8524C47.4619 22.8236 47.4572 22.795 47.4526 22.7664C47.4234 22.5873 47.3911 22.4085 47.3557 22.2301C47.3506 22.204 47.3451 22.1782 47.3399 22.1521C47.3206 22.0573 47.3006 21.9626 47.2796 21.8679C47.2796 21.8678 47.2796 21.8678 47.2796 21.8676C47.2604 21.7809 47.2407 21.6944 47.22 21.608C47.2154 21.5885 47.2104 21.5689 47.2055 21.5493C47.1599 21.3619 47.1115 21.1749 47.0592 20.9889C47.0569 20.981 47.0545 20.9731 47.0522 20.9653C46.9975 20.772 46.9394 20.5796 46.8778 20.3884C46.877 20.3858 46.8762 20.3834 46.8754 20.3808C46.8144 20.1924 46.7495 20.0052 46.6818 19.8191C46.6766 19.8048 46.6716 19.7904 46.6664 19.776C46.6505 19.7325 46.634 19.6892 46.6177 19.6458V19.6455C46.6116 19.6293 46.6053 19.6133 46.5991 19.5972C46.5574 19.4872 46.5143 19.3777 46.4699 19.2685C46.4646 19.2556 46.4596 19.2425 46.4543 19.2295C46.4478 19.2137 46.4412 19.1977 46.4347 19.1818C46.3629 19.0078 46.2881 18.8352 46.2103 18.6638C46.2006 18.6426 46.1911 18.6214 46.1812 18.6002C46.1028 18.4294 46.0215 18.2602 45.9373 18.0925C45.9273 18.0726 45.9173 18.0529 45.9073 18.0332C45.8211 17.8637 45.7323 17.6956 45.6402 17.5295C45.6318 17.5143 45.6231 17.4991 45.6146 17.4839C45.5192 17.3131 45.4211 17.1443 45.3194 16.9775C45.3154 16.9707 45.3111 16.9641 45.307 16.9575C45.3057 16.9552 45.3043 16.9531 45.303 16.9508C45.3028 16.9507 45.3028 16.9507 45.3028 16.9505C45.3028 16.9503 45.3027 16.9503 45.3027 16.9502C45.1165 16.6463 44.9198 16.3493 44.7131 16.0601C44.7131 16.0601 44.7131 16.06 44.7129 16.06L44.7127 16.0598C44.7085 16.0538 44.7042 16.048 44.7 16.042C44.7 16.042 44.7 16.0419 44.6998 16.0419C44.6998 16.0419 44.6998 16.0417 44.6997 16.0417C44.5559 15.8413 44.4076 15.6446 44.2542 15.4522C44.2488 15.4455 44.2437 15.4388 44.2384 15.4321C44.1156 15.2786 43.9895 15.1282 43.8608 14.9802C43.8519 14.97 43.8432 14.9599 43.8343 14.9498C43.7065 14.8039 43.5757 14.661 43.4421 14.5209C43.4321 14.5104 43.4222 14.5 43.4122 14.4897C43.3948 14.4716 43.3777 14.4533 43.3603 14.4353C43.2452 14.3168 43.1279 14.2005 43.0087 14.0865C43.0041 14.0823 42.9998 14.0779 42.9954 14.0737C42.9883 14.0669 42.9811 14.0604 42.974 14.0536C42.8309 13.9176 42.6848 13.7847 42.5357 13.6553C42.5314 13.6514 42.5269 13.6477 42.5223 13.6438C42.4336 13.567 42.3437 13.4914 42.2527 13.4172C42.2437 13.4098 42.2346 13.4025 42.2256 13.3952C41.9731 13.1898 41.7127 12.9941 41.4443 12.8089C41.4443 12.8089 41.4443 12.8089 41.4442 12.8089C41.4442 12.8089 41.4442 12.8089 41.444 12.8089C41.4345 12.8023 41.425 12.7958 41.4154 12.7893C41.146 12.6043 40.8686 12.43 40.5837 12.2671C40.5749 12.2621 40.5662 12.2572 40.5577 12.2522C40.544 12.2445 40.5304 12.2365 40.5167 12.2288C40.5127 12.2265 40.5088 12.2242 40.5048 12.222C40.3298 12.1236 40.152 12.03 39.9715 11.9404C39.9631 11.9362 39.9549 11.9321 39.9465 11.9279C39.8558 11.8831 39.7645 11.8398 39.6723 11.7973C39.6657 11.7942 39.6589 11.7911 39.6523 11.788C39.5694 11.75 39.486 11.713 39.4021 11.6769C39.3925 11.6729 39.383 11.6688 39.3735 11.6646C39.1883 11.5855 39.0006 11.511 38.81 11.4413C38.8031 11.4387 38.796 11.4363 38.7891 11.4337C38.7632 11.4243 38.7373 11.4149 38.7113 11.4057C38.7113 11.4057 38.7113 11.4057 38.7111 11.4057C38.7074 11.4044 38.7037 11.4031 38.7002 11.4018C38.4973 11.33 38.2916 11.2637 38.0831 11.2027C38.081 11.2021 38.0789 11.2014 38.0768 11.2009C37.8695 11.1406 37.6593 11.0858 37.4461 11.0366C37.443 11.036 37.4398 11.0352 37.4367 11.0345C37.2238 10.9857 37.0082 10.9423 36.7895 10.9051C36.7868 10.9046 36.7842 10.9043 36.7816 10.9038C36.5617 10.8665 36.339 10.8351 36.1135 10.8099C36.0957 10.8079 36.0778 10.8061 36.0601 10.8042C35.7958 9.80903 35.7217 8.94471 35.85 8.24002C35.9579 7.64709 36.2095 7.15622 36.5975 6.77226C36.6437 6.72665 36.6945 6.68476 36.7444 6.64206C36.7945 6.71452 36.8933 6.73668 36.9687 6.68929L37.3449 6.45251L37.3838 6.51462C37.4432 6.60955 37.5786 6.62071 37.6517 6.5358C37.7041 6.47499 37.743 6.4069 37.7704 6.33622C37.7707 6.33525 37.7711 6.33444 37.7714 6.33363C37.7959 6.26942 37.8096 6.20311 37.8117 6.1368C37.8121 6.12952 37.8129 6.12224 37.8127 6.11513C37.8125 6.10041 37.8112 6.08585 37.81 6.07129C37.8088 6.05739 37.8074 6.04364 37.8051 6.02989C37.8032 6.01776 37.8008 6.00563 37.7979 5.99366C37.7938 5.97668 37.7887 5.96002 37.7829 5.94352C37.7796 5.9343 37.7769 5.92492 37.773 5.91587C37.7624 5.89015 37.7501 5.86476 37.7348 5.8405C37.6512 5.70706 37.5148 5.62426 37.3611 5.59805C37.3304 5.59272 37.2989 5.58981 37.2672 5.58916C37.2354 5.58851 37.2031 5.59013 37.1708 5.59401C37.1386 5.59789 37.106 5.60436 37.0737 5.6131C37.0498 5.61956 37.0295 5.63137 37.0119 5.64593C37.0106 5.64706 37.0091 5.64771 37.0079 5.64884C36.9911 5.66372 36.9782 5.68183 36.9685 5.70173C36.9678 5.70286 36.9672 5.70399 36.9667 5.70512C36.9572 5.72599 36.9524 5.74847 36.9519 5.7716C36.9519 5.77176 36.9519 5.77208 36.9519 5.77224C36.9514 5.79602 36.9562 5.8198 36.9664 5.84276C36.9696 5.84988 36.972 5.85716 36.9764 5.86395L37.0153 5.92589L36.6388 6.16268C36.6224 6.17303 36.6095 6.18661 36.5985 6.20117C36.5938 6.20715 36.59 6.21314 36.5861 6.21961C36.582 6.22688 36.579 6.23432 36.5762 6.24209C36.5567 6.29012 36.5569 6.3456 36.5864 6.39266L36.6083 6.42776C36.0772 6.86801 35.7383 7.45948 35.6042 8.19522C35.4718 8.92352 35.5355 9.78752 35.7888 10.7778C35.4513 10.7495 35.1081 10.7342 34.7587 10.7342C34.6298 10.7342 34.5027 10.7364 34.3765 10.74C34.2627 10.7427 34.1504 10.7476 34.0386 10.7529C34.0384 10.7529 34.0383 10.7529 34.0381 10.7529C33.4563 10.7806 32.8996 10.8409 32.3679 10.9297C32.2246 10.9536 32.083 10.9797 31.9432 11.0077C31.8029 11.0358 31.6641 11.0657 31.5273 11.0976C31.5198 11.0892 31.5131 11.0804 31.5056 11.0722C31.4622 11.0232 31.4171 10.9747 31.3714 10.9261C31.3598 10.9138 31.3482 10.9017 31.3365 10.8896C31.2925 10.8437 31.2478 10.798 31.2018 10.7528C31.1992 10.7502 31.1968 10.7476 31.1941 10.745C31.1449 10.6968 31.0943 10.6492 31.0432 10.602C31.0322 10.592 31.0213 10.582 31.0103 10.5719C30.9612 10.5273 30.9114 10.4831 30.8605 10.4396C30.8576 10.4372 30.8549 10.4348 30.8522 10.4324C30.7968 10.3851 30.7402 10.3389 30.6829 10.2933C30.6747 10.2866 30.6663 10.2802 30.6579 10.2737C30.6022 10.2299 30.5457 10.1867 30.4881 10.1446C30.4864 10.1433 30.4846 10.142 30.483 10.1407C30.4212 10.0956 30.3584 10.0518 30.2948 10.0089C30.2905 10.006 30.2861 10.0031 30.2818 10.0004C29.6915 9.60508 29.0238 9.31427 28.3282 9.23357H28.3281C27.8827 9.18197 27.4263 9.21561 26.9712 9.36457C25.3864 9.88326 24.4096 11.5593 24.0678 14.3461C24.0538 14.4604 24.0423 14.5756 24.0291 14.6902C22.1464 12.8039 19.0264 10.7343 14.3999 10.7343C13.5352 10.7343 12.7061 10.8234 11.9153 10.9908C11.7064 11.035 11.5003 11.0853 11.2967 11.1403C11.2933 11.1413 11.2899 11.1421 11.2865 11.1429C11.0819 11.1983 10.8801 11.2595 10.681 11.3255C8.88426 11.921 7.31459 12.9356 6.00519 14.2275C5.9939 14.2387 5.98277 14.25 5.97147 14.2611C5.89257 14.3394 5.8148 14.4188 5.73783 14.4992C5.72557 14.5122 5.71314 14.5251 5.70088 14.538C5.62133 14.6217 5.54291 14.7064 5.46546 14.7921C5.45868 14.7996 5.45191 14.807 5.44513 14.8144C5.18745 15.101 4.94122 15.3988 4.70709 15.7064C4.69967 15.7161 4.69241 15.726 4.68499 15.7357C4.61657 15.8261 4.54912 15.9175 4.48264 16.0095C4.47087 16.0259 4.45925 16.0422 4.44747 16.0585C4.38406 16.1473 4.32161 16.2368 4.25998 16.3268C4.24949 16.3422 4.23884 16.3576 4.22851 16.3729C4.16058 16.4732 4.09378 16.5743 4.02827 16.6764C4.02601 16.6799 4.02375 16.6833 4.02149 16.6867C3.88095 16.906 3.7459 17.1292 3.61633 17.3558C3.61246 17.3626 3.60874 17.3694 3.60487 17.3762C3.54711 17.4776 3.49063 17.5798 3.43513 17.6825C3.42367 17.7036 3.41254 17.7249 3.40124 17.7459C3.353 17.8363 3.30556 17.9272 3.25909 18.0186C3.24666 18.043 3.23424 18.0673 3.22198 18.0919C3.17518 18.1849 3.12952 18.2784 3.0845 18.3722C3.07498 18.3922 3.06514 18.4121 3.05562 18.4323C2.94557 18.6648 2.84102 18.8998 2.7421 19.1373C2.74146 19.139 2.74081 19.1407 2.74001 19.1424C2.69321 19.2549 2.64787 19.3681 2.60366 19.4818C2.59334 19.5084 2.58349 19.5349 2.57333 19.5614C2.5388 19.6517 2.50475 19.7422 2.47184 19.8331C2.46006 19.8656 2.44844 19.8982 2.43682 19.9308C2.40584 20.0177 2.37583 20.1049 2.3463 20.1922C2.33517 20.225 2.32403 20.2579 2.31322 20.2909C2.2824 20.3843 2.25255 20.478 2.22351 20.5719C2.2156 20.5972 2.20753 20.6224 2.19979 20.6478C2.1267 20.8878 2.05909 21.1293 1.99713 21.3721C1.98954 21.4017 1.98261 21.4313 1.97518 21.4609C1.95275 21.5509 1.93081 21.641 1.91 21.7313C1.9008 21.7707 1.89208 21.8104 1.88321 21.8498C1.86498 21.9313 1.84739 22.013 1.83045 22.0949C1.82173 22.1367 1.81318 22.1786 1.80479 22.2207C1.78833 22.303 1.77284 22.3855 1.75768 22.468C1.75041 22.5073 1.74299 22.5466 1.73605 22.5861C1.71927 22.682 1.70362 22.778 1.68845 22.8741C1.68458 22.8992 1.68006 22.9242 1.67635 22.9493C1.65796 23.0708 1.64085 23.1924 1.62536 23.3142C1.62198 23.341 1.61907 23.3677 1.61584 23.3946C1.60423 23.4887 1.59325 23.5828 1.58341 23.6771C1.57905 23.7192 1.57518 23.7612 1.57115 23.8033C1.5634 23.8829 1.55614 23.9623 1.54969 24.0418C1.54598 24.0875 1.54259 24.1331 1.53936 24.1788C1.53371 24.2565 1.52887 24.3341 1.52436 24.4117C1.52177 24.4565 1.51919 24.5013 1.5171 24.546C1.51306 24.6288 1.51016 24.7114 1.50741 24.7941C1.50612 24.8326 1.50451 24.8711 1.5037 24.9096C1.5008 25.0301 1.49902 25.1505 1.49902 25.2707C1.49902 25.4375 1.50257 25.6036 1.50806 25.769C1.50838 25.7763 1.5087 25.7834 1.50903 25.7905C1.51467 25.952 1.52339 26.1126 1.5342 26.2728C1.6273 27.6398 1.91032 28.9656 2.36663 30.2624C2.74953 31.351 3.25441 32.4195 3.87159 33.4753C3.87304 33.4779 3.87466 33.4803 3.87611 33.4829C4.82343 35.1019 6.0344 36.6916 7.47418 38.2785C7.47982 38.2848 7.48547 38.2912 7.49128 38.2973C7.70362 38.531 7.92081 38.7649 8.14283 38.9986C8.14445 39.0004 8.14622 39.0022 8.14799 39.0039C8.36486 39.232 8.58559 39.4602 8.81149 39.6886C8.48297 40.6637 8.24061 41.6692 8.09394 42.6944C7.91742 43.9278 7.91096 45.5172 8.68047 46.6872C8.72613 46.7565 8.7747 46.8241 8.82569 46.8904C8.84941 46.9211 8.87474 46.9505 8.89975 46.9805C8.93944 47.0283 8.98075 47.0754 9.02367 47.1213C9.04674 47.1459 9.06966 47.1707 9.0937 47.1948C9.16244 47.2637 9.23392 47.3309 9.31088 47.3947C9.94662 47.9206 10.7014 48.1344 11.4863 48.1344C12.6892 48.1343 13.9623 47.6323 14.9828 46.9832C15.3924 46.7228 15.7901 46.4399 16.1759 46.1357C16.2143 46.166 16.253 46.1965 16.2916 46.2268C16.2966 46.2306 16.3014 46.2345 16.3064 46.2384C17.1729 46.9217 18.0681 47.6125 18.9901 48.3124C18.9903 48.3125 18.9904 48.3125 18.9906 48.3127C19.4011 48.6243 19.8169 48.9378 20.2377 49.2533C20.2379 49.2535 20.2379 49.2535 20.238 49.2537C20.614 49.5356 20.994 49.8189 21.3778 50.1041C21.378 50.1042 21.3783 50.1044 21.3785 50.1046C21.6799 50.3284 21.9831 50.5532 22.2892 50.7793C22.2948 50.7835 22.3005 50.7877 22.3061 50.7918C22.3344 50.8126 22.3629 50.8337 22.3913 50.8545C22.4 50.861 22.4087 50.8673 22.4175 50.8738C22.755 51.1229 23.0947 51.3731 23.4377 51.625C23.7778 51.8751 24.1783 52 24.5808 52C24.9832 52 25.3838 51.8749 25.7238 51.625C31.081 47.6894 35.7845 44.1053 39.4487 40.5747C39.6481 40.6797 39.8498 40.7816 40.0567 40.8765C41.09 41.3507 42.1648 41.6719 43.246 41.8421C43.2628 41.8447 43.2796 41.8476 43.2964 41.8502C43.3982 41.8657 43.5 41.8801 43.6018 41.893C43.6183 41.8951 43.6349 41.8968 43.6513 41.8989C43.8309 41.9207 44.0105 41.9382 44.19 41.9516C44.2295 41.9545 44.2689 41.9577 44.3084 41.9603C44.3954 41.9658 44.4823 41.9707 44.5693 41.9742C44.6254 41.9765 44.6814 41.9778 44.7376 41.9792C44.8609 41.9825 44.984 41.9839 45.1068 41.983C45.18 41.9825 45.2531 41.9818 45.3261 41.9799C45.393 41.9781 45.46 41.9758 45.5268 41.9729C45.6262 41.9686 45.7254 41.9626 45.8245 41.9556C45.8874 41.9511 45.9502 41.9461 46.0129 41.9406C46.1194 41.9312 46.2256 41.9202 46.3316 41.9076C46.3803 41.9018 46.4289 41.8958 46.4776 41.8893C46.6082 41.872 46.7382 41.8531 46.8678 41.8309C46.8849 41.828 46.902 41.8249 46.9191 41.8219C47.0503 41.7989 47.1807 41.7727 47.3107 41.7447C47.3478 41.7368 47.385 41.7285 47.4221 41.7201C47.562 41.6884 47.7014 41.655 47.8398 41.6174C51.6578 40.5838 54.8531 37.4606 55.9807 33.6613C57.0853 29.9386 56.172 25.6731 53.6575 22.7206C57.1032 19.8357 57.494 13.9032 54.4004 8.96088ZM52.6601 23.415C52.7357 23.3713 52.8118 23.3296 52.886 23.2828C52.9196 23.2616 52.9511 23.2382 52.9843 23.2165C55.3499 25.9599 56.2137 29.9464 55.182 33.4232C54.1351 36.9517 51.1674 39.8519 47.6218 40.812C46.0462 41.2386 44.3855 41.2437 42.7923 40.9027H42.7925C42.1864 40.773 41.5902 40.5928 41.0124 40.3664C41.0088 40.3649 41.0053 40.3636 41.0016 40.3622C40.6897 40.2396 40.3849 40.1 40.0849 39.9511C40.6151 39.4232 41.1213 38.8959 41.6026 38.3686C41.6029 38.3683 41.6033 38.368 41.6036 38.3677C41.7225 38.2373 41.84 38.1069 41.9558 37.9766C41.9561 37.9761 41.9566 37.9758 41.957 37.9753L41.9571 37.9751C41.9571 37.9751 41.9571 37.975 41.9573 37.975C41.9574 37.9748 41.9574 37.9748 41.9576 37.9746C41.9578 37.9745 41.9578 37.9745 41.9579 37.9743C42.0735 37.8441 42.1875 37.7141 42.3 37.5839C42.3002 37.5837 42.3005 37.5834 42.3006 37.5832C42.3008 37.5831 42.301 37.5829 42.3011 37.5828C42.3014 37.5823 42.3018 37.5819 42.3023 37.5815C42.4142 37.4517 42.5248 37.322 42.6337 37.1923L42.6338 37.1922C42.6338 37.1922 42.6338 37.192 42.634 37.192C42.634 37.1918 42.6342 37.1918 42.6342 37.1917C42.6343 37.1915 42.6343 37.1914 42.6345 37.1914C42.6356 37.1901 42.6366 37.1888 42.6377 37.1875L42.6379 37.1873C42.6379 37.1873 42.6379 37.1873 42.638 37.1871C42.638 37.1871 42.638 37.1871 42.6382 37.187C42.7466 37.0578 42.8534 36.9284 42.9586 36.7991C42.9588 36.799 42.9588 36.799 42.959 36.7988C42.9591 36.7987 42.9593 36.7985 42.9595 36.7983C42.9606 36.797 42.9616 36.7956 42.9627 36.7943C42.963 36.794 42.9632 36.7936 42.9635 36.7933C42.9636 36.7932 42.9637 36.793 42.9638 36.7928C42.964 36.7927 42.9641 36.7923 42.9643 36.7922C42.9645 36.792 42.9646 36.7917 42.9648 36.7915C43.0692 36.6631 43.172 36.5347 43.2731 36.4061C43.2759 36.4026 43.2788 36.399 43.2815 36.3954C43.2817 36.3951 43.282 36.3948 43.2822 36.3946C43.2825 36.3943 43.2827 36.394 43.283 36.3937C43.3829 36.2667 43.4814 36.1396 43.5781 36.0125C43.5781 36.0125 43.5781 36.0123 43.5783 36.0123C43.5783 36.0123 43.5783 36.0121 43.5784 36.0121C43.5818 36.0078 43.5849 36.0034 43.5883 35.999C43.5884 35.9989 43.5884 35.9987 43.5886 35.9987C43.5887 35.9985 43.5887 35.9985 43.5889 35.9984C43.6851 35.8717 43.7799 35.7451 43.873 35.6185C43.8776 35.6123 43.8819 35.606 43.8866 35.5999C43.9786 35.4744 44.0693 35.3488 44.1582 35.2232C44.1632 35.2162 44.168 35.2091 44.1728 35.2022C44.1728 35.202 44.173 35.202 44.173 35.2018L44.1732 35.2017C44.1732 35.2017 44.1732 35.2015 44.1733 35.2015C44.2611 35.0773 44.3474 34.9528 44.4321 34.8282C44.4321 34.8282 44.4321 34.8281 44.4323 34.8281C44.4323 34.8281 44.4323 34.8279 44.4325 34.8279C44.4391 34.8182 44.4455 34.8083 44.4522 34.7986C44.5351 34.6762 44.6169 34.5538 44.6969 34.431L44.6971 34.4308C44.6971 34.4308 44.6971 34.4307 44.6973 34.4307C44.704 34.4203 44.7105 34.41 44.7173 34.3996C44.7173 34.3996 44.7173 34.3996 44.7173 34.3995C44.7965 34.2777 44.8744 34.1557 44.9507 34.0336V34.0334C44.9585 34.021 44.9661 34.0084 44.9738 33.9959C44.974 33.9958 44.974 33.9956 44.9741 33.9954C44.9743 33.9953 44.9743 33.9951 44.9745 33.995C45.049 33.8751 45.1224 33.7551 45.1941 33.6349C45.1941 33.6349 45.1941 33.6348 45.1941 33.6346C45.1941 33.6344 45.1942 33.6343 45.1942 33.6343C45.2028 33.62 45.2108 33.6056 45.2192 33.5914C45.2896 33.4727 45.359 33.3538 45.4264 33.2348C45.4361 33.2176 45.4455 33.2005 45.4551 33.1834C45.5208 33.0669 45.5855 32.9503 45.6484 32.8334C45.6586 32.8146 45.6681 32.7958 45.6781 32.7771C45.6783 32.7767 45.6785 32.7764 45.6788 32.7759V32.7758C45.6789 32.7755 45.6791 32.7751 45.6793 32.7748C45.6794 32.7745 45.6796 32.7742 45.6797 32.7738C45.7407 32.6597 45.8009 32.5453 45.8593 32.4306C45.8701 32.4093 45.8805 32.3879 45.8913 32.3666C45.8914 32.3663 45.8916 32.3659 45.8918 32.3655C45.8919 32.3653 45.8919 32.3651 45.8921 32.3648C45.949 32.2521 46.0052 32.1393 46.0594 32.0263C46.0709 32.0024 46.0817 31.9784 46.093 31.9545C46.1457 31.8432 46.198 31.7319 46.2482 31.6203C46.2601 31.5938 46.2713 31.5673 46.2831 31.5408C46.3316 31.4316 46.3795 31.3224 46.4257 31.2129C46.4381 31.1835 46.4496 31.154 46.4618 31.1246C46.4618 31.1244 46.462 31.1241 46.4622 31.124C46.4622 31.124 46.4622 31.1238 46.4623 31.1238C46.4623 31.1236 46.4625 31.1235 46.4625 31.1233C46.4625 31.1232 46.4626 31.123 46.4626 31.1228C46.5067 31.0166 46.5503 30.9103 46.592 30.8037C46.605 30.7707 46.6169 30.7376 46.6295 30.7046C46.6295 30.7044 46.6295 30.7044 46.6296 30.7043C46.6296 30.7043 46.6296 30.7041 46.6298 30.7039C46.6697 30.6003 46.7092 30.4964 46.7468 30.3924C46.7599 30.3564 46.7718 30.3203 46.7845 30.2842C46.7849 30.2833 46.7852 30.2823 46.7855 30.2813C46.7857 30.2807 46.786 30.28 46.7862 30.2794C46.8215 30.1794 46.8567 30.0795 46.8899 29.9792C46.903 29.9399 46.9148 29.9006 46.9275 29.8613C46.9277 29.8608 46.9277 29.8605 46.9278 29.86C46.928 29.8595 46.928 29.8592 46.9282 29.8587C46.9599 29.7604 46.9916 29.662 47.0214 29.5632C47.0338 29.5221 47.045 29.4809 47.0569 29.4396C47.0571 29.439 47.0572 29.4383 47.0574 29.4377C47.0576 29.4374 47.0576 29.4371 47.0577 29.4367C47.0579 29.4364 47.0579 29.4361 47.058 29.4358C47.0582 29.4354 47.0582 29.4351 47.0584 29.4348C47.0864 29.3386 47.1147 29.2422 47.141 29.1456C47.141 29.1456 47.141 29.1456 47.141 29.1454V29.1451C47.1532 29.0998 47.1642 29.0544 47.176 29.0091C47.2007 28.9148 47.2255 28.8205 47.2483 28.7259V28.7257C47.2602 28.6761 47.2707 28.6261 47.2822 28.5763C47.2822 28.576 47.2823 28.5758 47.2823 28.5756C47.2823 28.5755 47.2825 28.5752 47.2825 28.5748C47.3033 28.4843 47.3244 28.3939 47.3436 28.3031C47.3436 28.3031 47.3436 28.3031 47.3436 28.303C47.3546 28.2506 47.3641 28.1977 47.3746 28.1451C47.3746 28.1448 47.3748 28.1445 47.3748 28.1441C47.3748 28.1438 47.3749 28.1435 47.3749 28.1432C47.3925 28.0549 47.4106 27.9665 47.4266 27.8779C47.4367 27.8213 47.4453 27.7645 47.4548 27.7079C47.455 27.7068 47.4551 27.7058 47.4553 27.7047C47.4555 27.7036 47.4556 27.7024 47.4558 27.7015C47.4698 27.618 47.4845 27.5345 47.4971 27.4508V27.4506C47.5068 27.3864 47.5145 27.3215 47.5232 27.2572C47.5232 27.257 47.5232 27.2567 47.5234 27.2565C47.5236 27.2564 47.5234 27.256 47.5234 27.2559C47.534 27.1776 47.5457 27.0995 47.555 27.0209C47.5637 26.9486 47.5703 26.8758 47.5779 26.8032C47.5779 26.8027 47.5779 26.8022 47.5781 26.8019C47.5781 26.8014 47.5783 26.8009 47.5783 26.8006C47.5857 26.7297 47.5941 26.6591 47.6005 26.5879C47.6078 26.507 47.6128 26.4257 47.6188 26.3446C47.6234 26.2804 47.6292 26.2164 47.6331 26.152C47.6386 26.0614 47.6417 25.9706 47.6454 25.8797C47.6476 25.824 47.6512 25.7687 47.6528 25.7129C47.6572 25.5661 47.6594 25.4189 47.6594 25.271C47.6594 25.1425 47.6572 25.0136 47.6539 24.8845V24.8842C47.653 24.8476 47.6515 24.8111 47.6504 24.7745C47.6504 24.7743 47.6504 24.7743 47.6504 24.7742C47.6504 24.774 47.6504 24.774 47.6504 24.7739C47.6494 24.746 47.6488 24.7181 47.6476 24.6902C47.647 24.6746 47.6467 24.6587 47.646 24.643C47.6438 24.5895 47.6407 24.5359 47.638 24.4824C47.636 24.4467 47.6342 24.4109 47.6321 24.3752C47.6302 24.3433 47.6289 24.3116 47.6268 24.2798C49.3975 24.5539 51.1466 24.2901 52.6601 23.415ZM27.469 10.094C27.5245 10.0827 27.5803 10.0757 27.6362 10.0689C27.6586 10.066 27.6809 10.0617 27.7035 10.0596C27.7766 10.0528 27.85 10.0495 27.9232 10.0495C27.9269 10.0495 27.9306 10.0492 27.9345 10.0492C28.0123 10.0495 28.0899 10.0536 28.1675 10.0609C29.0797 10.1472 29.9684 10.7146 30.6132 11.345C27.9808 12.1621 26.086 13.663 24.8271 15.0043C24.8286 15.0027 24.83 15.0011 24.8315 14.9996C24.852 14.8156 24.8712 14.6309 24.8938 14.4475C25.1928 12.0101 25.9786 10.5666 27.2296 10.1571C27.3089 10.1309 27.3888 10.1105 27.469 10.094ZM15.504 45.6017C15.1941 45.8383 14.8722 46.0649 14.5362 46.2785C13.0964 47.1943 11.1068 47.7993 9.83997 46.7513C9.57131 46.5289 9.36865 46.2568 9.21714 45.9544C9.2031 45.9266 9.19083 45.8978 9.1776 45.8695C9.15727 45.8255 9.13759 45.7813 9.11935 45.7364C9.10645 45.7047 9.09435 45.6725 9.08257 45.6403C9.06643 45.5963 9.0511 45.5517 9.03674 45.5067C9.02642 45.4745 9.01577 45.4423 9.00641 45.4097C8.99172 45.3589 8.97849 45.3075 8.96575 45.2559C8.95913 45.2289 8.95154 45.2022 8.94541 45.175C8.92831 45.0987 8.9133 45.0213 8.90023 44.9435C8.89539 44.9144 8.89168 44.8852 8.88733 44.8559C8.87942 44.8032 8.872 44.7503 8.8657 44.6972C8.86183 44.6634 8.85844 44.6295 8.85522 44.5955C8.85038 44.5455 8.84618 44.4954 8.84263 44.4452C8.84037 44.4118 8.83795 44.3783 8.83618 44.3448C8.83327 44.2903 8.8315 44.2358 8.83004 44.1811C8.82924 44.153 8.82811 44.1248 8.82762 44.0969C8.82649 44.016 8.82666 43.9353 8.82843 43.8549C8.82892 43.8357 8.82988 43.8164 8.83037 43.7972C8.83214 43.7338 8.83456 43.6707 8.83795 43.6079C8.83956 43.5785 8.8415 43.5494 8.84344 43.5203C8.84682 43.4671 8.8507 43.4142 8.85505 43.3618C8.85747 43.3325 8.86006 43.3032 8.8628 43.2741C8.8678 43.2199 8.87345 43.1664 8.87942 43.1132C8.88216 43.0883 8.88474 43.0632 8.88765 43.0385C8.89684 42.9621 8.90653 42.8866 8.91702 42.8128C9.03706 41.9742 9.2244 41.1494 9.47272 40.3447C9.98648 40.8456 10.5215 41.3475 11.0764 41.8511C11.0822 41.8565 11.0882 41.8618 11.094 41.8672C11.3543 42.1031 11.6186 42.3396 11.8876 42.5764C11.8898 42.5783 11.8919 42.5803 11.8942 42.5822C12.9801 43.5385 14.1357 44.503 15.3536 45.481C15.3624 45.4881 15.3712 45.4951 15.3799 45.5022C15.4213 45.5352 15.4624 45.5685 15.504 45.6017Z" fill="#E97C7C"/>
<path d="M23.5814 50.9989C23.179 50.9989 22.7783 50.8738 22.4384 50.6238C9.59205 41.1874 0.5 33.7736 0.5 24.2691C0.5 17.2778 5.43344 9.73242 13.4012 9.73242C18.5121 9.73242 21.7847 12.2579 23.5816 14.2722C25.3784 12.2581 28.6491 9.73242 33.76 9.73258C41.7279 9.73258 46.6612 17.2779 46.6612 24.2693C46.6612 33.7729 37.5691 41.1876 24.7248 50.6239C24.3845 50.8738 23.984 50.9989 23.5814 50.9989Z" fill="#E94F5F"/>
<path d="M33.7603 9.73242C33.5155 9.73242 33.2762 9.74002 33.0399 9.75118C36.665 12.5432 38.7364 17.3044 38.7364 21.834C38.7364 31.041 30.2029 38.2875 17.9912 47.3111C19.4139 48.391 20.899 49.4928 22.4387 50.6238C22.7788 50.8738 23.1793 50.9989 23.5817 50.9989C23.9841 50.9989 24.3848 50.8738 24.7249 50.6238C37.5694 41.1874 46.6613 33.7728 46.6613 24.2691C46.6615 17.2778 41.7282 9.73242 33.7603 9.73242Z" fill="#DD465C"/>
<path d="M35.2849 9.82812C39.7049 12.4083 42.2714 17.7383 42.2714 22.7806C42.2714 32.2734 33.2 39.6821 20.3789 49.1029C21.054 49.6045 21.7404 50.111 22.4386 50.6239C22.7787 50.874 23.1792 50.999 23.5817 50.999C23.9841 50.999 24.3847 50.874 24.7249 50.6239C37.5694 41.1875 46.6613 33.7729 46.6613 24.2693C46.6613 17.7356 42.3523 10.7188 35.2849 9.82812Z" fill="#D03C57"/>
<path d="M3.7657 27.4573C3.51835 27.6166 3.36264 27.9346 3.41863 28.2118C3.44799 28.2958 3.52157 28.3687 3.66615 28.2584C3.76958 28.1728 3.86219 28.0742 3.93835 27.9632C4.03872 27.8173 4.10035 27.6496 4.30576 27.6721C4.51213 27.6946 4.7461 27.8699 4.9302 27.9611C5.15659 28.0734 5.38297 28.1858 5.60951 28.298C5.79878 28.3918 5.98966 28.4864 6.1941 28.539C6.40741 28.5938 6.6325 28.6016 6.84888 28.5615C6.96344 28.5403 7.09866 28.4774 7.10011 28.3606C7.10124 28.2767 7.02992 28.2118 6.96328 28.161C6.33964 27.6858 5.58676 27.3829 4.80838 27.2938C4.45179 27.2532 4.06776 27.2627 3.7657 27.4573Z" fill="#D84253"/>
<path d="M7.65778 28.9579C7.60179 29.016 7.53644 29.0682 7.50111 29.1407C7.46577 29.2131 7.47335 29.316 7.54306 29.3564C7.64132 29.4137 7.75024 29.3111 7.84528 29.2485C8.02261 29.1318 8.25189 29.1507 8.46391 29.1489C8.6243 29.1476 8.78792 29.1311 8.93459 29.0658C9.08126 29.0004 9.2097 28.8798 9.25359 28.7252C9.29748 28.5704 9.23939 28.3837 9.09917 28.3056C9.00688 28.2542 8.8957 28.254 8.79017 28.2551C8.52716 28.2581 8.25835 28.2629 8.00389 28.3208C7.73314 28.387 7.72668 28.5042 7.73959 28.5827C7.74282 28.5993 7.74588 28.616 7.74895 28.6318C7.81123 28.8769 7.7199 28.877 7.65778 28.9579Z" fill="#D84253"/>
<path d="M29.4214 11.4181C29.5038 11.5384 29.6029 11.6694 29.7471 11.689C29.9048 11.7103 30.0426 11.5897 30.1559 11.4777C30.299 11.3365 30.4421 11.1952 30.5852 11.054C30.6664 10.9738 30.7513 10.8876 30.7774 10.7763C30.8289 10.5578 30.496 10.3781 30.3256 10.316C30.2073 10.2728 30.0645 10.2754 29.9666 10.3548C29.829 10.4664 29.8183 10.6904 29.6723 10.7907C29.5719 10.8596 29.4269 10.8541 29.3446 10.944C29.286 11.0079 29.2768 11.1056 29.2995 11.1894C29.3225 11.2731 29.3723 11.3464 29.4214 11.4181Z" fill="#D84253"/>
<path d="M38.0221 16.136C37.8672 16.0733 37.6951 16.072 37.5282 16.0815C37.4687 16.0849 37.4082 16.0898 37.3524 16.1111C37.2819 16.1381 37.2128 16.2002 37.2149 16.2819C37.2168 16.3566 37.2677 16.3649 37.3285 16.3822C37.5205 16.4372 37.7046 16.5612 37.8821 16.6523C37.9486 16.6864 38.0168 16.721 38.0909 16.7302C38.1651 16.7395 38.2474 16.7179 38.2923 16.6581C38.3249 16.6144 38.3332 16.5567 38.3279 16.5024C38.3118 16.3358 38.1771 16.1988 38.0221 16.136Z" fill="#D84253"/>
<path d="M46.6612 24.269C46.6612 23.1378 46.5313 21.9924 46.281 20.8665C46.0324 20.6186 45.8368 20.3173 45.7175 19.9867C45.6769 19.8738 45.6446 19.7492 45.6817 19.635C45.7142 19.5349 45.7929 19.4631 45.8871 19.4128C45.7174 18.8841 45.5204 18.3635 45.2974 17.8545C45.1801 18.006 45.035 18.1227 44.8464 18.159C44.6855 18.1901 44.5203 18.155 44.3568 18.1474C43.9141 18.1267 43.49 18.3059 43.0579 18.4049C42.6258 18.5039 42.1187 18.5026 41.8026 18.1912C41.5923 17.984 41.3179 17.8035 41.0231 17.8019C40.6992 17.8001 40.3957 18.0675 40.3557 18.3895C40.3262 18.6276 40.4096 18.9148 40.2342 19.078C40.0864 19.2153 39.8518 19.1655 39.659 19.1073C39.573 19.0813 39.487 19.0552 39.401 19.0292C39.2475 18.9828 38.5598 18.6407 38.3422 18.5448L38.3415 18.5462C38.1621 18.4634 37.9628 18.4175 37.7687 18.4109C37.5557 18.4034 37.3195 18.4424 37.1484 18.315C37.0269 18.2245 36.9703 18.0669 36.9663 17.9153C36.965 17.8674 36.9692 17.82 36.9756 17.7728H36.9747C36.9766 17.7621 36.9789 17.7494 36.9811 17.7371C36.9839 17.7206 36.9856 17.7041 36.989 17.6877C37.0092 17.5529 37.0148 17.3536 36.8717 17.1443C36.8575 17.1236 36.8436 17.1024 36.8283 17.0835C36.7572 16.9955 36.6763 16.9143 36.5821 16.8519C36.4754 16.781 36.352 16.7392 36.225 16.7235C36.221 16.7227 36.2186 16.7212 36.2142 16.7206C36.206 16.7194 36.1969 16.7199 36.1884 16.7191C36.1724 16.7178 36.1566 16.7168 36.1406 16.7165C35.926 16.7084 35.6788 16.7728 35.5141 16.8263C35.4676 16.8383 35.4215 16.8548 35.3758 16.8742C35.3726 16.8753 35.3674 16.8773 35.3645 16.8782L35.3655 16.8789C35.1917 16.9544 35.025 17.073 34.8712 17.1703C34.6662 17.3005 34.4388 17.394 34.2026 17.4501C34.1708 17.4636 34.124 17.4744 34.0556 17.4814C34.034 17.4836 34.0161 17.4867 33.9956 17.4891C33.9691 17.4928 33.9428 17.4967 33.9163 17.4995C33.5767 17.5501 33.4027 17.6405 33.2791 17.7156C33.2667 17.7232 33.2541 17.7308 33.2417 17.7384C33.2302 17.7455 33.2185 17.7528 33.2077 17.7594L33.2075 17.7592C33.0287 17.8671 32.849 17.9743 32.6779 18.0887C32.5156 18.1972 32.3509 18.307 32.1653 18.3674C31.9797 18.4278 31.7677 18.4337 31.5973 18.3386C31.4758 18.271 31.3603 18.151 31.2243 18.1793C31.0718 18.211 31.0213 18.4005 31.004 18.5555C30.9868 18.7106 30.9463 18.8995 30.7968 18.9431C30.3873 19.0628 30.0511 19.4604 29.976 19.8812C29.9409 20.0782 29.958 20.2802 29.9635 20.4801C29.9691 20.6802 29.9617 20.8864 29.8821 21.0698C29.8026 21.2534 29.6362 21.4109 29.4371 21.4269C29.055 21.4578 28.7117 21.7567 28.5732 22.115C28.4767 22.365 28.4766 22.6403 28.4382 22.9057C28.3999 23.1711 28.3084 23.4511 28.0893 23.605C27.7158 23.8675 27.7705 24.4702 27.8908 24.9112C27.9276 25.0459 27.9809 25.1753 28.0341 25.3044C28.0791 25.4134 28.124 25.5226 28.169 25.6316C28.2194 25.754 28.2708 25.8828 28.257 26.0144C28.2165 26.3992 28.3036 26.8019 28.1588 27.1605C28.1124 27.2758 28.0536 27.3893 28.0432 27.5132C28.0317 27.6493 28.0798 27.7825 28.1271 27.9106C28.1497 27.9718 28.1722 28.0329 28.1947 28.0939V28.094C28.2095 28.1343 28.2244 28.1746 28.2392 28.2148C28.3113 28.3991 28.4424 28.6472 28.8278 28.8851C28.8349 28.8894 28.8403 28.8935 28.8464 28.8977C28.8498 28.9001 28.8533 28.9024 28.8567 28.9048C28.8612 28.9081 28.8659 28.9113 28.8699 28.9144C29.1013 29.0746 29.313 29.2694 29.4957 29.474C29.7556 29.7653 29.9564 30.1036 30.1553 30.4395C30.4801 30.9881 31.1392 31.1976 31.8073 31.2773C32.064 31.3009 32.4291 31.2872 32.8044 31.1562C32.8514 31.1358 32.8992 31.1174 32.9472 31.0999C32.96 31.0944 32.9727 31.0902 32.9855 31.0844C32.9945 31.0803 33.0011 31.0798 33.0094 31.0768C33.3325 30.9686 33.6754 30.9278 34.0141 30.977C34.272 31.0145 34.5556 31.0907 34.7777 30.954C34.9722 30.8342 35.047 30.5925 35.1815 30.4077C35.3626 30.1591 35.6719 30.0103 35.9786 30.0242C36.2854 30.0381 36.58 30.2144 36.738 30.4783C36.8244 30.6229 36.9576 30.7025 37.1254 30.7132C37.2932 30.724 37.4586 30.6774 37.6236 30.6451C37.7887 30.6126 37.9652 30.5951 38.1204 30.6601C38.3575 30.7596 38.4827 31.0294 38.503 31.2861C38.5234 31.5427 38.4617 31.798 38.4343 32.054C38.4069 32.31 38.4191 32.5872 38.5672 32.7977C39.1434 33.6159 39.9764 34.2992 40.2621 35.2588C40.3505 35.5556 40.3962 35.8674 40.468 36.1687L40.4672 36.1689C40.4693 36.1763 40.4714 36.1846 40.4735 36.1925C40.4811 36.2236 40.4891 36.2544 40.4974 36.2852C40.5513 36.5087 40.606 36.8441 40.6045 37.3667C44.4246 33.1805 46.6612 28.9815 46.6612 24.269Z" fill="#D84253"/>
<path d="M46.6612 24.269C46.6612 23.1378 46.5313 21.9924 46.281 20.8665C46.0324 20.6186 45.8368 20.3173 45.7175 19.9867C45.6769 19.8738 45.6446 19.7492 45.6817 19.635C45.7142 19.5349 45.7929 19.4631 45.8871 19.4128C45.7174 18.8841 45.5204 18.3635 45.2974 17.8545C45.1801 18.006 45.035 18.1227 44.8464 18.159C44.6855 18.1901 44.5203 18.155 44.3568 18.1474C43.9141 18.1267 43.49 18.3059 43.0579 18.4049C42.6258 18.5039 42.1187 18.5026 41.8026 18.1912C41.5923 17.984 41.3179 17.8035 41.0231 17.8019C40.6992 17.8001 40.3957 18.0675 40.3557 18.3895C40.3262 18.6276 40.4096 18.9148 40.2342 19.078C40.0864 19.2153 39.8518 19.1655 39.659 19.1073C39.573 19.0813 39.487 19.0552 39.401 19.0292C39.2475 18.9828 38.5598 18.6407 38.3422 18.5448L38.3415 18.5462C38.1621 18.4634 37.9628 18.4175 37.7687 18.4109C37.5557 18.4034 37.3195 18.4424 37.1484 18.315C37.0269 18.2245 36.9703 18.0669 36.9663 17.9153C36.965 17.8674 36.9692 17.82 36.9756 17.7728H36.9747C36.9766 17.7621 36.9789 17.7494 36.9811 17.7371C36.9839 17.7206 36.9856 17.7041 36.989 17.6877C37.0092 17.5529 37.0148 17.3536 36.8717 17.1443C36.8575 17.1236 36.8436 17.1024 36.8283 17.0835C36.7572 16.9955 36.6763 16.9143 36.5821 16.8519C36.4754 16.781 36.352 16.7392 36.225 16.7235C36.221 16.7227 36.2186 16.7212 36.2142 16.7206C36.206 16.7194 36.1969 16.7199 36.1884 16.7191C36.1724 16.7178 36.1566 16.7168 36.1406 16.7165C35.926 16.7084 35.6788 16.7728 35.5141 16.8263C35.4676 16.8383 35.4215 16.8548 35.3758 16.8742C35.3726 16.8753 35.3674 16.8773 35.3645 16.8782L35.3655 16.8789C35.1917 16.9544 35.025 17.073 34.8712 17.1703C34.6662 17.3005 34.4388 17.394 34.2026 17.4501C34.1708 17.4636 34.124 17.4744 34.0556 17.4814C34.034 17.4836 34.0161 17.4867 33.9956 17.4891C33.9691 17.4928 33.9428 17.4967 33.9163 17.4995C33.5767 17.5501 33.4027 17.6405 33.2791 17.7156C33.2667 17.7232 33.2541 17.7308 33.2417 17.7384C33.2302 17.7455 33.2185 17.7528 33.2077 17.7594L33.2075 17.7592C33.0287 17.8671 32.849 17.9743 32.6779 18.0887C32.5156 18.1972 32.3509 18.307 32.1653 18.3674C31.9797 18.4278 31.7677 18.4337 31.5973 18.3386C31.4758 18.271 31.3603 18.151 31.2243 18.1793C31.0718 18.211 31.0213 18.4005 31.004 18.5555C30.9868 18.7106 30.9463 18.8995 30.7968 18.9431C30.3873 19.0628 30.0511 19.4604 29.976 19.8812C29.9409 20.0782 29.958 20.2802 29.9635 20.4801C29.9691 20.6802 29.9617 20.8864 29.8821 21.0698C29.8026 21.2534 29.6362 21.4109 29.4371 21.4269C29.055 21.4578 28.7117 21.7567 28.5732 22.115C28.4767 22.365 28.4766 22.6403 28.4382 22.9057C28.3999 23.1711 28.3084 23.4511 28.0893 23.605C27.7158 23.8675 27.7705 24.4702 27.8908 24.9112C27.9276 25.0459 27.9809 25.1753 28.0341 25.3044C28.0791 25.4134 28.124 25.5226 28.169 25.6316C28.2194 25.754 28.2708 25.8828 28.257 26.0144C28.2165 26.3992 28.3036 26.8019 28.1588 27.1605C28.1124 27.2758 28.0536 27.3893 28.0432 27.5132C28.0317 27.6493 28.0798 27.7825 28.1271 27.9106C28.1497 27.9718 28.1722 28.0329 28.1947 28.0939V28.094C28.2095 28.1343 28.2244 28.1746 28.2392 28.2148C28.3113 28.3991 28.4424 28.6472 28.8278 28.8851C28.8349 28.8894 28.8403 28.8935 28.8464 28.8977C28.8498 28.9001 28.8533 28.9024 28.8567 28.9048C28.8612 28.9081 28.8659 28.9113 28.8699 28.9144C29.1013 29.0746 29.313 29.2694 29.4957 29.474C29.7556 29.7653 29.9564 30.1036 30.1553 30.4395C30.4801 30.9881 31.1392 31.1976 31.8073 31.2773C32.064 31.3009 32.4291 31.2872 32.8044 31.1562C32.8514 31.1358 32.8992 31.1174 32.9472 31.0999C32.96 31.0944 32.9727 31.0902 32.9855 31.0844C32.9945 31.0803 33.0011 31.0798 33.0094 31.0768C33.3325 30.9686 33.6754 30.9278 34.0141 30.977C34.272 31.0145 34.5556 31.0907 34.7777 30.954C34.9722 30.8342 35.047 30.5925 35.1815 30.4077C35.3626 30.1591 35.6719 30.0103 35.9786 30.0242C36.2854 30.0381 36.58 30.2144 36.738 30.4783C36.8244 30.6229 36.9576 30.7025 37.1254 30.7132C37.2932 30.724 37.4586 30.6774 37.6236 30.6451C37.7887 30.6126 37.9652 30.5951 38.1204 30.6601C38.3575 30.7596 38.4827 31.0294 38.503 31.2861C38.5234 31.5427 38.4617 31.798 38.4343 32.054C38.4069 32.31 38.4191 32.5872 38.5672 32.7977C39.1434 33.6159 39.9764 34.2992 40.2621 35.2588C40.3505 35.5556 40.3962 35.8674 40.468 36.1687L40.4672 36.1689C40.4693 36.1763 40.4714 36.1846 40.4735 36.1925C40.4811 36.2236 40.4891 36.2544 40.4974 36.2852C40.5513 36.5087 40.606 36.8441 40.6045 37.3667C44.4246 33.1805 46.6612 28.9815 46.6612 24.269Z" fill="#D84253"/>
<path d="M39.518 15.1778C39.5121 15.0647 39.4366 14.9646 39.3433 14.9005C39.25 14.8367 39.14 14.803 39.0317 14.7702C38.7171 14.6749 38.4024 14.5795 38.0878 14.4842C37.9573 14.4446 37.8259 14.4035 37.702 14.3476C37.6773 14.3387 37.6484 14.3256 37.61 14.3031C37.5995 14.2969 37.5907 14.2908 37.5807 14.2846C37.5686 14.2775 37.5558 14.272 37.5439 14.2644C37.4988 14.2361 37.4561 14.2033 37.4162 14.1674C37.1978 13.984 37.1482 13.8054 37.1392 13.6967C37.1347 13.6676 37.1345 13.6375 37.1384 13.6091C37.1385 13.6078 37.1385 13.6058 37.1385 13.6047H37.1389C37.1437 13.5733 37.1532 13.545 37.1687 13.5266C37.2218 13.4625 37.3144 13.4435 37.3962 13.4578C37.478 13.4721 37.5518 13.5143 37.6237 13.5557C37.9552 13.7467 38.2867 13.9377 38.6182 14.1286C38.9861 14.3406 39.4512 14.4245 39.6011 14.8224C39.6465 14.9429 39.6697 15.071 39.7175 15.1905C39.7652 15.3101 39.844 15.4255 39.9623 15.4757C40.116 15.541 40.2914 15.5666 40.3913 15.7008C40.4912 15.8351 40.554 15.9937 40.6508 16.1301C40.7048 16.2062 40.7753 16.2759 40.8557 16.322C40.9091 16.3468 41.0329 16.3659 41.1185 16.1483C41.1527 16.0678 41.2007 15.9931 41.2617 15.9305C41.3212 15.8695 41.3927 15.8181 41.4356 15.7443C41.4784 15.6706 41.4809 15.5625 41.4122 15.5121C41.225 15.3749 41.0232 15.2433 40.883 15.0581C40.8465 15.0099 40.8124 14.9565 40.8052 14.8963C40.7979 14.8362 40.8249 14.7681 40.8809 14.7451C40.9517 14.716 41.0282 14.7673 41.0866 14.8168C41.145 14.8663 41.2173 14.9208 41.2905 14.8983C41.382 14.8701 41.3996 14.7479 41.4648 14.6775C41.5334 14.6036 41.6533 14.5968 41.7449 14.6388C41.8232 14.688 41.9177 14.8033 41.9903 15.0799C41.9918 15.0854 41.9936 15.0891 41.9952 15.0941C42.1133 15.5428 42.5094 15.9243 42.9654 16.0133C43.1957 16.0582 43.4332 16.0354 43.6668 16.0123C43.8735 15.9919 44.0802 15.9716 44.2869 15.9512C44.2927 15.9505 44.2987 15.9499 44.3045 15.9492C43.9281 15.3346 43.5093 14.7483 43.0501 14.1986C42.8425 14.2214 42.6146 14.1975 42.4721 14.0474C42.3437 13.912 42.3182 13.7061 42.3448 13.5211C42.349 13.4917 42.356 13.4629 42.3621 13.4338C40.4776 11.4915 38.0266 10.1321 35.1151 9.80762C35.1314 9.88202 35.1316 9.95916 35.0992 10.0271C35.0525 10.1249 34.9246 10.1871 34.83 10.1345C34.6451 10.1576 34.4181 10.2029 34.248 10.2791C34.078 10.3554 33.9255 10.4934 33.8779 10.6739C33.8322 10.8469 33.8838 11.0464 33.7896 11.1986C33.6812 11.374 33.4366 11.3988 33.2749 11.5267C33.1514 11.6244 33.085 11.7753 32.9983 11.9068C32.9115 12.0383 32.7797 12.1635 32.6225 12.156C32.5218 12.232 32.3995 12.1822 32.2793 12.1436C32.1591 12.1051 31.9981 12.0939 31.9363 12.2041C31.91 12.2508 31.9106 12.3074 31.9021 12.3605C31.8743 12.534 31.7328 12.6836 31.5613 12.7205C31.5038 12.7328 31.4441 12.7336 31.388 12.7506C31.3318 12.7676 31.2767 12.8062 31.2634 12.8635C31.2486 12.927 31.2907 12.9922 31.3454 13.0278C31.4001 13.0634 31.4656 13.0768 31.5279 13.0959C31.691 13.1459 31.8408 13.2387 31.9584 13.3627C32.157 13.5722 32.283 13.8895 32.3543 14.1697C32.3863 14.2953 32.4053 14.433 32.3519 14.551C32.2921 14.6837 32.1548 14.7621 32.0215 14.8202C31.5732 15.0155 31.0695 15.0809 30.5865 15.0062C30.4775 14.9893 30.3561 15.0201 30.2483 15.0434C30.1404 15.0666 30.0352 15.1273 29.9847 15.2256C29.905 15.3811 29.9818 15.5656 30.0231 15.7354C30.0788 15.9635 30.0662 16.2077 29.9876 16.429C29.9482 16.5397 29.8926 16.6454 29.8679 16.7603C29.8432 16.8753 29.8553 17.0072 29.9363 17.0922C30.091 17.2548 30.0573 17.5677 30.1143 17.7849C30.2332 17.7238 30.3542 17.6619 30.4854 17.636C30.6166 17.6101 30.7618 17.6245 30.8686 17.7049C31.0061 17.8084 31.093 18.0188 31.2647 18.0091C31.3691 18.0033 31.4451 17.9132 31.5239 17.8445C31.6783 17.7097 31.8782 17.6418 32.0738 17.5813C32.2695 17.521 32.4707 17.4628 32.6366 17.3424C32.8023 17.2221 32.928 17.0233 32.9013 16.8199C32.8268 16.2509 33.3496 15.7322 33.7835 15.3578C33.9423 15.2208 34.1325 15.0712 34.136 14.8614C34.0421 14.7812 34.1046 14.5874 34.2119 14.5263C34.3192 14.4651 34.4518 14.4797 34.5736 14.4996C34.6955 14.5195 34.8249 14.5423 34.9386 14.4941C35.1006 14.4255 35.1737 14.241 35.2912 14.1098C35.4403 13.9434 35.6779 13.862 35.8976 13.9021C36.117 13.9422 36.3108 14.1027 36.3916 14.3112C36.4938 14.5745 36.776 14.7488 37.0433 14.8378C37.3107 14.9267 37.5958 14.9683 37.8464 15.0977C38.0968 15.2271 38.315 15.4792 38.2898 15.7605C38.2785 15.8858 38.2219 16.0209 38.2835 16.1307C38.3542 16.257 38.5551 16.2573 38.6572 16.1548C38.7594 16.0524 38.7753 15.8884 38.7411 15.7477C38.7127 15.6306 38.655 15.5224 38.6264 15.4053C38.5978 15.2882 38.6046 15.1512 38.6887 15.0652C38.7727 14.9791 38.9481 14.9903 38.9877 15.104C39.0261 15.2148 38.979 15.2125 39.0664 15.2905C39.1418 15.3578 39.2299 15.4294 39.3304 15.42C39.4425 15.4102 39.524 15.2908 39.518 15.1778Z" fill="#D84253"/>
<path d="M31.004 10.0499C31.1254 10.1235 31.2732 10.1678 31.3545 10.2843C31.4618 10.4379 31.4089 10.6472 31.3521 10.8258C31.2995 10.9909 31.2469 11.156 31.1944 11.3212C31.1599 11.4297 31.1283 11.5484 31.1186 11.6636C31.1168 11.7944 31.1299 12.0525 31.5309 11.9526C31.862 11.8701 32.1931 11.7876 32.5243 11.7051C32.6505 11.6738 32.722 11.5838 32.7636 11.4397C32.7662 11.4305 32.7698 11.4231 32.7738 11.4168C32.797 11.3668 32.8315 11.3194 32.8693 11.282C32.9658 11.1868 33.0892 11.0934 33.0981 10.9579C33.1054 10.8484 33.03 10.748 32.938 10.6883C32.8461 10.6286 32.7383 10.6001 32.6357 10.562C32.297 10.4357 31.9869 10.1806 31.8048 9.8623C31.5109 9.90193 31.224 9.94997 30.9443 10.0059C30.964 10.0211 30.9827 10.0371 31.004 10.0499Z" fill="#D84253"/>
<path d="M22.8134 38.4744C22.9983 38.1978 22.9594 37.7823 22.8215 37.4796C22.6461 37.0951 22.2545 36.8653 21.8859 36.6597C21.4059 36.392 20.9025 36.1174 20.3536 36.0982C19.9926 36.0854 19.6283 36.1849 19.2731 36.1197C18.9364 36.0579 18.6451 35.8552 18.3332 35.7137C18.1309 35.622 17.8987 35.5596 17.6817 35.5769C17.6681 35.577 17.6542 35.5775 17.6367 35.5803C17.3373 35.6259 17.1992 35.486 17.0717 35.3221C17.0377 35.278 17.0038 35.2338 16.9698 35.1897C16.7858 34.9505 16.6019 34.7114 16.4178 34.4722C16.0939 34.0514 15.8043 33.5531 15.3072 33.3687C14.8197 33.1879 14.2835 33.2157 13.7648 33.2461C13.4771 33.2629 13.2078 33.0383 12.979 32.8628C12.6726 32.6278 12.3661 32.3929 12.0596 32.1579C11.9445 32.0698 11.8232 31.9726 11.7807 31.8338C11.7294 31.6659 11.7972 31.4508 11.6689 31.331C11.5608 31.2301 11.3786 31.2744 11.2663 31.3708C11.1542 31.4672 11.0829 31.6029 10.9786 31.7078C10.7371 31.9509 10.3181 31.9766 10.04 31.783C10.035 31.7804 10.0323 31.7785 10.0276 31.7746C9.96759 31.7263 9.92838 31.7339 9.89272 31.757C9.75686 31.8291 9.53774 31.7869 9.40478 31.7117C9.24956 31.624 9.09014 31.5048 8.91362 31.5294C8.75856 31.5509 8.65141 31.6739 8.56961 31.8149C8.56799 31.8173 8.5667 31.8189 8.56509 31.8217C8.46892 31.9812 8.426 31.9291 8.39631 31.8898C8.36695 31.8455 8.35065 31.7944 8.34113 31.7419C8.33935 31.7363 8.33726 31.7337 8.33564 31.7267C8.30192 31.586 8.19058 31.593 8.13008 31.6093C7.66134 31.7924 7.25408 32.1322 6.99978 32.5678C6.89248 32.7517 6.80374 32.9593 6.62802 33.0792C6.43827 33.2086 6.20591 33.2005 5.97647 33.1427C5.96275 33.1408 5.94645 33.1368 5.92677 33.1301C5.6281 33.0299 5.45158 33.0973 5.35912 33.1373C5.35799 33.1377 5.35702 33.1382 5.35589 33.1385C5.35493 33.139 5.35347 33.1395 5.35251 33.14L5.35267 33.1398C5.09627 33.2425 4.81584 33.2828 4.55944 33.1926C4.26481 33.0889 4.08667 32.7782 4.03149 32.4701C3.9763 32.162 4.0181 31.8461 4.02294 31.5331C4.0281 31.2043 3.9734 30.8385 3.71862 30.6315C3.5258 30.4747 3.25424 30.4456 3.01108 30.4959C2.983 30.5018 2.95605 30.5115 2.92846 30.5191C2.9041 30.5216 2.87473 30.5286 2.83455 30.5453C2.80438 30.5556 2.77517 30.5689 2.74565 30.5808C2.39663 30.7193 2.32919 30.6949 2.33161 30.4296C2.33387 30.1862 2.33613 29.943 2.33839 29.6995C2.34 29.5224 2.34064 29.3397 2.27288 29.1762C2.20511 29.0126 2.05053 28.8716 1.87384 28.8771C1.67328 28.8833 1.52774 29.062 1.40204 29.2187C1.39074 29.2329 1.37881 29.2468 1.36719 29.2609C1.80527 30.5064 2.40309 31.7256 3.14597 32.9296C3.30991 33.1505 3.47562 33.3676 3.70636 33.5126C4.07796 33.7463 4.50555 33.8898 4.94266 33.9277C5.07562 33.9391 5.2302 33.9319 5.31297 33.8269C5.41027 33.7032 5.3596 33.5005 5.47029 33.3887C5.60503 33.2529 5.8356 33.3708 5.9684 33.5084C6.60059 34.1633 6.82277 35.3134 6.25432 36.0246C6.11265 36.2018 5.97082 36.3812 5.85174 36.5738C9.13613 40.3779 13.7607 44.1458 19.2384 48.2523C19.283 48.1584 19.3277 48.0646 19.3722 47.9706C19.5274 47.6439 19.686 47.3018 19.6772 46.9402C19.6701 46.6498 19.5544 46.3689 19.5597 46.0786C19.5649 45.8002 19.7525 45.4902 20.0221 45.4858C20.0797 45.4912 20.1533 45.5096 20.2046 45.4765C20.2632 45.4386 20.415 45.2186 20.5344 45.1258C20.5348 45.1256 20.5346 45.1255 20.5349 45.1253C20.7055 44.9924 20.8763 44.8589 21.0422 44.7446C21.2287 44.616 21.4167 44.4861 21.5744 44.3234C21.732 44.1606 21.8595 43.9603 21.8995 43.737C22.0515 42.888 21.7988 41.9669 21.8787 41.1081C21.9661 40.1707 22.2905 39.2564 22.8134 38.4744Z" fill="#D84253"/>
<path d="M0.5 24.2691C0.5 24.6059 0.512746 24.9397 0.535336 25.2714C0.7096 25.209 0.897741 25.1851 1.07588 25.2109C1.2382 25.2345 1.40343 25.2957 1.56156 25.2525C1.76922 25.1957 1.88733 24.9837 2.04401 24.8357C2.27136 24.6209 2.61327 24.547 2.91388 24.6256L2.91372 24.623C3.01956 24.6578 3.12009 24.6982 3.40375 24.6196C3.40908 24.6182 3.41263 24.618 3.41763 24.6169C3.59722 24.5706 3.78616 24.5688 3.94591 24.6504C4.24893 24.8048 4.26055 25.2224 4.28621 25.5622C4.30282 25.7825 4.34929 26.0141 4.49919 26.176C4.64909 26.3379 4.9305 26.3931 5.08895 26.2396C5.2553 26.0785 5.20528 25.805 5.1459 25.581C5.02118 25.11 4.90904 24.6164 5.00924 24.1397C5.10298 23.6934 5.3781 23.3018 5.7121 22.9921C6.04627 22.6823 6.43949 22.4454 6.82965 22.2107C7.04829 22.0792 7.1743 21.8599 7.25014 21.6158C7.32598 21.3718 7.35889 21.1145 7.45539 20.8778C7.61997 20.4742 7.95268 20.1675 8.27539 19.8749C8.81351 19.387 9.3518 18.8992 9.88992 18.4112C10.1921 18.1372 10.5255 17.8492 10.9315 17.8154C11.198 17.7932 11.3455 17.7644 11.6795 17.6357C12.185 17.3991 12.6785 17.1275 13.0562 16.716C13.1382 16.6268 13.2214 16.5178 13.2051 16.3976C13.1833 16.2381 12.9907 16.154 12.8319 16.1786C12.6731 16.2032 12.537 16.3005 12.3937 16.3733C12.2504 16.4459 12.0745 16.4941 11.9327 16.4184C11.7737 16.3335 11.7224 16.1192 11.7684 15.9449C11.8144 15.7704 11.9346 15.6267 12.0513 15.4894C12.2462 15.2601 12.4529 15.0222 12.733 14.913C13.0131 14.804 13.3876 14.8748 13.5201 15.1453C13.5914 15.2907 13.582 15.466 13.6556 15.6102C13.8071 15.9077 14.215 15.9376 14.5468 15.9054C14.8524 15.8758 15.1732 15.8205 15.4084 15.6229C15.6438 15.4254 15.7487 15.0416 15.5535 14.8042C15.4455 14.6728 15.2722 14.6117 15.1558 14.4878C15.0393 14.3639 15.0272 14.1101 15.1909 14.0655C15.3547 13.8755 15.2351 13.4944 15.1093 13.2774C14.9833 13.0603 14.7751 12.906 14.5724 12.7585C14.3698 12.611 14.161 12.4578 14.0332 12.2419C13.8957 12.0098 13.867 11.7312 13.8443 11.4622C13.8289 11.2799 13.8134 11.0918 13.7292 10.9296C13.645 10.7672 13.473 10.6359 13.2919 10.6585C13.0941 10.6833 12.9636 10.8689 12.8437 11.0287C12.7238 11.1885 12.5482 11.3532 12.3535 11.3097C12.1553 11.2654 12.0695 11.0394 11.98 10.8568C11.8044 10.4989 11.4952 10.2087 11.1275 10.0564C11.0596 10.0282 10.9886 10.007 10.9166 9.98926C10.494 10.0787 10.0827 10.1914 9.68241 10.3241C9.39455 10.6467 9.2858 11.1159 9.21593 11.5547C9.13396 12.0698 9.05797 12.6256 8.70169 13.0058C8.55664 13.1606 8.37447 13.2746 8.21134 13.4103C7.97221 13.6091 7.77535 13.8575 7.63175 14.1336C7.63046 14.1357 7.62917 14.1365 7.62771 14.1388C7.48572 14.3736 7.45522 14.3261 7.43667 14.187C7.43409 14.164 7.43199 14.1409 7.42844 14.1182C7.42828 14.1163 7.42795 14.1147 7.42779 14.1126L7.42747 14.1132C7.38794 13.8649 7.29306 13.6395 7.07975 13.5229C6.89968 13.4244 6.68298 13.436 6.47822 13.4221C6.04449 13.3925 5.62207 13.2303 5.27547 12.9676C2.22263 15.8144 0.5 20.1382 0.5 24.2691Z" fill="#D84253"/>
<path d="M46.6514 23.7721C46.6482 23.6749 46.6442 23.5777 46.639 23.4803C46.6371 23.4446 46.6353 23.4088 46.6332 23.3731C46.6261 23.2539 46.6179 23.1349 46.608 23.0155C46.6072 23.0058 46.6066 22.9963 46.6058 22.9866C46.594 22.8483 46.5804 22.71 46.5649 22.5715C46.5641 22.5641 46.5632 22.5567 46.5624 22.5494C46.5478 22.4206 46.5315 22.2919 46.5138 22.1633C46.5115 22.1471 46.5093 22.131 46.507 22.115C46.448 21.6974 46.3726 21.2807 46.2806 20.8668V20.8665C46.032 20.6186 45.8364 20.3173 45.7172 19.9867C45.6765 19.8738 45.6442 19.7492 45.6814 19.635C45.7138 19.5349 45.7925 19.4631 45.8868 19.4128C45.8038 19.1547 45.7143 18.8983 45.6184 18.6444C45.6123 18.6282 45.606 18.6121 45.5999 18.5959C45.5579 18.4859 45.515 18.3764 45.4706 18.2672C45.4637 18.2503 45.4569 18.2333 45.45 18.2163C45.4003 18.0952 45.3494 17.9743 45.2968 17.8543C45.1795 18.0059 45.0345 18.1225 44.8459 18.1589C44.685 18.1899 44.5198 18.1548 44.3563 18.1472C43.9135 18.1265 43.4895 18.3057 43.0574 18.4047C42.6253 18.5037 42.1181 18.5024 41.802 18.1911C41.5918 17.9839 41.3173 17.8034 41.0225 17.8018C40.6987 17.8 40.3952 18.0673 40.3552 18.3894C40.3256 18.6274 40.4091 18.9147 40.2337 19.0779C40.0859 19.2152 39.8513 19.1654 39.6584 19.1071C39.5724 19.0811 39.4864 19.0551 39.4004 19.029C39.2559 18.9852 38.6366 18.6789 38.3837 18.5635C38.6151 19.6469 38.7357 20.747 38.7357 21.834C38.7357 24.7498 37.8789 27.4689 36.3213 30.1102C36.492 30.189 36.6405 30.3173 36.7373 30.479C36.8238 30.6236 36.9569 30.7032 37.1247 30.7138C37.2925 30.7247 37.4579 30.6781 37.6229 30.6458C37.788 30.6132 37.9645 30.5958 38.1198 30.6608C38.3568 30.7603 38.482 31.03 38.5023 31.2867C38.5227 31.5434 38.461 31.7986 38.4336 32.0546C38.4062 32.3107 38.4184 32.5879 38.5666 32.7983C39.1428 33.6165 39.9757 34.2999 40.2614 35.2594C40.3499 35.5562 40.3955 35.8681 40.4673 36.1694L40.4665 36.1695C40.4686 36.177 40.4707 36.1852 40.4728 36.1932C40.4804 36.2242 40.4885 36.2551 40.4967 36.2858C40.5506 36.5093 40.6053 36.8448 40.6038 37.3674C40.6041 37.367 40.6045 37.3667 40.6048 37.3664C40.7237 37.236 40.8412 37.1057 40.957 36.9753C40.9575 36.9748 40.9578 36.9743 40.9583 36.9739C41.0742 36.8435 41.1884 36.713 41.3012 36.5826C41.3015 36.5823 41.3018 36.5818 41.3022 36.5815C41.4148 36.4511 41.5256 36.3209 41.635 36.1904C41.6363 36.1889 41.6375 36.1875 41.6388 36.186C41.7474 36.0565 41.8545 35.9269 41.9599 35.7974C41.9613 35.7956 41.9628 35.7938 41.9642 35.792C42.0691 35.6631 42.1724 35.5341 42.274 35.405C42.2771 35.4011 42.28 35.3972 42.283 35.3934C42.3832 35.2659 42.482 35.1385 42.5791 35.011C42.5825 35.0065 42.5859 35.002 42.5893 34.9974C42.6856 34.8708 42.7805 34.744 42.8738 34.617C42.8783 34.6109 42.8828 34.6046 42.8873 34.5984C42.9793 34.4729 43.07 34.3474 43.1589 34.2217C43.1639 34.2146 43.1687 34.2075 43.1739 34.2004C43.2617 34.076 43.3483 33.9513 43.433 33.8268C43.4396 33.8169 43.4461 33.8072 43.4527 33.7974C43.5358 33.6749 43.6176 33.5523 43.6977 33.4296C43.7044 33.419 43.711 33.4085 43.7178 33.3982C43.797 33.2762 43.8751 33.1543 43.9513 33.0322C43.9592 33.0196 43.9668 33.0068 43.9747 32.9942C44.0494 32.874 44.123 32.7537 44.1948 32.6333C44.2033 32.6189 44.2114 32.6045 44.22 32.5903C44.2903 32.4716 44.3597 32.3527 44.4271 32.2337C44.4368 32.2165 44.4462 32.1994 44.4559 32.1822C44.5215 32.0658 44.5862 31.9492 44.6492 31.8323C44.6595 31.8132 44.6692 31.7939 44.6795 31.7748C44.741 31.6598 44.8015 31.5448 44.8602 31.4295C44.8712 31.408 44.8815 31.3863 44.8925 31.3648C44.9496 31.2518 45.0059 31.1387 45.0603 31.0252C45.0718 31.0012 45.0826 30.9773 45.0939 30.9534C45.1466 30.8421 45.1989 30.7308 45.2491 30.6192C45.261 30.5927 45.2722 30.5662 45.2839 30.5397C45.3325 30.4305 45.3804 30.3213 45.4266 30.2118C45.439 30.1822 45.4506 30.1525 45.4629 30.1229C45.5071 30.0163 45.5508 29.9095 45.5928 29.8026C45.6057 29.7696 45.6176 29.7363 45.6304 29.7033C45.6702 29.5995 45.7098 29.4956 45.7475 29.3915C45.7607 29.3549 45.7728 29.3181 45.7859 29.2815C45.8216 29.1806 45.8571 29.0795 45.8906 28.9782C45.9037 28.9386 45.9156 28.8988 45.9286 28.859C45.9603 28.7602 45.9923 28.6616 46.0221 28.5624C46.0347 28.5207 46.046 28.4788 46.0583 28.4371C46.0867 28.3397 46.1152 28.2423 46.1417 28.1447C46.154 28.0994 46.1649 28.0538 46.1767 28.0085C46.2014 27.9142 46.2263 27.8197 46.249 27.7251C46.2609 27.6753 46.2716 27.625 46.283 27.575C46.3039 27.4843 46.3252 27.3936 46.3444 27.3025C46.3555 27.2498 46.365 27.1966 46.3755 27.1437C46.3933 27.055 46.4113 26.9666 46.4273 26.8776C46.4376 26.82 46.4463 26.7621 46.456 26.7044C46.4702 26.6198 46.4851 26.5352 46.498 26.4501C46.5077 26.3856 46.5154 26.3208 46.5243 26.2559C46.5349 26.1773 46.5465 26.099 46.5561 26.0201C46.5648 25.9473 46.5716 25.874 46.5791 25.8011C46.5866 25.7298 46.5951 25.6586 46.6016 25.587C46.6088 25.5061 46.614 25.4247 46.6198 25.3435C46.6245 25.2793 46.6303 25.2153 46.6342 25.1509C46.6396 25.0603 46.6427 24.9694 46.6464 24.8785C46.6487 24.8229 46.6522 24.7676 46.6538 24.7118C46.6582 24.5649 46.6605 24.4178 46.6605 24.2699C46.6605 24.1412 46.6584 24.0123 46.655 23.8832C46.654 23.8455 46.6526 23.8088 46.6514 23.7721Z" fill="#C4394F"/>
<path d="M39.5173 15.1778C39.5113 15.0647 39.4358 14.9646 39.3425 14.9005C39.2493 14.8367 39.1392 14.803 39.0309 14.7702C38.7163 14.6749 38.4017 14.5795 38.087 14.4842C37.9565 14.4446 37.8251 14.4035 37.7012 14.3476C37.6765 14.3387 37.6476 14.3256 37.6092 14.3031C37.5987 14.2969 37.5899 14.2908 37.5799 14.2846C37.5678 14.2775 37.555 14.272 37.5431 14.2644C37.4981 14.2361 37.4553 14.2033 37.4154 14.1674C37.197 13.984 37.1474 13.8054 37.1384 13.6967C37.1339 13.6676 37.1337 13.6375 37.1376 13.6091C37.1378 13.6078 37.1378 13.6058 37.1378 13.6047H37.1381C37.1429 13.5733 37.1524 13.545 37.1679 13.5266C37.221 13.4625 37.3136 13.4435 37.3954 13.4578C37.4772 13.4721 37.551 13.5143 37.6229 13.5557C37.9544 13.7467 38.286 13.9377 38.6174 14.1286C38.9853 14.3406 39.4505 14.4245 39.6004 14.8224C39.6457 14.9429 39.6689 15.071 39.7167 15.1905C39.7645 15.3101 39.8432 15.4255 39.9615 15.4757C40.1152 15.541 40.2906 15.5666 40.3905 15.7008C40.4904 15.8351 40.5532 15.9937 40.65 16.1301C40.704 16.2062 40.7745 16.2759 40.8549 16.322C40.9083 16.3468 41.0321 16.3659 41.1177 16.1483C41.152 16.0678 41.1999 15.9931 41.2609 15.9305C41.3204 15.8695 41.3919 15.8181 41.4348 15.7443C41.4776 15.6706 41.4801 15.5625 41.4114 15.5121C41.2242 15.3749 41.0224 15.2433 40.8822 15.0581C40.8457 15.0099 40.8117 14.9565 40.8044 14.8963C40.7971 14.8362 40.8241 14.7681 40.8801 14.7451C40.9509 14.716 41.0274 14.7673 41.0858 14.8168C41.1442 14.8663 41.2165 14.9208 41.2898 14.8983C41.3812 14.8701 41.3988 14.7479 41.464 14.6775C41.5326 14.6036 41.6525 14.5968 41.7441 14.6388C41.8224 14.688 41.9169 14.8033 41.9895 15.0799C41.991 15.0854 41.9928 15.0891 41.9944 15.0941C42.1125 15.5428 42.5086 15.9243 42.9646 16.0133C43.1949 16.0582 43.4324 16.0354 43.666 16.0123C43.8727 15.9919 44.0794 15.9716 44.2861 15.9512C44.2919 15.9505 44.2979 15.9499 44.3037 15.9492L44.3035 15.9489C44.1173 15.6449 43.9205 15.3477 43.7138 15.0586C43.7094 15.0526 43.7051 15.0464 43.7009 15.0404C43.4937 14.7516 43.2765 14.4706 43.0495 14.1986C42.8418 14.2214 42.614 14.1975 42.4715 14.0474C42.3431 13.912 42.3176 13.7061 42.3442 13.5211C42.3484 13.4917 42.3553 13.4629 42.3615 13.4338C42.2464 13.3152 42.1291 13.1989 42.0099 13.0849C42.0028 13.0779 41.9954 13.0711 41.9883 13.0643C41.7517 12.8389 41.5069 12.6223 41.2541 12.4156C41.2451 12.4082 41.236 12.4009 41.227 12.3936C40.9745 12.1882 40.7139 11.9925 40.4457 11.8072C40.4362 11.8005 40.4265 11.7941 40.417 11.7874C40.1474 11.6024 39.8701 11.4281 39.5852 11.265C39.5765 11.26 39.5678 11.255 39.5591 11.2501C39.2715 11.0866 38.9764 10.9348 38.6737 10.7953C38.6671 10.7923 38.6603 10.7892 38.6537 10.7861C38.3476 10.6457 38.0338 10.518 37.7127 10.4038C37.709 10.4025 37.7052 10.401 37.7015 10.3997C36.8862 10.1109 36.0229 9.90886 35.1148 9.80762C35.1311 9.88202 35.1313 9.95916 35.0989 10.0271C35.0522 10.1249 34.9243 10.1871 34.8297 10.1345C34.6448 10.1576 34.4178 10.2029 34.2477 10.2791C34.1293 10.3323 34.0202 10.4159 33.9482 10.5227C35.2573 11.7405 36.3223 13.2293 37.1126 14.8586C37.3595 14.9335 37.617 14.9798 37.8459 15.098C38.0964 15.2274 38.3145 15.4796 38.2893 15.7608C38.2781 15.8862 38.2214 16.0212 38.2831 16.131C38.3537 16.2573 38.5546 16.2577 38.6568 16.1551C38.7589 16.0527 38.7749 15.8887 38.7407 15.748C38.7123 15.6309 38.6545 15.5227 38.6259 15.4056C38.5974 15.2885 38.6041 15.1516 38.6882 15.0655C38.7723 14.9795 38.9477 14.9906 38.9872 15.1043C39.0256 15.2151 38.9785 15.2129 39.0659 15.2908C39.1413 15.3581 39.2294 15.4297 39.3299 15.4204C39.4417 15.4102 39.5232 15.2908 39.5173 15.1778Z" fill="#C4394F"/>
<path d="M38.0226 16.1362C37.9028 16.0876 37.7726 16.0762 37.6426 16.0778C37.7137 16.2615 37.7815 16.4464 37.8459 16.6325C37.8581 16.639 37.8706 16.6463 37.8827 16.6524C37.9491 16.6866 38.0174 16.7212 38.0915 16.7304C38.1657 16.7396 38.248 16.7181 38.2928 16.6583C38.3254 16.6146 38.3338 16.5568 38.3285 16.5025C38.3122 16.3359 38.1775 16.1989 38.0226 16.1362Z" fill="#C4394F"/>
<path d="M18.1072 47.3991C18.3073 47.5508 18.51 47.7035 18.7125 47.856C18.8627 47.9691 19.0116 48.0818 19.1631 48.1955C19.1881 48.2143 19.2138 48.2334 19.2388 48.2521C19.2833 48.1583 19.3279 48.0645 19.3724 47.9707C19.5276 47.644 19.6863 47.3019 19.6774 46.9403C19.6708 46.6718 19.5727 46.4114 19.5618 46.144C19.0453 46.5298 18.5219 46.9186 17.9912 47.3108C18.0301 47.3402 18.0682 47.3695 18.1072 47.3991Z" fill="#C4394F"/>
<path d="M46.6432 23.5714C46.6363 23.4226 46.6273 23.2738 46.616 23.1249C46.6132 23.0885 46.6113 23.0521 46.6082 23.0157C46.6082 23.0149 46.6081 23.0139 46.6081 23.0131C46.5937 22.84 46.5758 22.6671 46.5556 22.4941C46.5484 22.432 46.5401 22.37 46.5322 22.3079C46.5193 22.2075 46.5046 22.107 46.4898 22.0068C46.4698 21.8719 46.448 21.7372 46.4246 21.6026C46.412 21.5301 46.399 21.4577 46.3854 21.3854C46.3604 21.2524 46.3334 21.1198 46.3052 20.9875C46.2963 20.9461 46.287 20.9049 46.2778 20.8635C46.0307 20.6162 45.836 20.3161 45.7174 19.987C45.6767 19.8741 45.6445 19.7496 45.6816 19.6354C45.714 19.5354 45.7926 19.4636 45.8868 19.4133C45.8858 19.4106 45.8852 19.4077 45.8842 19.4048C45.8733 19.3705 45.8612 19.3365 45.8499 19.3022C45.8042 19.1633 45.7563 19.025 45.7069 18.8872C45.6864 18.8301 45.6659 18.773 45.6448 18.7162C45.5854 18.5566 45.5242 18.3978 45.4599 18.2401C45.4566 18.2323 45.4536 18.2244 45.4503 18.2166C45.4374 18.1851 45.4237 18.154 45.4107 18.1227C45.3735 18.0336 45.3342 17.9454 45.2954 17.8569C45.1785 18.0073 45.0339 18.1232 44.8464 18.1594C44.6855 18.1904 44.5203 18.1553 44.3568 18.1477C43.9141 18.127 43.49 18.3062 43.0579 18.4052C42.6258 18.5042 42.1187 18.5029 41.8026 18.1916C41.7143 18.1047 41.6143 18.0234 41.5067 17.957C42.0078 19.5283 42.2712 21.1691 42.2712 22.7808C42.2712 26.3814 40.9652 29.682 38.6455 32.9064C39.2164 33.6775 39.9888 34.3427 40.2618 35.2598C40.3502 35.5566 40.3959 35.8684 40.4677 36.1697L40.4669 36.1699C40.469 36.1773 40.4711 36.1856 40.4732 36.1935C40.4808 36.2245 40.4888 36.2554 40.4971 36.2862C40.551 36.5097 40.6057 36.8451 40.6042 37.3677C40.6045 37.3674 40.6048 37.3671 40.6052 37.3667C40.7241 37.2364 40.8416 37.106 40.9574 36.9756C40.9577 36.9753 40.9581 36.975 40.9584 36.9747C40.9587 36.9744 40.9589 36.974 40.9592 36.9737C41.0749 36.8435 41.1891 36.7132 41.3016 36.5828C41.3017 36.5826 41.3017 36.5825 41.3019 36.5823C41.3025 36.5817 41.303 36.581 41.3037 36.5802C41.4157 36.4505 41.5263 36.3206 41.6353 36.1909C41.6367 36.1893 41.638 36.1877 41.6395 36.1859C41.748 36.0565 41.855 35.9271 41.9604 35.7976C41.9622 35.7953 41.9639 35.7932 41.9657 35.7909C42.0703 35.6624 42.1732 35.5338 42.2747 35.405C42.276 35.4034 42.2773 35.4018 42.2784 35.4002C42.2805 35.3976 42.2825 35.395 42.2846 35.3924C42.3844 35.2654 42.4829 35.1383 42.5797 35.0112C42.5832 35.0065 42.5868 35.0018 42.5903 34.9971C42.6865 34.8705 42.7814 34.7438 42.8745 34.6172C42.8751 34.6162 42.8758 34.6153 42.8766 34.6145C42.8804 34.6091 42.8842 34.6039 42.888 34.5986C42.98 34.4731 43.0707 34.3476 43.1596 34.2219C43.1615 34.2193 43.1633 34.2167 43.1651 34.2142C43.1683 34.2095 43.1715 34.2049 43.1748 34.2003C43.2625 34.076 43.3489 33.9517 43.4336 33.8271C43.4374 33.8215 43.441 33.816 43.4449 33.8103C43.4478 33.8061 43.4505 33.8017 43.4534 33.7975C43.5365 33.6751 43.6182 33.5527 43.6982 33.4299C43.705 33.4194 43.7116 33.4089 43.7184 33.3984C43.7976 33.2766 43.8755 33.1545 43.9518 33.0324C43.9599 33.0194 43.9677 33.0065 43.9757 32.9937C44.0503 32.8738 44.1237 32.7537 44.1953 32.6335C44.2008 32.6243 44.206 32.6151 44.2115 32.6059C44.2145 32.6007 44.2176 32.5955 44.2207 32.5903C44.291 32.4716 44.3604 32.3527 44.4278 32.2337C44.4375 32.2166 44.4469 32.1994 44.4566 32.1823C44.5222 32.0658 44.5869 31.9492 44.6499 31.8323C44.6552 31.8222 44.6605 31.8122 44.6657 31.8023C44.6708 31.7928 44.6757 31.7833 44.6807 31.7739C44.7418 31.6594 44.8022 31.5445 44.8608 31.4297C44.8688 31.4139 44.8766 31.3982 44.8843 31.3823C44.8872 31.3763 44.8901 31.3705 44.8932 31.3645C44.9501 31.2516 45.0065 31.1386 45.0608 31.0254C45.0723 31.0014 45.0831 30.9775 45.0944 30.9536C45.1472 30.8423 45.1994 30.731 45.2496 30.6194C45.2616 30.5929 45.2727 30.5664 45.2845 30.5398C45.333 30.4307 45.381 30.3215 45.4271 30.212C45.4363 30.1902 45.445 30.1682 45.4539 30.1463C45.4573 30.1384 45.4604 30.1303 45.4637 30.1222C45.5078 30.0158 45.5515 29.9094 45.5933 29.8026C45.6025 29.779 45.6114 29.7554 45.6203 29.7316C45.624 29.7221 45.6274 29.7125 45.6311 29.703C45.6709 29.5993 45.7105 29.4955 45.748 29.3915C45.748 29.3913 45.7482 29.3913 45.7482 29.3912C45.7616 29.3543 45.7739 29.3173 45.7868 29.2804C45.8223 29.1798 45.8578 29.0792 45.8912 28.9783C45.8921 28.9755 45.8929 28.9728 45.8938 28.97C45.9062 28.9327 45.9173 28.8953 45.9294 28.8579C45.9612 28.7596 45.9928 28.6613 46.0227 28.5624C46.029 28.5414 46.0349 28.5202 46.0409 28.4992C46.0472 28.4778 46.0532 28.4565 46.0593 28.4352C46.0875 28.3384 46.1159 28.2419 46.1422 28.1448C46.1506 28.1138 46.1581 28.0826 46.1663 28.0515C46.1698 28.0371 46.1735 28.0227 46.1774 28.0085C46.2021 27.9142 46.227 27.8199 46.2497 27.7253C46.2618 27.6752 46.2725 27.6247 46.2839 27.5742C46.3047 27.4837 46.3259 27.3932 46.3451 27.3025C46.3562 27.2495 46.3659 27.1959 46.3764 27.1427C46.394 27.0544 46.412 26.9661 46.428 26.8775C46.4335 26.8471 46.4382 26.8167 46.4432 26.7862C46.4482 26.7578 46.4525 26.7293 46.4574 26.701C46.4714 26.6176 46.4861 26.5341 46.4987 26.4503C46.5084 26.3855 46.5163 26.3203 46.5251 26.2553C46.5358 26.177 46.5474 26.0989 46.5568 26.0203C46.5632 25.9664 46.5684 25.9122 46.5739 25.8582C46.576 25.8388 46.5779 25.8194 46.58 25.8C46.5874 25.7291 46.5958 25.6585 46.6023 25.5873C46.6063 25.5423 46.6089 25.497 46.6124 25.4519C46.615 25.4159 46.6179 25.3798 46.6205 25.3437C46.6252 25.2795 46.631 25.2155 46.6349 25.1511C46.6403 25.0605 46.6434 24.9696 46.6471 24.8787C46.6494 24.8231 46.6529 24.7678 46.6545 24.712C46.6589 24.5651 46.6612 24.4179 46.6612 24.2701C46.6612 24.0891 46.6566 23.9078 46.65 23.7262C46.6479 23.6741 46.6455 23.6228 46.6432 23.5714Z" fill="#B6324C"/>
<path d="M40.8925 16.3334C40.9543 16.3453 41.0485 16.3256 41.1182 16.1485C41.1524 16.0679 41.2004 15.9932 41.2613 15.9306C41.3209 15.8697 41.3924 15.8182 41.4353 15.7445C41.478 15.6707 41.4806 15.5627 41.4119 15.5122C41.2247 15.3751 41.0229 15.2434 40.8826 15.0582C40.8462 15.01 40.8121 14.9567 40.8049 14.8965C40.7976 14.8363 40.8246 14.7682 40.8805 14.7453C40.9514 14.7162 41.0279 14.7674 41.0863 14.8169C41.1447 14.8664 41.217 14.9209 41.2902 14.8984C41.3817 14.8703 41.3993 14.748 41.4645 14.6777C41.5331 14.6037 41.653 14.597 41.7446 14.639C41.8229 14.6882 41.9174 14.8035 41.99 15.0801C41.9915 15.0856 41.9933 15.0893 41.9949 15.0943C42.113 15.543 42.5091 15.9245 42.9651 16.0134C43.1954 16.0584 43.4329 16.0356 43.6665 16.0125C43.8732 15.9921 44.0799 15.9717 44.2866 15.9513C44.2924 15.9507 44.2982 15.95 44.304 15.9494C44.2069 15.7907 44.1067 15.6343 44.0039 15.4796C43.9581 15.4105 43.91 15.343 43.863 15.2748C43.7988 15.1816 43.7348 15.0883 43.6686 14.9966C43.616 14.9238 43.5616 14.8523 43.5077 14.7805C43.4446 14.6966 43.3812 14.6128 43.3164 14.5302C43.2617 14.4604 43.2058 14.3915 43.1498 14.323C43.1156 14.2812 43.0806 14.2402 43.0461 14.1988C42.8394 14.2208 42.6135 14.1965 42.4718 14.0472C42.3434 13.9118 42.3179 13.7059 42.3445 13.5209C42.3487 13.4921 42.3553 13.464 42.3613 13.4357C42.2432 13.3141 42.1239 13.1936 42.0015 13.0765C41.9971 13.0724 41.9928 13.0682 41.9884 13.0642C41.97 13.0465 41.9507 13.0299 41.9321 13.0124C41.8169 12.9039 41.6999 12.7975 41.581 12.6933C41.5284 12.6472 41.4745 12.6026 41.4211 12.5573C41.3272 12.4779 41.2326 12.3993 41.1366 12.3226C41.0776 12.2755 41.018 12.2291 40.9582 12.1832C40.8647 12.1114 40.77 12.041 40.6747 11.9718C40.6171 11.9301 40.5598 11.8879 40.5014 11.8471C40.3889 11.7685 40.2743 11.6928 40.1591 11.6179C40.1123 11.5875 40.0665 11.5558 40.0192 11.5261C39.8619 11.4269 39.702 11.3315 39.5397 11.2396C39.4889 11.2108 39.4366 11.1842 39.3851 11.156C39.2704 11.0933 39.1549 11.0316 39.0377 10.9726C38.9709 10.939 38.9033 10.9066 38.8357 10.8741C38.7269 10.8219 38.6174 10.7712 38.5067 10.7224C38.4365 10.6913 38.3663 10.6606 38.2953 10.631C38.1799 10.5827 38.063 10.537 37.9455 10.4924C37.8819 10.4683 37.819 10.4429 37.7549 10.4198C37.6697 10.3892 37.5826 10.3622 37.4964 10.3334C37.3754 10.2931 37.2547 10.2522 37.1318 10.2158C37.0459 10.1904 36.9585 10.1684 36.8717 10.1448C36.749 10.1115 36.6266 10.0779 36.5018 10.0484C36.4116 10.0273 36.3197 10.0095 36.2285 9.99021C36.1046 9.96417 35.981 9.93781 35.8551 9.91549C35.7607 9.89883 35.6647 9.88573 35.5692 9.87134C35.4776 9.85743 35.3856 9.84433 35.293 9.83252C37.8008 11.2996 39.7101 13.6516 40.8925 16.3334Z" fill="#B6324C"/>
<path d="M38.8132 17.4466C38.8011 17.4306 37.5785 15.8105 36.4558 13.7542C34.9406 10.979 34.318 8.77158 34.6052 7.19352C34.7649 6.31658 35.2119 5.64166 35.9338 5.1875L36.0664 5.39954C35.4063 5.81471 34.9974 6.43336 34.8508 7.23832C34.5781 8.73649 35.2083 10.9471 36.6733 13.6313C37.7869 15.6717 38.9999 17.2794 39.012 17.2954L38.8132 17.4466Z" fill="white"/>
<path d="M35.5988 5.77056C35.7375 5.63325 35.8929 5.50887 36.0668 5.39954L35.9342 5.1875C35.7609 5.29651 35.6044 5.41895 35.4629 5.55319L35.5988 5.77056Z" fill="#D9D9D9"/>
<path d="M36.367 5.43743L35.9691 5.68763C35.8915 5.73648 35.7882 5.7127 35.7397 5.63491L35.5869 5.39085C35.5381 5.31305 35.5618 5.20954 35.6395 5.16086L36.0374 4.91065C36.115 4.86181 36.2182 4.88558 36.2668 4.96338L36.4196 5.20744C36.4682 5.28523 36.4446 5.38874 36.367 5.43743Z" fill="#3D3C3C"/>
<path d="M36.0374 4.91058L35.6395 5.16079C35.5884 5.19297 35.5635 5.24926 35.5645 5.30586L35.8504 5.12601C35.928 5.07733 36.0313 5.10094 36.0798 5.17874L36.2327 5.4228C36.2493 5.44916 36.2546 5.47844 36.2551 5.50771L36.3671 5.43736C36.4447 5.38851 36.4682 5.285 36.4197 5.20737L36.2669 4.96331C36.2183 4.88551 36.115 4.8619 36.0374 4.91058Z" fill="#292929"/>
<path d="M36.3851 5.51288C36.4445 5.60782 36.5799 5.61897 36.653 5.53406C36.828 5.33125 36.8698 5.05193 36.7362 4.83843C36.6026 4.62494 36.3335 4.54116 36.0752 4.61103C35.9672 4.64015 35.9183 4.76711 35.9777 4.86205L36.3851 5.51288Z" fill="#3D3C3C"/>
<path d="M36.0752 4.61095C35.975 4.63796 35.9267 4.74907 35.9677 4.84077C35.9792 4.83431 35.9918 4.82929 36.0052 4.82557C36.2635 4.75586 36.5326 4.83948 36.6662 5.05297C36.7327 5.15923 36.7556 5.28167 36.7405 5.40297C36.8361 5.22102 36.8429 5.00898 36.7363 4.83835C36.6027 4.62502 36.3335 4.54124 36.0752 4.61095Z" fill="#292929"/>
<path d="M35.5988 5.77056C35.7375 5.63325 35.8929 5.50887 36.0668 5.39954L35.9342 5.1875C35.7609 5.29651 35.6044 5.41895 35.4629 5.55319L35.5988 5.77056Z" fill="#D9D9D9"/>
<path d="M36.367 5.43743L35.9691 5.68763C35.8915 5.73648 35.7882 5.7127 35.7397 5.63491L35.5869 5.39085C35.5381 5.31305 35.5618 5.20954 35.6395 5.16086L36.0374 4.91065C36.115 4.86181 36.2182 4.88558 36.2668 4.96338L36.4196 5.20744C36.4682 5.28523 36.4446 5.38874 36.367 5.43743Z" fill="#3D3C3C"/>
<path d="M36.0374 4.91058L35.6395 5.16079C35.5884 5.19297 35.5635 5.24926 35.5645 5.30586L35.8504 5.12601C35.928 5.07733 36.0313 5.10094 36.0798 5.17874L36.2327 5.4228C36.2493 5.44916 36.2546 5.47844 36.2551 5.50771L36.3671 5.43736C36.4447 5.38851 36.4682 5.285 36.4197 5.20737L36.2669 4.96331C36.2183 4.88551 36.115 4.8619 36.0374 4.91058Z" fill="#292929"/>
<path d="M36.3851 5.51288C36.4445 5.60782 36.5799 5.61897 36.653 5.53406C36.828 5.33125 36.8698 5.05193 36.7362 4.83843C36.6026 4.62494 36.3335 4.54116 36.0752 4.61103C35.9672 4.64015 35.9183 4.76711 35.9777 4.86205L36.3851 5.51288Z" fill="#3D3C3C"/>
<path d="M36.0752 4.61095C35.975 4.63796 35.9267 4.74907 35.9677 4.84077C35.9792 4.83431 35.9918 4.82929 36.0052 4.82557C36.2635 4.75586 36.5326 4.83948 36.6662 5.05297C36.7327 5.15923 36.7556 5.28167 36.7405 5.40297C36.8361 5.22102 36.8429 5.00898 36.7363 4.83835C36.6027 4.62502 36.3335 4.54124 36.0752 4.61095Z" fill="#292929"/>
<path d="M53.2285 8.37998C53.2195 8.36203 52.2959 6.55381 50.9371 4.64613C49.1031 2.07128 47.3913 0.54918 45.8487 0.121872C44.9915 -0.115557 44.1908 -0.00573815 43.4688 0.448418L43.6015 0.660455C44.2617 0.245277 44.9952 0.145324 45.7821 0.363183C47.2466 0.768818 48.9582 2.29933 50.732 4.7891C52.0804 6.68191 52.9969 8.47589 53.006 8.49384L53.2285 8.37998Z" fill="white"/>
<path d="M44.1384 0.399015C43.9546 0.464518 43.7753 0.550723 43.6015 0.660057L43.4688 0.448021C43.642 0.33901 43.8202 0.251026 44.0023 0.181641L44.1384 0.399015Z" fill="#D9D9D9"/>
<path d="M43.5052 0.948304L43.9031 0.698098C43.9807 0.649253 44.0042 0.545742 43.9557 0.468108L43.8029 0.224048C43.7543 0.146253 43.651 0.122639 43.5734 0.171322L43.1755 0.421528C43.0979 0.470372 43.0744 0.573884 43.1229 0.651517L43.2757 0.895577C43.3243 0.973373 43.4276 0.997148 43.5052 0.948304Z" fill="#3D3C3C"/>
<path d="M43.1755 0.421655L43.5734 0.171449C43.6245 0.139264 43.6859 0.141205 43.7364 0.166921L43.4504 0.346772C43.3728 0.395616 43.3493 0.499128 43.3978 0.576761L43.5506 0.820821C43.5671 0.847184 43.5911 0.864814 43.6171 0.878076L43.5051 0.948431C43.4275 0.997276 43.3243 0.9735 43.2757 0.895705L43.1229 0.651645C43.0743 0.574011 43.098 0.4705 43.1755 0.421655Z" fill="#292929"/>
<path d="M43.5649 0.997085C43.6243 1.09202 43.5754 1.21899 43.4674 1.2481C43.2091 1.31781 42.94 1.23419 42.8064 1.02054C42.6728 0.807044 42.7146 0.527725 42.8896 0.324907C42.9627 0.240157 43.0981 0.251155 43.1575 0.346095L43.5649 0.997085Z" fill="#3D3C3C"/>
<path d="M42.8896 0.324486C42.9576 0.245721 43.0783 0.250573 43.1428 0.32756C43.132 0.335161 43.122 0.344218 43.1129 0.354731C42.9379 0.557549 42.8961 0.836868 43.0297 1.05036C43.0962 1.15662 43.1962 1.23054 43.3117 1.26951C43.1066 1.27663 42.9132 1.19059 42.8064 1.02012C42.6728 0.806624 42.7146 0.527304 42.8896 0.324486Z" fill="#292929"/>
<path d="M51.8873 22.2819C47.7413 24.8896 41.6745 22.7076 38.3633 17.4182L39.2093 16.886C42.2277 21.7079 47.6769 23.748 51.3564 21.4339C55.036 19.1196 55.5739 13.3141 52.5555 8.49207L53.4014 7.95996C56.7128 13.2496 56.0335 19.6742 51.8873 22.2819Z" fill="#3D3C3C"/>
<path d="M50.9138 21.7123C50.988 21.6655 51.059 21.6151 51.1306 21.5656C47.457 23.6615 42.167 21.6104 39.2095 16.8857L38.7666 17.1643C41.7851 21.9864 47.2344 24.0266 50.9138 21.7123Z" fill="#292929"/>
<path d="M52.9594 8.23863C56.2112 13.4334 55.6118 19.7205 51.6621 22.414C51.7376 22.3704 51.8138 22.3286 51.888 22.2819C56.034 19.6742 56.7133 13.2496 53.4022 7.95996L52.9594 8.23863Z" fill="#292929"/>
<path d="M14.5067 44.5999C14.1964 44.8367 13.8745 45.0635 13.5382 45.2771C12.0984 46.1929 10.1088 46.7979 8.84197 45.7499C7.7433 44.8406 7.73346 43.1063 7.91885 41.8113C8.32095 39.0011 9.4627 36.3394 11.2203 34.1136L10.5677 33.5957C8.71885 35.9368 7.51789 38.7368 7.09481 41.6927C6.87924 43.1991 6.91539 45.2373 8.31192 46.3929C8.94766 46.9189 9.70248 47.1327 10.4873 47.1327C11.6902 47.1326 12.9633 46.6305 13.9839 45.9815C14.3934 45.7211 14.7911 45.4382 15.1769 45.134C14.951 44.9556 14.7287 44.7777 14.5067 44.5999Z" fill="#3D3C3C"/>
<path d="M52.5028 21.5378L51.8819 22.0933C54.3277 24.8395 55.2317 28.8939 54.1846 32.4221C53.1377 35.9506 50.1703 38.8509 46.6246 39.8109C41.8416 41.1058 36.2703 38.5384 34.2059 34.0879C32.6922 30.8242 32.9504 27.0274 33.2004 23.3555C33.2288 22.9368 33.2573 22.5195 33.283 22.1043C33.5232 18.2267 33.425 13.3545 30.508 10.0708C29.4461 8.87541 27.6978 7.79857 25.9737 8.36286C24.3889 8.88155 23.412 10.5576 23.0703 13.3444C23.0563 13.4595 23.0446 13.5753 23.0312 13.6906C23.2273 13.8871 23.413 14.0824 23.5826 14.2724C23.6631 14.1821 23.7477 14.0906 23.8342 13.9984C23.8546 13.8142 23.8738 13.6297 23.8964 13.4462C24.1954 11.0089 24.9812 9.56538 26.2322 9.15586C27.5755 8.71577 29.0403 9.67277 29.8864 10.6256C31.3114 12.2297 32.8907 14.9779 32.4523 22.0526C32.4267 22.466 32.3983 22.8816 32.37 23.2986C32.113 27.0756 31.8474 30.9814 33.4514 34.4393C34.5393 36.785 36.5307 38.7153 39.0587 39.8753C41.576 41.0304 44.3397 41.2934 46.8418 40.616C50.6597 39.5824 53.8551 36.4593 54.9827 32.6599C56.1098 28.8605 55.1365 24.4948 52.5028 21.5378Z" fill="#3D3C3C"/>
<path d="M14.5067 44.5999C14.1964 44.8367 13.8745 45.0635 13.5382 45.2771C12.0984 46.1929 10.1088 46.7979 8.84197 45.7499C7.7433 44.8406 7.73346 43.1063 7.91885 41.8113C8.32095 39.0011 9.4627 36.3394 11.2203 34.1136L10.5677 33.5957C8.71885 35.9368 7.51789 38.7368 7.09481 41.6927C6.87924 43.1991 6.91539 45.2373 8.31192 46.3929C8.94766 46.9189 9.70248 47.1327 10.4873 47.1327C11.6902 47.1326 12.9633 46.6305 13.9839 45.9815C14.3934 45.7211 14.7911 45.4382 15.1769 45.134C14.951 44.9556 14.7287 44.7777 14.5067 44.5999Z" fill="#3D3C3C"/>
<path d="M52.5028 21.5378L51.8819 22.0933C54.3277 24.8395 55.2317 28.8939 54.1846 32.4221C53.1377 35.9506 50.1703 38.8509 46.6246 39.8109C41.8416 41.1058 36.2703 38.5384 34.2059 34.0879C32.6922 30.8242 32.9504 27.0274 33.2004 23.3555C33.2288 22.9368 33.2573 22.5195 33.283 22.1043C33.5232 18.2267 33.425 13.3545 30.508 10.0708C29.4461 8.87541 27.6978 7.79857 25.9737 8.36286C24.3889 8.88155 23.412 10.5576 23.0703 13.3444C23.0563 13.4595 23.0446 13.5753 23.0312 13.6906C23.2273 13.8871 23.413 14.0824 23.5826 14.2724C23.6631 14.1821 23.7477 14.0906 23.8342 13.9984C23.8546 13.8142 23.8738 13.6297 23.8964 13.4462C24.1954 11.0089 24.9812 9.56538 26.2322 9.15586C27.5755 8.71577 29.0403 9.67277 29.8864 10.6256C31.3114 12.2297 32.8907 14.9779 32.4523 22.0526C32.4267 22.466 32.3983 22.8816 32.37 23.2986C32.113 27.0756 31.8474 30.9814 33.4514 34.4393C34.5393 36.785 36.5307 38.7153 39.0587 39.8753C41.576 41.0304 44.3397 41.2934 46.8418 40.616C50.6597 39.5824 53.8551 36.4593 54.9827 32.6599C56.1098 28.8605 55.1365 24.4948 52.5028 21.5378Z" fill="#3D3C3C"/>
<path d="M29.9953 9.97319C32.9123 13.2569 33.0106 18.1291 32.7703 22.0067C32.7447 22.4217 32.7161 22.8392 32.6877 23.2579C32.4379 26.9298 32.1798 30.7266 33.6933 33.9903C35.1502 37.1312 38.3542 39.3319 41.7948 39.9012C38.5517 39.2072 35.5899 37.0718 34.2056 34.0875C32.6919 30.8238 32.9501 27.027 33.2 23.3551C33.2284 22.9364 33.257 22.5191 33.2826 22.1039C33.5229 18.2263 33.4246 13.3541 30.5076 10.0704C29.726 9.19038 28.5722 8.37555 27.3301 8.23145C28.3736 8.50624 29.3223 9.21561 29.9953 9.97319Z" fill="#292929"/>
<path d="M52.5026 21.5376L52.2593 21.7553C54.6888 24.7018 55.5579 28.8958 54.4698 32.5627C53.3423 36.362 50.1468 39.485 46.329 40.5188C44.8184 40.9277 43.2126 40.9916 41.623 40.7257C43.3783 41.0993 45.1682 41.0691 46.8413 40.616C50.6591 39.5824 53.8546 36.4592 54.9821 32.6599C56.1095 28.8604 55.1362 24.4946 52.5026 21.5376Z" fill="#292929"/>
<path d="M25.7188 9.05845C24.4678 9.46797 23.6819 10.9113 23.383 13.3488C23.3606 13.5322 23.3413 13.7168 23.3208 13.901C23.3066 13.9162 23.2935 13.9311 23.2793 13.9461C23.3842 14.056 23.486 14.165 23.5815 14.272C23.662 14.1818 23.7466 14.0902 23.8331 13.998C23.8536 13.8138 23.8728 13.6293 23.8954 13.4459C24.1943 11.0085 24.9801 9.56501 26.2311 9.15549C26.5404 9.05425 26.8561 9.02966 27.1691 9.05942C26.6926 8.92437 26.1982 8.90141 25.7188 9.05845Z" fill="#292929"/>
<path d="M14.6985 44.7534C14.3467 45.0256 13.9864 45.2828 13.615 45.5189C12.5944 46.168 11.3213 46.67 10.1184 46.6702C9.33359 46.6702 8.57877 46.4563 7.94303 45.9304C7.84928 45.8527 7.76247 45.7704 7.68066 45.6853C7.85106 45.9446 8.0584 46.184 8.31173 46.3936C8.94747 46.9196 9.70229 47.1334 10.4871 47.1334C11.69 47.1332 12.9631 46.6312 13.9837 45.9821C14.3932 45.7217 14.791 45.4389 15.1768 45.1346C15.0156 45.007 14.8573 44.8802 14.6985 44.7534Z" fill="#292929"/>
<path d="M7.54966 41.3484C7.37298 42.583 7.37604 44.2152 8.32853 45.1528C7.74636 44.1992 7.76814 42.8611 7.91836 41.8115C8.32046 39.0013 9.46221 36.3396 11.2199 34.1138L10.77 33.7568C9.05914 35.9613 7.94547 38.5824 7.54966 41.3484Z" fill="#292929"/>
<path d="M11.4432 36.6899C13.3017 36.6899 14.8083 35.1797 14.8083 33.3169C14.8083 31.454 13.3017 29.9438 11.4432 29.9438C9.58472 29.9438 8.07812 31.454 8.07812 33.3169C8.07812 35.1797 9.58472 36.6899 11.4432 36.6899Z" fill="#3D3C3C"/>
<path d="M11.4428 29.9434C10.8278 29.9434 10.253 30.1116 9.75684 30.4004C11.4643 30.563 12.8002 32.0032 12.8002 33.7573C12.8002 35.0036 12.1239 36.0893 11.1209 36.6734C11.2269 36.6834 11.3341 36.6897 11.4428 36.6897C13.3013 36.6897 14.8081 35.1796 14.8081 33.3167C14.8081 31.4537 13.3015 29.9434 11.4428 29.9434Z" fill="#292929"/>
<path d="M11.4437 36.1281C12.9928 36.1281 14.2487 34.8693 14.2487 33.3165C14.2487 31.7637 12.9928 30.5049 11.4437 30.5049C9.89451 30.5049 8.63867 31.7637 8.63867 33.3165C8.63867 34.8693 9.89451 36.1281 11.4437 36.1281Z" fill="#D9D9D9"/>
<path d="M11.4429 30.5049C11.172 30.5049 10.9109 30.5455 10.6631 30.6173C11.9141 31.109 12.8002 32.3289 12.8002 33.7572C12.8002 34.6662 12.4394 35.4886 11.8557 36.0945C13.2086 35.8939 14.2479 34.7285 14.2479 33.3165C14.2481 31.7637 12.9923 30.5049 11.4429 30.5049Z" fill="#CAC7C7"/>
<path d="M11.4435 35.4867C12.6394 35.4867 13.6088 34.515 13.6088 33.3163C13.6088 32.1177 12.6394 31.146 11.4435 31.146C10.2477 31.146 9.27832 32.1177 9.27832 33.3163C9.27832 34.515 10.2477 35.4867 11.4435 35.4867Z" fill="white"/>
<path d="M13.6084 33.3164C13.6084 32.1604 12.7061 31.2183 11.5693 31.1523C12.3203 31.7707 12.8003 32.707 12.8003 33.7571C12.8003 34.2883 12.6741 34.7883 12.4553 35.2344C13.1409 34.8702 13.6084 34.1483 13.6084 33.3164Z" fill="#F3F3F3"/>
<path opacity="0.1" d="M11.036 21.4164C13.0403 18.9366 13.4733 15.9585 12.0031 14.7646C10.533 13.5708 7.71642 14.6132 5.71212 17.093C3.70782 19.5727 3.27479 22.5508 4.74493 23.7447C6.21507 24.9386 9.03166 23.8961 11.036 21.4164Z" fill="white"/>
</svg>
