<svg width="182" height="182" viewBox="0 0 182 182" fill="none" xmlns="http://www.w3.org/2000/svg">
<path d="M182 139.193H0V139.284H182V139.193Z" fill="#EBEBEB"/>
<path d="M86.2731 122.959H15.9851C14.8396 122.959 13.9073 122.027 13.9073 120.882V22.0802C13.9073 20.9347 14.8396 20.0025 15.9851 20.0025H86.2731C87.4182 20.0025 88.3504 20.9347 88.3504 22.0802V120.882C88.3504 122.027 87.4182 122.959 86.2731 122.959ZM15.9851 20.0939C14.8894 20.0939 13.9983 20.985 13.9983 22.0806V120.882C13.9983 121.978 14.8894 122.869 15.9851 122.869H86.2731C87.3684 122.869 88.2594 121.978 88.2594 120.882V22.0802C88.2594 20.985 87.3684 20.0935 86.2731 20.0935L15.9851 20.0939Z" fill="#EBEBEB"/>
<path d="M165.005 122.959H94.7172C93.5717 122.959 92.6398 122.027 92.6398 120.882V22.0802C92.6398 20.9347 93.572 20.0025 94.7172 20.0025H165.005C166.151 20.0025 167.083 20.9347 167.083 22.0802V120.882C167.083 122.027 166.151 122.959 165.005 122.959ZM94.7172 20.0939C93.6219 20.0939 92.7308 20.985 92.7308 22.0806V120.882C92.7308 121.978 93.6219 122.869 94.7172 122.869H165.005C166.1 122.869 166.992 121.978 166.992 120.882V22.0802C166.992 20.985 166.1 20.0935 165.005 20.0935L94.7172 20.0939Z" fill="#EBEBEB"/>
<path d="M163.764 145.052H154.301V145.143H163.764V145.052Z" fill="#EBEBEB"/>
<path d="M129.594 146.04H113.204V146.131H129.594V146.04Z" fill="#EBEBEB"/>
<path d="M153.937 141.672H131.808V141.763H153.937V141.672Z" fill="#EBEBEB"/>
<path d="M26.0966 142.283H19.0951V142.374H26.0966V142.283Z" fill="#EBEBEB"/>
<path d="M49.4636 142.283H29.3373V142.374H49.4636V142.283Z" fill="#EBEBEB"/>
<path d="M88.8648 143.82H61.7588V143.911H88.8648V143.82Z" fill="#EBEBEB"/>
<path d="M137.809 137.329H140.72V83.4372H137.809V137.329Z" fill="#F0F0F0"/>
<path d="M123.83 139.188H139.952V137.328H123.83V139.188Z" fill="#F0F0F0"/>
<path d="M137.81 83.4368H123.062V137.328H137.81V83.4368Z" fill="#F5F5F5"/>
<path d="M136.238 111.499H124.635V121.122H136.238V111.499Z" fill="#F0F0F0"/>
<path d="M136.238 124.094H124.635V133.717H136.238V124.094Z" fill="#F0F0F0"/>
<path d="M128.89 116.97H131.982C132.218 116.97 132.41 116.777 132.41 116.542V116.08C132.41 115.844 132.218 115.651 131.982 115.651H128.89C128.654 115.651 128.461 115.844 128.461 116.08V116.542C128.461 116.777 128.654 116.97 128.89 116.97Z" fill="#F5F5F5"/>
<path d="M128.89 129.565H131.982C132.218 129.565 132.41 129.372 132.41 129.136V128.674C132.41 128.438 132.218 128.246 131.982 128.246H128.89C128.654 128.246 128.461 128.438 128.461 128.674V129.136C128.461 129.372 128.654 129.565 128.89 129.565Z" fill="#F5F5F5"/>
<path d="M136.238 86.4089H124.635V96.0319H136.238V86.4089Z" fill="#F0F0F0"/>
<path d="M136.238 98.9043H124.635V108.527H136.238V98.9043Z" fill="#F0F0F0"/>
<path d="M128.89 91.8802H131.982C132.218 91.8802 132.41 91.6872 132.41 91.4514V90.9894C132.41 90.7536 132.218 90.5607 131.982 90.5607H128.89C128.654 90.5607 128.461 90.7536 128.461 90.9894V91.4514C128.461 91.6872 128.654 91.8802 128.89 91.8802Z" fill="#F5F5F5"/>
<path d="M128.89 104.376H131.982C132.218 104.376 132.41 104.183 132.41 103.947V103.485C132.41 103.249 132.218 103.056 131.982 103.056H128.89C128.654 103.056 128.461 103.249 128.461 103.485V103.947C128.461 104.182 128.654 104.376 128.89 104.376Z" fill="#F5F5F5"/>
<path d="M153.948 137.329H162.683V83.4372H153.948V137.329Z" fill="#F0F0F0"/>
<path d="M139.969 139.188H161.789V137.328H139.969V139.188Z" fill="#F0F0F0"/>
<path d="M153.948 83.4368H139.201V137.328H153.948V83.4368Z" fill="#F5F5F5"/>
<path d="M152.376 111.499H140.773V121.122H152.376V111.499Z" fill="#F0F0F0"/>
<path d="M152.376 124.094H140.773V133.717H152.376V124.094Z" fill="#F0F0F0"/>
<path d="M145.029 116.97H148.12C148.356 116.97 148.549 116.777 148.549 116.542V116.08C148.549 115.844 148.356 115.651 148.12 115.651H145.029C144.793 115.651 144.6 115.844 144.6 116.08V116.542C144.6 116.777 144.793 116.97 145.029 116.97Z" fill="#F5F5F5"/>
<path d="M145.029 129.565H148.12C148.356 129.565 148.549 129.372 148.549 129.136V128.674C148.549 128.438 148.356 128.246 148.12 128.246H145.029C144.793 128.246 144.6 128.438 144.6 128.674V129.136C144.6 129.372 144.793 129.565 145.029 129.565Z" fill="#F5F5F5"/>
<path d="M152.376 86.4089H140.773V96.0319H152.376V86.4089Z" fill="#F0F0F0"/>
<path d="M152.376 98.9043H140.773V108.527H152.376V98.9043Z" fill="#F0F0F0"/>
<path d="M145.029 91.8802H148.12C148.356 91.8802 148.549 91.6872 148.549 91.4514V90.9894C148.549 90.7536 148.356 90.5607 148.12 90.5607H145.029C144.793 90.5607 144.6 90.7536 144.6 90.9894V91.4514C144.6 91.6872 144.793 91.8802 145.029 91.8802Z" fill="#F5F5F5"/>
<path d="M145.029 104.376H148.12C148.356 104.376 148.549 104.183 148.549 103.947V103.485C148.549 103.249 148.356 103.056 148.12 103.056H145.029C144.793 103.056 144.6 103.249 144.6 103.485V103.947C144.6 104.182 144.793 104.376 145.029 104.376Z" fill="#F5F5F5"/>
<path d="M106.517 72.1886H155.553V29.1416L106.517 29.1416V72.1886Z" fill="#E6E6E6"/>
<path d="M101.263 27.4671H158.727C158.995 27.4671 159.213 27.6851 159.213 27.9537C159.213 28.2227 158.995 28.4404 158.727 28.4404H101.263C100.994 28.4404 100.776 28.2224 100.776 27.9537C100.776 27.6847 100.994 27.4671 101.263 27.4671Z" fill="#E6E6E6"/>
<path d="M104.437 72.1886H154.58V29.1416L104.437 29.1416V72.1886Z" fill="#F0F0F0"/>
<path d="M106.517 72.1885H155.552V73.5677H105.084L106.517 72.1885Z" fill="#E6E6E6"/>
<path d="M100.97 72.1885H151.114L149.68 73.5677H99.5369L100.97 72.1885Z" fill="#F0F0F0"/>
<path d="M151.667 69.2758V32.0546L107.35 32.0546V69.2758H151.667Z" fill="#FAFAFA"/>
<path d="M141.607 69.2757L124.51 32.0546H116.44L133.536 69.2757H141.607Z" fill="white"/>
<path d="M131.803 69.2757L114.706 32.0546H111.559L128.656 69.2757H131.803Z" fill="white"/>
<path d="M107.719 69.2758V32.0546H107.35V69.2758H107.719Z" fill="#E6E6E6"/>
<g opacity="0.4">
<path d="M151.633 62.1192H156.647V26.5957H151.633V62.1192Z" fill="#F0F0F0"/>
<path d="M149.681 62.1192H153.586V26.5957H149.681V62.1192Z" fill="#E6E6E6"/>
<path d="M146.62 62.1192H151.634V26.5957H146.62V62.1192Z" fill="#F0F0F0"/>
<path d="M144.667 62.1192H148.573V26.5957H144.667V62.1192Z" fill="#E6E6E6"/>
<path d="M141.607 62.1192H146.62V26.5957H141.607V62.1192Z" fill="#F0F0F0"/>
</g>
<g opacity="0.4">
<path d="M109.215 62.1192H112.105V26.5957H109.215V62.1192Z" fill="#F0F0F0"/>
<path d="M108.09 62.1192H110.341V26.5957H108.09V62.1192Z" fill="#E6E6E6"/>
<path d="M106.326 62.1192H109.215V26.5957H106.326V62.1192Z" fill="#F0F0F0"/>
<path d="M105.201 62.1192H107.452V26.5957H105.201V62.1192Z" fill="#E6E6E6"/>
<path d="M103.437 62.1192H106.326V26.5957H103.437V62.1192Z" fill="#F0F0F0"/>
</g>
<path d="M59.7742 55.2173H66.715L65.8953 37.6216H59.7742V55.2173Z" fill="#F5F5F5"/>
<path d="M70.6327 56.1696L72.1299 63.9857H70.6327L61.4559 56.1696H70.6327Z" fill="#F5F5F5"/>
<path d="M72.1299 56.1696V63.9857L62.9531 56.1696H72.1299Z" fill="#E6E6E6"/>
<path d="M34.6459 56.1696L36.143 63.9857H34.6459L25.4691 56.1696H34.6459Z" fill="#F5F5F5"/>
<path d="M36.143 56.1696V63.9857L26.9662 56.1696H36.143Z" fill="#E6E6E6"/>
<path d="M78.8668 55.2446H68.8863V56.3719H78.8668V55.2446Z" fill="#E6E6E6"/>
<path d="M19.2656 56.3717L68.8861 56.3717V55.2444L19.2656 55.2444V56.3717Z" fill="#F5F5F5"/>
<path d="M49.58 55.2174H64.4767L66.3186 33.8953H51.4219L49.58 55.2174Z" fill="#E6E6E6"/>
<path d="M48.8084 55.2174H63.7051L65.5469 33.8953H50.6502L48.8084 55.2174Z" fill="#F0F0F0"/>
<path d="M62.454 52.8568L64.1386 36.2555H51.902L50.2174 52.8568H62.454Z" fill="white"/>
<path d="M42.912 55.2174H47.6906L47.1267 43.102H42.912V55.2174Z" fill="#E0E0E0"/>
<path d="M35.8925 55.2173H46.1497L47.4179 40.5361H37.1607L35.8925 55.2173Z" fill="#F0F0F0"/>
<path d="M35.3611 55.2173H45.6183L46.8864 40.5361H36.6297L35.3611 55.2173Z" fill="#F5F5F5"/>
<path d="M44.7571 53.5921L45.9171 42.1614H37.4912L36.3315 53.5921H44.7571Z" fill="#E0E0E0"/>
<path d="M95.499 86.0638C95.5926 87.1991 94.7477 88.195 93.6124 88.2886C92.4771 88.3821 91.4808 87.5373 91.3877 86.4019C91.2941 85.2666 92.139 84.2704 93.2743 84.1772C94.4096 84.0836 95.4055 84.9285 95.499 86.0638Z" fill="#E0E0E0"/>
<path d="M99.3312 87.1427C99.4248 88.278 98.5799 89.2739 97.4446 89.3675C96.3093 89.461 95.3134 88.6162 95.2198 87.4809C95.1263 86.3455 95.9711 85.3493 97.1065 85.2561C98.2418 85.1625 99.238 86.0074 99.3312 87.1427Z" fill="#E0E0E0"/>
<path d="M102.101 85.9106C102.195 87.0459 101.35 88.0421 100.215 88.1353C99.0793 88.2289 98.0831 87.384 97.9899 86.2487C97.8963 85.1134 98.7412 84.1175 99.8765 84.0239C101.012 83.9304 102.008 84.7749 102.101 85.9106Z" fill="#E0E0E0"/>
<path d="M105.025 86.6742C105.118 87.8095 104.274 88.8058 103.138 88.899C102.003 88.9925 101.007 88.1477 100.914 87.0124C100.82 85.8771 101.665 84.8812 102.8 84.7876C103.935 84.6944 104.932 85.5389 105.025 86.6742Z" fill="#E0E0E0"/>
<path d="M107.651 87.0073C107.651 87.0073 107.411 92.7363 98.2061 92.7363C89.0017 92.7363 88.7614 87.0073 88.7614 87.0073H107.651Z" fill="#F0F0F0"/>
<path d="M21.7968 139.193H25.1405L25.1405 92.7364H21.7968L21.7968 139.193Z" fill="#E6E6E6"/>
<path d="M20.9017 139.193H22.8713L22.8713 92.7364H20.9017L20.9017 139.193Z" fill="#F0F0F0"/>
<path d="M67.7782 92.7363H20.2919V96.2208H67.7782V92.7363Z" fill="#F0F0F0"/>
<path d="M112.754 139.193H116.098V92.7364H112.754V139.193Z" fill="#E6E6E6"/>
<path d="M112.127 139.193H114.097V92.7364H112.127V139.193Z" fill="#F0F0F0"/>
<path d="M116.695 92.7363H69.2088V96.2208H116.695V92.7363Z" fill="#E6E6E6"/>
<path d="M68.063 139.193H71.4067V92.7364H68.063V139.193Z" fill="#E6E6E6"/>
<path d="M67.1678 139.193H69.1374V92.7364H67.1678V139.193Z" fill="#F0F0F0"/>
<path d="M79.0404 77.2845H54.2455L49.8294 91.926H74.6244L79.0404 77.2845Z" fill="#E6E6E6"/>
<path d="M74.6243 91.926L74.5239 92.7356H49.7278L49.8279 91.926H74.6243Z" fill="#E6E6E6"/>
<path d="M78.2771 77.2845H53.4822L49.0661 91.926H73.8611L78.2771 77.2845Z" fill="#F0F0F0"/>
<path d="M73.3744 91.2574L77.3867 77.9535H53.9692L49.9564 91.2574H73.3744Z" fill="white"/>
<path d="M67.4004 91.926L67.3003 92.7356H39.9959L40.096 91.926H67.4004Z" fill="#F0F0F0"/>
<path d="M91 155.632C129.978 155.632 161.576 153.787 161.576 151.511C161.576 149.234 129.978 147.389 91 147.389C52.0222 147.389 20.4244 149.234 20.4244 151.511C20.4244 153.787 52.0222 155.632 91 155.632Z" fill="#F5F5F5"/>
<path d="M137.429 39.7306H95.5365C92.6107 39.7306 90.0612 42.1246 89.8716 45.0504L83.3706 145.355C83.1809 148.282 85.4199 150.675 88.3457 150.675H130.238C133.164 150.675 135.713 148.281 135.903 145.355L140.575 73.2634C140.97 73.125 141.273 72.7585 141.302 72.3264L142.138 59.4281C142.166 58.996 141.91 58.6295 141.533 58.4908L142.404 45.0504C142.594 42.125 140.355 39.7306 137.429 39.7306Z" fill="#407BFF"/>
<path d="M86.4806 65.702H87.3007C87.8201 65.702 88.2725 65.2772 88.306 64.7578L88.6551 59.3735C88.6886 58.854 88.2915 58.4293 87.772 58.4293H86.9519C86.4325 58.4293 85.9801 58.854 85.9466 59.3735L85.5975 64.7578C85.5636 65.2772 85.9611 65.702 86.4806 65.702Z" fill="#407BFF"/>
<path d="M85.8574 75.3178H86.6775C87.1969 75.3178 87.6494 74.8926 87.6829 74.3735L88.0319 68.9896C88.0654 68.4702 87.6683 68.0454 87.1489 68.0454H86.3288C85.8094 68.0454 85.3569 68.4706 85.3234 68.9896L84.9743 74.3735C84.9405 74.8926 85.338 75.3178 85.8574 75.3178Z" fill="#407BFF"/>
<path d="M128.012 150.676H86.1195C83.1936 150.676 80.9547 148.282 81.1443 145.356L87.6454 45.0508C87.835 42.125 90.3841 39.731 93.3103 39.731H135.202C138.129 39.731 140.367 42.125 140.177 45.0508L133.676 145.356C133.487 148.282 130.938 150.676 128.012 150.676Z" fill="#263238"/>
<path opacity="0.2" d="M109.923 146.405C111.39 144.985 111.501 142.719 110.169 141.343C108.838 139.968 106.57 140.005 105.102 141.426C103.635 142.846 103.525 145.112 104.856 146.487C106.187 147.863 108.456 147.826 109.923 146.405Z" fill="white"/>
<path d="M131.799 137.653H84.1743C83.4896 137.653 82.9472 137.074 82.9913 136.391L88.5663 50.3703C88.6067 49.7468 89.1243 49.2616 89.7493 49.2616H137.374C138.059 49.2616 138.601 49.8403 138.557 50.5236L132.982 136.544C132.941 137.168 132.424 137.653 131.799 137.653Z" fill="white"/>
<path opacity="0.2" d="M118.518 103.745C123.845 98.5884 124.244 90.361 119.411 85.3687C114.578 80.3763 106.342 80.5096 101.016 85.6662C95.6891 90.8229 95.2893 99.0502 100.122 104.043C104.956 109.035 113.192 108.902 118.518 103.745Z" fill="#407BFF"/>
<path opacity="0.2" d="M108.46 114.755C97.4046 114.755 88.9933 105.761 89.71 94.7051C90.4263 83.6497 100.004 74.6557 111.059 74.6557C122.114 74.6557 130.525 83.6497 129.809 94.7051C129.092 105.761 119.515 114.755 108.46 114.755ZM111.035 75.0197C100.181 75.0197 90.7772 83.8503 90.074 94.7051C89.3704 105.56 97.6292 114.391 108.484 114.391C119.338 114.391 128.741 105.56 129.445 94.7051C130.148 83.8507 121.89 75.0197 111.035 75.0197Z" fill="#407BFF"/>
<path d="M106.655 101.005L105.571 98.9006C103.206 94.3098 97.7548 90.2065 95.8539 89.0129L97.6521 86.3226C99.9031 87.736 104.406 91.2348 107.233 95.3895C112.453 89.2062 119.835 82.8278 129.721 75.953L131.406 78.4933C120.843 85.8392 113.253 92.5557 108.2 99.0273L106.655 101.005Z" fill="#407BFF"/>
<path opacity="0.2" d="M106.139 45.4513C106.734 44.8759 106.778 43.9579 106.239 43.4009C105.7 42.844 104.781 42.8589 104.187 43.4344C103.592 44.0098 103.548 44.9278 104.087 45.4848C104.626 46.0417 105.545 46.0268 106.139 45.4513Z" fill="white"/>
<path opacity="0.2" d="M110.261 42.9957H122.307C123.104 42.9957 123.715 43.6483 123.663 44.4455C123.611 45.243 122.916 45.8953 122.119 45.8953H110.073C109.275 45.8953 108.665 45.2426 108.717 44.4455C108.769 43.648 109.464 42.9957 110.261 42.9957Z" fill="white"/>
<path d="M65.4246 69.9044C64.8098 70.5319 64.1506 71.2261 63.5453 71.9195C62.9298 72.6151 62.3274 73.3216 61.7566 74.0489C61.184 74.7758 60.6449 75.5205 60.1266 76.2736L59.7491 76.8444L59.3953 77.4246C59.2738 77.6172 59.1642 77.8134 59.059 78.011L58.7674 78.5468C58.6699 78.7412 58.5989 79.1136 58.5672 79.5034C58.5348 79.8987 58.5414 80.3315 58.5683 80.7709C58.6247 81.6525 58.7536 82.5683 58.9181 83.4827C59.0761 84.4003 59.2738 85.3216 59.4958 86.2392C59.7055 87.1583 59.9483 88.0847 60.1889 88.9885L58.8402 89.4934C58.0172 87.7025 57.3486 85.8811 56.7949 83.9741C56.5285 83.0186 56.2941 82.0445 56.1528 81.0158C56.0844 80.5 56.0349 79.9719 56.0389 79.4077C56.0476 78.842 56.0906 78.2443 56.3552 77.5462C56.4375 77.3434 56.4837 77.2608 56.5405 77.1396L56.7068 76.7942C56.816 76.5623 56.9292 76.3333 57.0526 76.1128L57.4152 75.4441L57.7992 74.7925C58.3201 73.9317 58.8741 73.0956 59.478 72.305C60.0764 71.5092 60.6926 70.7314 61.3446 69.9845C62.0085 69.2375 62.6571 68.5241 63.4124 67.8066L65.4246 69.9044Z" fill="#B55B52"/>
<path d="M65.5808 65.516C63.6083 65.6056 61.7359 68.879 61.7359 68.879L64.3403 74.1992C64.3403 74.1992 67.8707 71.257 67.9159 68.3669C67.9457 66.4875 67.5206 65.4279 65.5808 65.516Z" fill="#407BFF"/>
<path opacity="0.7" d="M65.5808 65.516C63.6083 65.6056 61.7359 68.879 61.7359 68.879L64.3403 74.1992C64.3403 74.1992 67.8707 71.257 67.9159 68.3669C67.9457 66.4875 67.5206 65.4279 65.5808 65.516Z" fill="white"/>
<path opacity="0.2" d="M66.0515 69.342C65.4763 70.212 65.1997 72.4688 65.1123 73.4734C65.7675 72.8182 66.6848 71.7735 67.2854 70.5942C66.9069 69.6223 66.43 68.7705 66.0515 69.342Z" fill="black"/>
<path d="M59.815 88.4185L62.2141 89.1312L60.6176 90.7478C60.6176 90.7478 58.8894 90.2149 58.648 89.0399L59.815 88.4185Z" fill="#B55B52"/>
<path d="M63.6661 90.9782L63.2621 92.5233L60.6176 90.7478L62.2138 89.1312L63.6661 90.9782Z" fill="#B55B52"/>
<path d="M79.4503 59.2028C79.3753 59.4183 79.4292 59.6363 79.57 59.6898C79.7109 59.7433 79.886 59.6116 79.961 59.3961C80.036 59.1806 79.9821 58.9626 79.8412 58.909C79.7 58.8559 79.5249 58.9873 79.4503 59.2028Z" fill="#263238"/>
<path d="M79.7746 58.8974L80.3446 58.9444C80.3446 58.9444 79.9384 59.2483 79.7746 58.8974Z" fill="#263238"/>
<path d="M79.5591 59.4813C79.5591 59.4813 79.6028 60.5478 79.8503 61.148C79.4732 61.306 79.0313 61.0013 79.0313 61.0013L79.5591 59.4813Z" fill="#A02724"/>
<path d="M80.1557 58.3652C80.1051 58.3565 80.0618 58.3186 80.048 58.2659C79.8987 57.6805 79.4427 57.5018 79.4234 57.4942C79.3538 57.468 79.3185 57.3904 79.3444 57.3213C79.3702 57.2518 79.4474 57.2161 79.5169 57.2416C79.5417 57.2507 80.1241 57.472 80.309 58.1992C80.3275 58.2713 80.2839 58.3448 80.2118 58.363C80.1932 58.3681 80.1739 58.3685 80.1557 58.3652Z" fill="#263238"/>
<path d="M71.973 60.119C72.0261 61.8385 71.8507 64.9362 70.5028 65.8156C70.5028 65.8156 70.6808 67.5839 73.7759 68.1834C77.1793 68.8426 75.68 66.8184 75.68 66.8184C73.8953 66.0176 74.1697 64.6566 74.7059 63.4325L71.973 60.119Z" fill="#B55B52"/>
<path d="M82.0878 71.8991C82.3965 72.7356 82.7441 73.6376 83.114 74.493C83.4816 75.3578 83.8634 76.2158 84.2773 77.0548C84.6904 77.8949 85.1338 78.7125 85.5913 79.5165C85.8258 79.9144 86.0638 80.3097 86.3186 80.6886C86.4413 80.8834 86.5694 81.0719 86.7041 81.2535L86.9021 81.5306L87.0011 81.6692L87.0506 81.7384L87.0837 81.777C87.2424 81.9834 87.5537 82.2404 87.8904 82.477C88.2318 82.7154 88.6136 82.9425 89.0115 83.1569C89.8112 83.5835 90.664 83.9755 91.5344 84.3414C92.4036 84.713 93.2925 85.0595 94.1916 85.3857C95.0848 85.7235 95.9999 86.0383 96.8968 86.3485L96.5597 87.7484C94.6014 87.4274 92.6988 86.9705 90.7889 86.3918C89.8378 86.0922 88.8888 85.7613 87.9439 85.3398C87.4714 85.1269 86.9986 84.8921 86.5232 84.6089C86.0471 84.3206 85.5695 83.9952 85.0916 83.4681L85.0042 83.3706L84.9438 83.2949L84.8233 83.1438L84.5823 82.8413C84.4182 82.6407 84.2635 82.4358 84.1164 82.2272C83.8092 81.8159 83.5249 81.3941 83.245 80.97C82.6924 80.1193 82.1756 79.2497 81.7195 78.3561C81.2576 77.465 80.8178 76.5656 80.4207 75.6479C80.0291 74.7201 79.6596 73.8192 79.3316 72.8237L82.0878 71.8991Z" fill="#B55B52"/>
<path d="M96.4152 86.3273L98.5635 85.4949L98.4576 87.9752C98.4576 87.9752 96.7192 88.4389 95.9118 87.5598L96.4152 86.3273Z" fill="#B55B52"/>
<path d="M100.182 86.3474L100.92 87.9315L98.4576 87.9752L98.5636 85.4949L100.182 86.3474Z" fill="#B55B52"/>
<path d="M64.5678 148.473L67.4099 148.683L68.254 142.156L65.4119 141.947L64.5678 148.473Z" fill="#B55B52"/>
<path d="M42.0497 133.709L43.9057 135.914L49.4181 132.372L47.5621 130.167L42.0497 133.709Z" fill="#B55B52"/>
<path d="M44.7807 135.629L43.2843 132.753C43.2297 132.648 43.1151 132.6 43.0084 132.637L40.629 133.459C40.3822 133.544 40.2708 133.86 40.4007 134.099C40.9391 135.094 41.2478 135.547 41.9059 136.812C42.3106 137.59 42.8239 138.768 43.383 139.842C43.9297 140.893 45.0035 140.437 44.8641 139.941C44.2391 137.716 44.6519 137.099 44.851 136.136C44.8867 135.963 44.8605 135.782 44.7807 135.629Z" fill="#263238"/>
<path d="M67.5872 148.278H64.3927C64.2766 148.278 64.1801 148.359 64.1608 148.472L63.732 151C63.6876 151.262 63.9068 151.51 64.175 151.506C65.2892 151.486 65.8276 151.421 67.2326 151.421C68.0968 151.421 69.8822 151.511 71.0761 151.511C72.2435 151.511 72.3636 150.331 71.8693 150.224C69.6532 149.745 68.7931 149.084 68.0585 148.453C67.9257 148.339 67.7571 148.278 67.5872 148.278Z" fill="#263238"/>
<path opacity="0.2" d="M68.2529 142.158L67.7844 145.785L64.951 145.501L65.4097 141.948L68.2529 142.158Z" fill="black"/>
<path opacity="0.2" d="M47.5599 130.168L49.417 132.373L47.1358 133.837L45.2081 131.678L47.5599 130.168Z" fill="black"/>
<path d="M64.7807 82.8293C66.9848 83.2552 71.6596 84.1615 76.1812 85.0388C81.5684 69.1793 80.2791 68.6661 80.2791 68.6661C80.2791 68.6661 79.1354 68.0291 77.6918 67.4649C77.6365 67.443 77.5852 67.4248 77.5371 67.4066C76.8084 67.1409 76.6544 67.1009 75.6778 66.8169C73.999 66.4202 72.4349 66.0962 70.5014 65.8159C70.3772 65.7977 70.2527 65.7795 70.1323 65.765C69.7814 65.7213 69.4348 65.6849 69.0989 65.6521C68.8725 65.6267 68.6464 65.6121 68.4313 65.5975C68.1761 65.583 67.9279 65.5684 67.6949 65.5575C66.4482 65.4956 65.5571 65.5138 65.5571 65.5138C66.2102 75.411 65.7337 78.2538 64.7807 82.8293Z" fill="#407BFF"/>
<path opacity="0.7" d="M64.7807 82.8293C66.9848 83.2552 71.6596 84.1615 76.1812 85.0388C81.5684 69.1793 80.2791 68.6661 80.2791 68.6661C80.2791 68.6661 79.1354 68.0291 77.6918 67.4649C77.6365 67.443 77.5852 67.4248 77.5371 67.4066C76.8084 67.1409 76.6544 67.1009 75.6778 66.8169C73.999 66.4202 72.4349 66.0962 70.5014 65.8159C70.3772 65.7977 70.2527 65.7795 70.1323 65.765C69.7814 65.7213 69.4348 65.6849 69.0989 65.6521C68.8725 65.6267 68.6464 65.6121 68.4313 65.5975C68.1761 65.583 67.9279 65.5684 67.6949 65.5575C66.4482 65.4956 65.5571 65.5138 65.5571 65.5138C66.2102 75.411 65.7337 78.2538 64.7807 82.8293Z" fill="white"/>
<path opacity="0.2" d="M78.6531 72.3596L77.623 72.1921C77.6121 73.5499 78.1399 75.8795 78.6422 77.3609C79.0681 75.9122 79.3993 74.7074 79.6505 73.6987L78.6531 72.3596Z" fill="black"/>
<path d="M79.8958 68.4629C81.5797 69.0031 82.806 72.3377 83.2665 73.7762L80.0025 77.6215C80.0025 77.6215 76.6344 72.7996 77.1524 71.3043C77.6918 69.7471 79.0779 68.2005 79.8958 68.4629Z" fill="#407BFF"/>
<path opacity="0.7" d="M79.8958 68.4629C81.5797 69.0031 82.806 72.3377 83.2665 73.7762L80.0025 77.6215C80.0025 77.6215 76.6344 72.7996 77.1524 71.3043C77.6918 69.7471 79.0779 68.2005 79.8958 68.4629Z" fill="white"/>
<path d="M80.9849 56.1535C80.6478 57.1476 79.1744 57.5466 77.6936 57.0443C76.2129 56.5423 75.2861 55.3295 75.6232 54.335C75.9603 53.3409 77.4337 52.942 78.9145 53.4443C80.3949 53.9466 81.322 55.1595 80.9849 56.1535Z" fill="#263238"/>
<path d="M72.4385 55.8798C71.6822 58.5887 71.3043 59.7175 72.1703 61.5826C73.4734 64.3883 76.962 64.8273 78.5115 62.4242C79.9064 60.2609 80.9088 56.1943 78.6815 54.1596C76.4873 52.1546 73.1949 53.1709 72.4385 55.8798Z" fill="#B55B52"/>
<path d="M76.6657 52.7192C75.5606 53.3453 73.2557 49.4232 70.3765 52.7192C68.3152 55.079 69.6281 58.5461 69.6281 58.5461C69.6281 58.5461 67.9894 55.6596 66.6757 57.0668C64.9671 58.8974 66.7365 65.3984 72.3785 64.9536C78.0205 64.5088 77.4792 59.9261 77.4792 59.9261C77.4792 59.9261 80.1219 57.2383 79.9894 54.8424C79.8882 53.0188 78.4857 51.688 76.6657 52.7192Z" fill="#263238"/>
<path d="M77.3518 58.2061C77.1935 58.6925 77.243 59.2774 77.3991 59.7397C77.6343 60.4349 78.1686 60.4393 78.4522 59.9584C78.7077 59.526 78.893 58.6426 78.489 58.0835C78.0911 57.5324 77.5327 57.6503 77.3518 58.2061Z" fill="#B55B52"/>
<path d="M73.1713 84.4553C73.1713 84.4553 71.9555 88.6704 70.394 94.2323C69.3566 97.9379 68.1627 102.24 67.0743 106.292C66.4519 108.61 65.8658 110.845 65.3599 112.84C62.4988 124.142 48.23 133.857 48.23 133.857L45.4673 130.818C45.4673 130.818 55.055 122.744 57.8287 112.199C63.4598 90.7925 60.293 87.1816 64.7811 82.8318L73.1713 84.4553Z" fill="#263238"/>
<path opacity="0.2" d="M71.9337 88.2263C71.5114 89.8607 70.98 91.9246 70.394 94.2323C69.3566 97.9379 68.1627 102.24 67.0743 106.292C66.6084 101.123 66.3317 91.6188 70.1501 88.6631C70.8999 88.0807 71.4932 87.9679 71.9337 88.2263Z" fill="black"/>
<path d="M48.4604 134.292L45.0086 130.493L46.0518 129.447L50.2848 133.436L48.4604 134.292Z" fill="#407BFF"/>
<path opacity="0.7" d="M48.4604 134.292L45.0086 130.493L46.0518 129.447L50.2848 133.436L48.4604 134.292Z" fill="white"/>
<path d="M45.2929 137.174C45.259 137.173 45.2248 137.166 45.1913 137.154C44.8506 137.031 44.6366 136.384 44.5394 136.01C44.5325 135.984 44.542 135.956 44.5634 135.939C44.5853 135.923 44.6144 135.921 44.6377 135.935C44.74 135.994 45.6358 136.52 45.6543 136.885C45.6583 136.966 45.6227 137.037 45.551 137.088C45.4651 137.15 45.3784 137.179 45.2929 137.174ZM44.7145 136.138C44.8615 136.633 45.053 136.961 45.2368 137.027C45.3122 137.055 45.3893 137.039 45.472 136.979C45.5167 136.947 45.5211 136.916 45.5197 136.892C45.5102 136.699 45.0672 136.36 44.7145 136.138Z" fill="#407BFF"/>
<path d="M76.0101 85.0384C76.0101 85.0384 76.7199 107.541 75.13 116.017C73.4763 124.833 68.44 144.888 68.44 144.888L64.3406 144.359C64.3406 144.359 66.933 124.1 68.0334 115.34C69.2332 105.79 67.6614 83.4212 67.6614 83.4212L76.0101 85.0384Z" fill="#263238"/>
<path d="M69.3118 145.122L63.4689 144.368L63.5413 142.98L69.8975 143.257L69.3118 145.122Z" fill="#407BFF"/>
<path opacity="0.7" d="M69.3118 145.122L63.4689 144.368L63.5413 142.98L69.8975 143.257L69.3118 145.122Z" fill="white"/>
<path d="M45.4312 136.293C45.1138 136.276 44.7338 136.16 44.5671 136.049C44.5474 136.036 44.5362 136.013 44.5372 135.989C44.5387 135.966 44.5522 135.944 44.5733 135.933C44.6031 135.918 45.3137 135.551 45.6999 135.699C45.8051 135.739 45.8782 135.812 45.9175 135.916C45.979 136.078 45.9059 136.168 45.8567 136.207C45.7661 136.279 45.6085 136.302 45.4312 136.293ZM44.7516 135.997C45.065 136.142 45.6194 136.224 45.7727 136.102C45.7981 136.081 45.8233 136.048 45.7916 135.964C45.7661 135.897 45.7202 135.852 45.6518 135.826C45.4225 135.738 44.9948 135.888 44.7516 135.997Z" fill="#407BFF"/>
<path d="M68.6442 148.775C68.3308 148.775 67.9919 148.721 67.7513 148.673C67.7233 148.668 67.7018 148.645 67.6978 148.616C67.6938 148.588 67.708 148.56 67.7338 148.547C67.8638 148.48 69.0159 147.9 69.3573 148.094C69.4235 148.132 69.461 148.194 69.4661 148.274C69.4749 148.408 69.4312 148.518 69.3362 148.601C69.1869 148.731 68.9259 148.775 68.6442 148.775ZM67.9766 148.578C68.6023 148.682 69.0705 148.654 69.2474 148.5C69.31 148.445 69.3373 148.374 69.3314 148.282C69.3293 148.247 69.3172 148.226 69.2907 148.211C69.105 148.106 68.4491 148.353 67.9766 148.578Z" fill="#407BFF"/>
<path d="M67.7644 148.675C67.7506 148.675 67.7364 148.67 67.7248 148.662C67.7055 148.648 67.6949 148.624 67.6975 148.6C67.7033 148.548 67.8376 147.318 68.5256 147.39C68.7097 147.409 68.7625 147.502 68.7745 147.577C68.8262 147.898 68.1386 148.514 67.7921 148.669C67.783 148.673 67.7735 148.675 67.7644 148.675ZM68.4728 147.522C68.0629 147.522 67.9009 148.197 67.8507 148.486C68.2049 148.274 68.6726 147.791 68.6417 147.598C68.6391 147.583 68.6318 147.536 68.5121 147.524C68.4986 147.523 68.4855 147.522 68.4728 147.522Z" fill="#407BFF"/>
<path d="M64.7207 82.1319L64.0389 83.047C63.9861 83.1179 64.0666 83.2162 64.1983 83.2421L76.155 85.5578C76.2577 85.5779 76.3512 85.544 76.3683 85.481L76.6388 84.4862C76.6573 84.4174 76.5783 84.3406 76.4659 84.3188L64.9205 82.0827C64.8357 82.0664 64.7549 82.086 64.7207 82.1319Z" fill="#407BFF"/>
<path d="M66.0595 83.7156L65.7501 83.6556C65.6885 83.6436 65.6467 83.6032 65.6572 83.5653L66.0201 82.2749C66.0307 82.2371 66.0897 82.216 66.1516 82.228L66.461 82.288C66.5225 82.3 66.5643 82.3408 66.5538 82.3783L66.1909 83.6687C66.1799 83.7065 66.121 83.7276 66.0595 83.7156Z" fill="#263238"/>
<path d="M73.8676 85.2463L73.5586 85.1862C73.4971 85.1742 73.4552 85.1338 73.4658 85.0959L73.8287 83.8055C73.8392 83.7677 73.8982 83.7466 73.9601 83.7586L74.2691 83.8186C74.3306 83.8307 74.3725 83.8711 74.3619 83.9089L73.999 85.1989C73.9881 85.2372 73.9291 85.2583 73.8676 85.2463Z" fill="#263238"/>
</svg>
